<svg width="247" height="140" viewBox="0 0 247 140" fill="none" xmlns="http://www.w3.org/2000/svg">
<path d="M53.1312 99.2383C53.6083 103.018 52.9533 106.854 51.2492 110.261C49.545 113.668 46.8684 116.493 43.558 118.379C40.2476 120.264 36.4523 121.125 32.6525 120.852C28.8527 120.579 25.2192 119.186 22.2119 116.847C19.2047 114.508 16.9588 111.33 15.7587 107.714C14.5585 104.099 14.458 100.208 15.4698 96.5357C16.4817 92.8629 18.5605 89.5729 21.443 87.0821C24.3255 84.5913 27.8821 83.0117 31.6628 82.5432C36.7235 81.911 41.828 83.3146 45.8539 86.4454C49.8799 89.5762 52.4975 94.1778 53.1312 99.2383Z" fill="#F5F5F5"/>
<path d="M48.5845 99.799C48.9508 102.68 48.4541 105.604 47.1573 108.202C45.8605 110.8 43.8219 112.955 41.2997 114.394C38.7775 115.833 35.885 116.491 32.9886 116.285C30.0922 116.079 27.322 115.018 25.0288 113.237C22.7356 111.455 21.0226 109.034 20.1066 106.278C19.1906 103.523 19.1128 100.557 19.8831 97.7575C20.6534 94.9578 22.2371 92.4496 24.4337 90.5505C26.6304 88.6514 29.3411 87.4468 32.2228 87.0892C36.0776 86.6068 39.9662 87.6745 43.0342 90.0577C46.1021 92.4409 48.0985 95.9446 48.5845 99.799Z" fill="#EBEBEB"/>
<path d="M48.5234 99.3444C48.4363 99.3444 48.2962 98.7269 47.9211 97.6397C47.402 96.1147 46.6492 94.6795 45.6898 93.3854C45.0221 92.5031 44.2599 91.6965 43.4168 90.9798C42.454 90.1648 41.3909 89.476 40.2536 88.9304C38.9977 88.3309 37.6618 87.9162 36.2872 87.6992C35.5628 87.5852 34.8308 87.527 34.0976 87.5249C33.3367 87.5248 32.5769 87.5818 31.8246 87.6954C31.0896 87.8217 30.3643 87.9989 29.6539 88.2257C28.9555 88.4513 28.2754 88.7299 27.6195 89.0592C26.985 89.3755 26.3758 89.7402 25.7974 90.1502C25.2401 90.5418 24.7121 90.9736 24.2176 91.442C23.2992 92.3055 22.4969 93.2848 21.831 94.3552C21.2518 95.2879 20.7767 96.2814 20.4142 97.3177C19.8889 98.8453 19.6051 100.446 19.5732 102.061C19.5504 103.197 19.6073 103.853 19.5201 103.864C19.433 103.875 19.2474 103.25 19.1413 102.072C18.9988 100.394 19.1709 98.7048 19.6489 97.0904C19.9777 95.9668 20.438 94.886 21.0203 93.8703C21.6986 92.7035 22.5306 91.6332 23.4941 90.6881C24.0119 90.1728 24.5706 89.7002 25.1647 89.2751C25.7804 88.823 26.4316 88.4215 27.1119 88.0742C27.8164 87.7111 28.5486 87.4046 29.3015 87.1574C30.0841 86.9068 30.8844 86.7156 31.6958 86.5854C32.5023 86.4664 33.3164 86.4069 34.1316 86.4074C34.9238 86.4137 35.7141 86.482 36.4956 86.6119C37.249 86.7371 37.9914 86.922 38.7155 87.165C39.4104 87.3915 40.0868 87.6714 40.7385 88.0022C43.0021 89.134 44.9357 90.8301 46.3527 92.927C47.3006 94.3218 47.9826 95.8797 48.3643 97.5223C48.5954 98.6777 48.5879 99.3369 48.5234 99.3444Z" fill="#E0E0E0"/>
<path d="M36.7465 110.084L37.0988 112.619L34.8258 112.929L34.4848 110.467C32.2119 110.641 29.9843 110.24 28.6092 109.44L29.4691 106.508C30.8918 107.235 32.4796 107.579 34.0757 107.504L33.5529 103.716C30.9579 103.455 28.0409 103.004 27.5939 99.7725C27.2605 97.3783 28.7304 95.0788 32.2308 94.1771L31.8823 91.6693L34.1553 91.3549L34.4962 93.821C36.1258 93.6894 37.7634 93.9478 39.2733 94.5749L38.5156 97.5146C37.3665 97.0446 36.1354 96.8077 34.894 96.8176L35.4281 100.659C38.0155 100.901 40.8909 101.356 41.3303 104.542C41.6713 106.891 40.2355 109.164 36.7465 110.084ZM33.1021 100.409L32.6589 97.2002C31.4959 97.6359 31.1132 98.3557 31.2155 99.0944C31.3178 99.8331 32.0755 100.231 33.1021 100.409ZM37.7466 105.334C37.6367 104.542 36.9207 104.197 35.9017 103.996L36.3335 107.118C37.4321 106.698 37.8451 106.031 37.7579 105.319L37.7466 105.334Z" fill="#E0E0E0"/>
<path d="M246.149 139.731C246.149 139.788 191.041 139.829 123.082 139.829C55.1238 139.829 0 139.788 0 139.731C0 139.674 55.0972 139.632 123.082 139.632C191.067 139.632 246.149 139.678 246.149 139.731Z" fill="#263238"/>
<path d="M17.1837 128.161C17.4611 128.259 17.716 128.411 17.9328 128.61C18.1496 128.808 18.3239 129.049 18.4452 129.317C18.6846 129.855 18.7986 130.441 18.7785 131.029C18.6913 132.209 18.2997 133.346 17.642 134.329C16.6116 133.605 16.2404 132.192 16.1002 131.461C15.8767 130.325 16.1684 128.093 17.1647 128.161" fill="#A64911"/>
<path d="M18.9525 136.064C18.855 135.75 18.8418 135.416 18.9143 135.096C18.9867 134.775 19.1424 134.479 19.3655 134.238C19.5927 134.001 19.8649 133.812 20.1661 133.682C20.4673 133.552 20.7914 133.484 21.1194 133.48C21.2699 133.461 21.4227 133.476 21.5669 133.523C21.711 133.57 21.8429 133.649 21.9529 133.753C22.0389 133.865 22.0934 133.999 22.1107 134.139C22.1281 134.28 22.1076 134.422 22.0514 134.552C21.9328 134.812 21.7487 135.037 21.5172 135.204C20.7596 135.802 19.9072 136.242 18.9525 136.064Z" fill="#A64911"/>
<path d="M18.0918 139.625C18.0827 139.548 18.0827 139.471 18.0918 139.394C18.0918 139.227 18.1221 139.015 18.1411 138.757C18.1726 138.053 18.3185 137.358 18.5729 136.7C18.8396 136.042 19.2763 135.467 19.8382 135.033C20.01 134.907 20.1955 134.8 20.3913 134.715L20.5542 134.655C20.5921 134.655 20.6148 134.655 20.6148 134.655C20.3465 134.772 20.0923 134.919 19.8572 135.094C19.3157 135.532 18.8947 136.1 18.6335 136.746C18.3837 137.397 18.2317 138.081 18.1827 138.776C18.1524 139.042 18.1297 139.257 18.107 139.405C18.1074 139.479 18.1024 139.552 18.0918 139.625Z" fill="#263238"/>
<path d="M17.1113 129.881L17.1341 129.984L17.1795 130.268C17.2212 130.518 17.2742 130.881 17.3348 131.328C17.4599 132.223 17.6114 133.461 17.7516 134.833C17.8917 136.204 17.9902 137.447 18.047 138.348C18.0773 138.799 18.0963 139.167 18.1077 139.417C18.1077 139.538 18.1077 139.632 18.1077 139.708C18.1119 139.742 18.1119 139.777 18.1077 139.811C18.1052 139.776 18.1052 139.742 18.1077 139.708C18.1077 139.636 18.1077 139.538 18.0811 139.42C18.0584 139.159 18.0281 138.795 17.994 138.356C17.922 137.454 17.8122 136.212 17.6758 134.84C17.5394 133.469 17.3917 132.23 17.297 131.336C17.2439 130.893 17.1985 130.533 17.1682 130.272C17.1682 130.154 17.1416 130.059 17.1341 129.984C17.1231 129.95 17.1155 129.916 17.1113 129.881Z" fill="#263238"/>
<path d="M17.3917 136.916C17.2055 136.248 16.8626 135.635 16.3914 135.126C15.9203 134.617 15.3346 134.228 14.683 133.992C14.5268 133.911 14.3506 133.876 14.1753 133.892C14.0001 133.909 13.8331 133.975 13.6943 134.083C13.6019 134.232 13.5556 134.406 13.561 134.582C13.5664 134.757 13.6232 134.928 13.7246 135.071C14.0729 135.719 14.6053 136.249 15.2546 136.594C15.9039 136.939 16.641 137.084 17.3727 137.011" fill="#A64911"/>
<path d="M14.9552 135.041C15.0273 135.053 15.0974 135.074 15.1636 135.105C15.2454 135.132 15.3252 135.165 15.4022 135.204C15.5075 135.247 15.6099 135.296 15.7091 135.352C15.8227 135.416 15.944 135.48 16.0652 135.564C16.197 135.651 16.3235 135.746 16.444 135.848C16.7253 136.08 16.9795 136.343 17.2017 136.632C17.418 136.926 17.5998 137.244 17.7434 137.579C17.8069 137.726 17.8601 137.876 17.9025 138.03C17.9455 138.161 17.9796 138.296 18.0048 138.432C18.027 138.543 18.0435 138.656 18.0541 138.769C18.0606 138.854 18.0606 138.941 18.0541 139.026C18.0639 139.099 18.0639 139.173 18.0541 139.246C18.0541 139.246 18.0541 138.932 17.929 138.443C17.8988 138.315 17.8621 138.188 17.8192 138.064C17.7775 137.92 17.7169 137.776 17.6563 137.625C17.5175 137.299 17.3448 136.989 17.1411 136.7C16.9223 136.417 16.6747 136.156 16.4024 135.924C16.2736 135.821 16.1523 135.723 16.0235 135.64C15.8947 135.556 15.7849 135.488 15.6788 135.424C15.2469 135.155 14.9476 135.056 14.9552 135.041Z" fill="#263238"/>
<path d="M218.642 33.6317C224.834 27.4403 224.834 17.402 218.642 11.2106C212.451 5.0192 202.413 5.01921 196.221 11.2106C190.03 17.402 190.03 27.4403 196.221 33.6317C202.413 39.8231 212.451 39.8231 218.642 33.6317Z" fill="#B94C0C"/>
<g opacity="0.1">
<path d="M197.199 10.3147C195.606 11.6568 194.292 13.3 193.335 15.1502C192.377 17.0004 191.793 19.0214 191.617 21.0974C191.441 23.1734 191.676 25.2638 192.309 27.2488C192.942 29.2339 193.96 31.0746 195.305 32.6657C195.305 32.6657 204.136 25.8468 203.287 20.7023C202.439 15.5577 197.199 10.3147 197.199 10.3147Z" fill="white"/>
</g>
<path d="M216.283 14.6143C217.823 16.4336 218.788 18.6685 219.058 21.0367C219.328 23.4048 218.889 25.7997 217.797 27.9185C216.706 30.0373 215.011 31.7848 212.926 32.9401C210.841 34.0954 208.461 34.6065 206.086 34.4089C203.71 34.2113 201.447 33.3137 199.582 31.8298C197.717 30.3459 196.334 28.3422 195.607 26.0722C194.881 23.8021 194.844 21.3677 195.501 19.0767C196.159 16.7857 197.481 14.741 199.3 13.2013C201.739 11.1367 204.899 10.1257 208.084 10.3906C211.269 10.6556 214.218 12.1749 216.283 14.6143Z" fill="#B94C0C"/>
<g opacity="0.2">
<path d="M216.282 14.6142C217.822 16.4334 218.788 18.6684 219.057 21.0365C219.327 23.4047 218.888 25.7995 217.797 27.9183C216.705 30.0371 215.01 31.7847 212.925 32.94C210.84 34.0952 208.46 34.6064 206.085 34.4088C203.709 34.2112 201.446 33.3136 199.581 31.8297C197.716 30.3458 196.333 28.3421 195.606 26.0721C194.88 23.802 194.843 21.3676 195.5 19.0766C196.158 16.7856 197.48 14.7409 199.299 13.2012C201.738 11.1365 204.898 10.1255 208.083 10.3905C211.268 10.6555 214.217 12.1748 216.282 14.6142Z" fill="black"/>
</g>
<path d="M216.866 14.7809C218.383 16.5771 219.334 18.7827 219.597 21.1189C219.861 23.455 219.425 25.8169 218.347 27.9058C217.268 29.9946 215.594 31.7168 213.537 32.8544C211.479 33.992 209.131 34.494 206.788 34.297C204.445 34.0999 202.214 33.2127 200.375 31.7474C198.537 30.2821 197.174 28.3046 196.459 26.0649C195.744 23.8252 195.71 21.4238 196.36 19.1645C197.01 16.9051 198.315 14.8892 200.111 13.3717C201.303 12.3637 202.683 11.6006 204.17 11.126C205.658 10.6513 207.225 10.4743 208.781 10.6052C210.337 10.736 211.851 11.1722 213.239 11.8887C214.626 12.6052 215.859 13.5879 216.866 14.7809Z" fill="#B94C0C"/>
<g opacity="0.2">
<path d="M216.864 14.781C218.381 16.5772 219.332 18.7828 219.595 21.119C219.859 23.4551 219.423 25.817 218.345 27.9059C217.266 29.9948 215.592 31.7169 213.535 32.8545C211.477 33.9921 209.129 34.4941 206.786 34.2971C204.443 34.1001 202.212 33.2128 200.373 31.7475C198.535 30.2822 197.172 28.3047 196.457 26.065C195.742 23.8253 195.708 21.4239 196.358 19.1646C197.008 16.9052 198.313 14.8893 200.109 13.3718C201.301 12.3639 202.681 11.6008 204.168 11.1261C205.656 10.6514 207.223 10.4744 208.779 10.6053C210.335 10.7362 211.85 11.1723 213.237 11.8888C214.624 12.6053 215.857 13.5881 216.864 14.781Z" fill="white"/>
</g>
<path d="M207.482 21.3612L205.52 19.0352C205.99 18.7266 206.5 18.4831 207.035 18.3116C207.328 18.2438 207.626 18.202 207.926 18.1866L207.895 18.0919L207.547 16.9554L207.467 16.694L206.683 16.6069L206.562 16.8645C205.808 17.0333 205.096 17.3515 204.467 17.8002L203.387 16.5236H202.717L202.99 16.8456L202.444 17.3077L203.543 18.6071C201.891 20.2967 201.906 22.0431 202.899 23.2175C204.251 24.8162 205.971 24.0737 207.509 23.3046L209.456 25.6079C208.567 26.2438 207.517 26.6143 206.426 26.6762L206.891 28.2787C207.926 28.2787 209.331 27.7332 210.517 26.8505L211.331 27.8165L210.892 28.1954L211.597 28.1196L212.54 27.324L211.453 26.0322C213.104 24.3237 213.112 22.5811 212.119 21.4067C210.756 19.8156 209.024 20.5922 207.482 21.3612ZM206.346 21.9143C205.513 22.2932 204.804 22.4485 204.334 21.8954C203.865 21.3423 203.902 20.6831 204.615 19.8648L206.346 21.9143ZM210.392 24.7897L208.645 22.7515C209.502 22.3727 210.229 22.2022 210.706 22.7515C211.142 23.2592 211.115 23.9524 210.381 24.7897H210.392Z" fill="#B94C0C"/>
<g opacity="0.3">
<path d="M207.482 21.3612L205.52 19.0352C205.99 18.7266 206.5 18.4831 207.035 18.3116C207.328 18.2438 207.626 18.202 207.926 18.1866L207.895 18.0919L207.547 16.9554L207.467 16.694L206.683 16.6069L206.562 16.8645C205.808 17.0333 205.096 17.3515 204.467 17.8002L203.387 16.5236H202.717L202.99 16.8456L202.444 17.3077L203.543 18.6071C201.891 20.2967 201.906 22.0431 202.899 23.2175C204.251 24.8162 205.971 24.0737 207.509 23.3046L209.456 25.6079C208.567 26.2438 207.517 26.6143 206.426 26.6762L206.891 28.2787C207.926 28.2787 209.331 27.7332 210.517 26.8505L211.331 27.8165L210.892 28.1954L211.597 28.1196L212.54 27.324L211.453 26.0322C213.104 24.3237 213.112 22.5811 212.119 21.4067C210.756 19.8156 209.024 20.5922 207.482 21.3612ZM206.346 21.9143C205.513 22.2932 204.804 22.4485 204.334 21.8954C203.865 21.3423 203.902 20.6831 204.615 19.8648L206.346 21.9143ZM210.392 24.7897L208.645 22.7515C209.502 22.3727 210.229 22.2022 210.706 22.7515C211.142 23.2592 211.115 23.9524 210.381 24.7897H210.392Z" fill="black"/>
</g>
<path d="M210.782 26.0587L211.873 27.3506L210.929 28.1461L209.85 26.8694C208.664 27.7521 207.259 28.309 206.221 28.2976L205.755 26.6952C206.845 26.6314 207.896 26.2611 208.785 25.6269L206.842 23.3236C205.3 24.0812 203.58 24.8389 202.228 23.2327C201.235 22.0583 201.22 20.3157 202.872 18.6261L201.773 17.3229L202.716 16.5273L203.796 17.804C204.651 17.14 205.659 16.7023 206.728 16.5311L207.24 18.0919C206.385 18.2399 205.571 18.5651 204.849 19.0466L206.812 21.3726C208.353 20.6149 210.088 19.8308 211.441 21.4294C212.433 22.6038 212.433 24.3464 210.782 26.0587ZM205.675 21.9143L203.944 19.8648C203.232 20.6831 203.239 21.3802 203.667 21.8954C204.095 22.4106 204.857 22.2932 205.675 21.9143ZM210.066 22.7629C209.588 22.1985 208.857 22.3651 208.001 22.7629L209.725 24.801C210.456 23.9676 210.482 23.2743 210.066 22.7781V22.7629Z" fill="#B94C0C"/>
<path d="M215.365 31.764L215.434 31.6958L215.642 31.495L215.979 31.1692C216.138 31.0289 216.286 30.877 216.422 30.7146L216.941 30.1123C217.043 29.9933 217.135 29.8666 217.218 29.7335L217.502 29.3319C217.593 29.1879 217.71 29.0553 217.794 28.8925C217.877 28.7296 217.975 28.5742 218.07 28.4038C218.165 28.2333 218.271 28.0704 218.358 27.8848L218.612 27.3127C218.981 26.4614 219.255 25.5721 219.43 24.6609C219.46 24.4109 219.495 24.1571 219.529 23.9032C219.529 23.7744 219.567 23.6456 219.578 23.5244C219.589 23.4032 219.578 23.263 219.578 23.1266C219.578 22.8615 219.608 22.5887 219.601 22.3122C219.593 22.0356 219.567 21.7591 219.551 21.4787V21.2666C219.551 21.1946 219.529 21.1264 219.517 21.0544C219.498 20.9143 219.476 20.7703 219.453 20.6301L219.385 20.1983C219.366 20.0543 219.317 19.9141 219.286 19.7702C219.207 19.4823 219.142 19.1906 219.055 18.9027C218.968 18.6148 218.847 18.3344 218.741 18.0465C217.789 15.6714 216.096 13.6666 213.914 12.3299L213.119 11.8791C212.85 11.7428 212.573 11.6291 212.304 11.5003C212.172 11.4364 212.037 11.3795 211.899 11.3298L211.486 11.1897L211.077 11.0533L210.872 10.9889L210.664 10.9396L209.85 10.754C209.581 10.701 209.308 10.6782 209.043 10.6366L208.664 10.5873C208.531 10.5873 208.402 10.5873 208.285 10.5684L207.527 10.5419C206.595 10.5586 205.667 10.6793 204.762 10.9018L204.156 11.0571C203.959 11.1101 203.777 11.1897 203.595 11.2503L203.065 11.4435C202.894 11.5003 202.743 11.5912 202.587 11.6594L202.14 11.8716C202.002 11.9339 201.868 12.0047 201.739 12.0837L201.057 12.4966C200.874 12.6039 200.7 12.7242 200.534 12.8565L200.155 13.1369L199.924 13.3073L199.841 13.3604L199.913 13.296L200.14 13.1179L200.519 12.83C200.682 12.6907 200.856 12.564 201.038 12.4512L201.72 12.0269C201.848 11.9444 201.982 11.8722 202.121 11.811L202.565 11.5912C202.72 11.523 202.875 11.4283 203.046 11.3715L203.576 11.1745C203.758 11.1101 203.955 11.0268 204.141 10.9737L204.75 10.8146C205.661 10.5834 206.595 10.4563 207.535 10.4358L208.293 10.4623C208.421 10.4623 208.554 10.4623 208.671 10.4623L209.073 10.5116C209.338 10.5494 209.611 10.5722 209.884 10.6252L210.709 10.8108L210.918 10.8601L211.122 10.9245L211.535 11.0609L211.952 11.201C212.093 11.2507 212.23 11.3076 212.365 11.3715C212.634 11.4965 212.914 11.6102 213.187 11.7503L213.99 12.2049C215.076 12.8883 216.055 13.7283 216.896 14.6976C217.711 15.6857 218.374 16.7902 218.862 17.9745C218.968 18.2662 219.074 18.5579 219.18 18.8421C219.286 19.1262 219.332 19.4292 219.411 19.7172C219.442 19.8611 219.491 20.0013 219.51 20.149L219.578 20.5847C219.601 20.7286 219.62 20.8726 219.642 21.0166C219.642 21.0885 219.665 21.1567 219.673 21.2287V21.4446C219.688 21.73 219.703 22.0103 219.718 22.2856C219.718 22.5622 219.718 22.8349 219.692 23.1077V23.5093C219.692 23.6419 219.657 23.7707 219.642 23.8881C219.604 24.1495 219.57 24.4033 219.536 24.6458C219.359 25.5697 219.078 26.4707 218.699 27.3317L218.441 27.9037C218.354 28.0893 218.241 28.256 218.15 28.4265L217.866 28.9152C217.778 29.0781 217.661 29.2107 217.566 29.3546L217.278 29.7562C217.193 29.8821 217.099 30.0024 216.998 30.1161L216.468 30.7146C216.327 30.8753 216.175 31.0259 216.013 31.1654L215.668 31.4799L215.452 31.6731C215.392 31.764 215.369 31.764 215.365 31.764Z" fill="#263238"/>
<path d="M201.918 36.8176C201.872 36.8073 201.827 36.792 201.785 36.7721L201.406 36.6168C201.205 36.5384 201.008 36.4499 200.815 36.3516C200.588 36.238 200.327 36.1205 200.058 35.9538L199.622 35.7076C199.47 35.6205 199.323 35.5144 199.163 35.4159C198.845 35.2189 198.527 34.9727 198.186 34.7226C197.464 34.1607 196.789 33.5411 196.167 32.8702C195.554 32.1891 194.995 31.4608 194.496 30.6919C194.28 30.332 194.064 29.9948 193.898 29.6577C193.811 29.491 193.72 29.3357 193.648 29.1765L193.439 28.722C193.299 28.434 193.204 28.1613 193.11 27.9264C193.029 27.7256 192.958 27.5207 192.898 27.3127C192.848 27.1536 192.81 27.0248 192.78 26.9339C192.764 26.8885 192.752 26.8415 192.746 26.7937C192.769 26.8362 192.788 26.8805 192.803 26.9263C192.837 27.0248 192.882 27.1536 192.939 27.3051C192.996 27.4567 193.072 27.684 193.174 27.9113C193.276 28.1386 193.371 28.4113 193.515 28.6954L193.727 29.1425C193.803 29.2978 193.894 29.4531 193.985 29.6198C194.155 29.9494 194.364 30.2865 194.591 30.6426C195.088 31.404 195.644 32.1247 196.254 32.7982C196.873 33.4646 197.541 34.0826 198.254 34.6469C198.588 34.8969 198.902 35.1394 199.217 35.3401C199.376 35.4424 199.52 35.5485 199.667 35.6356L200.095 35.8894C200.368 36.0561 200.626 36.1811 200.853 36.2986C201.08 36.416 201.27 36.5107 201.433 36.5827L201.812 36.757C201.849 36.7735 201.884 36.7938 201.918 36.8176Z" fill="white"/>
<path d="M203.842 23.5319C203.677 23.5599 203.508 23.5469 203.35 23.4941C202.956 23.3886 202.606 23.1587 202.353 22.8387C202.108 22.5108 201.975 22.112 201.975 21.7022C201.96 21.5364 201.987 21.3696 202.054 21.2173C202.073 21.2173 202.031 21.4029 202.054 21.6984C202.083 22.0817 202.225 22.4478 202.462 22.7501C202.7 23.0523 203.022 23.277 203.388 23.3956C203.653 23.5054 203.842 23.513 203.842 23.5319Z" fill="white"/>
<path d="M202.917 18.27C202.891 18.289 202.728 18.1375 202.538 17.9291C202.349 17.7207 202.239 17.5503 202.262 17.5124C202.284 17.4745 202.451 17.645 202.641 17.8533C202.83 18.0617 202.963 18.2473 202.917 18.27Z" fill="white"/>
<path d="M199.931 12.2466C199.835 12.3337 199.733 12.4134 199.625 12.4852C199.522 12.5572 199.401 12.6481 199.246 12.7618C199.09 12.8754 198.946 12.9929 198.784 13.1406C198.621 13.2884 198.431 13.4475 198.249 13.6331C198.068 13.8187 197.871 14.0119 197.67 14.2317C197.246 14.709 196.856 15.2153 196.503 15.747C196.157 16.2815 195.85 16.8398 195.582 17.4176C195.465 17.6866 195.351 17.9404 195.264 18.1753C195.177 18.4102 195.094 18.6488 195.026 18.861C194.957 19.0731 194.908 19.2663 194.859 19.4368C194.81 19.6073 194.776 19.755 194.753 19.8762C194.729 20.0047 194.696 20.1313 194.654 20.2551C194.662 20.1276 194.68 20.001 194.707 19.8762C194.707 19.7512 194.753 19.5997 194.794 19.4292C194.836 19.2588 194.878 19.0504 194.946 18.8458C195.014 18.6413 195.079 18.395 195.173 18.1488C195.268 17.9025 195.37 17.6411 195.484 17.3684C196.005 16.1905 196.717 15.1065 197.59 14.1597C197.795 13.9475 197.969 13.7392 198.181 13.5649C198.393 13.3907 198.56 13.224 198.731 13.08C198.901 12.9361 199.064 12.8186 199.208 12.7012C199.352 12.5837 199.473 12.508 199.587 12.4398C199.696 12.3662 199.811 12.3016 199.931 12.2466Z" fill="white"/>
<path d="M218.609 32.6618C218.561 32.7467 218.506 32.8267 218.442 32.9005C218.329 33.052 218.154 33.2793 217.931 33.5142C217.334 34.1601 216.667 34.737 215.942 35.2341C215.215 35.7306 214.433 36.1412 213.612 36.4577C213.298 36.5789 213.036 36.666 212.854 36.7153C212.762 36.7464 212.667 36.768 212.57 36.7797C212.656 36.7343 212.746 36.6975 212.839 36.6698C213.017 36.6092 213.271 36.5107 213.578 36.3819C215.195 35.7106 216.656 34.7138 217.87 33.4536C218.101 33.2149 218.283 33.0141 218.408 32.8702C218.533 32.7262 218.601 32.6542 218.609 32.6618Z" fill="white"/>
<path d="M235.098 56.5743C237.95 51.8097 236.399 45.6355 231.634 42.784C226.87 39.9324 220.695 41.4832 217.844 46.2479C214.992 51.0125 216.543 57.1867 221.308 60.0382C226.072 62.8898 232.247 61.339 235.098 56.5743Z" fill="#B94C0C"/>
<g opacity="0.1">
<path d="M230.086 42.0265C228.855 41.5503 227.541 41.3215 226.221 41.3532C224.901 41.3849 223.6 41.6765 222.392 42.2113C221.185 42.746 220.095 43.5135 219.184 44.4699C218.273 45.4262 217.56 46.5526 217.085 47.7847C217.085 47.7847 223.559 50.6222 226.177 48.5803C228.795 46.5384 230.086 42.0265 230.086 42.0265Z" fill="white"/>
</g>
<path d="M233.5 53.9521C232.956 55.3615 232.005 56.5777 230.769 57.447C229.533 58.3162 228.067 58.7995 226.556 58.8357C225.046 58.8718 223.558 58.4593 222.282 57.6501C221.006 56.841 219.998 55.6717 219.386 54.2899C218.775 52.9082 218.587 51.3761 218.845 49.8874C219.104 48.3987 219.799 47.0201 220.841 45.9261C221.884 44.8321 223.227 44.0717 224.701 43.741C226.176 43.4103 227.715 43.5242 229.125 44.0684C230.062 44.429 230.919 44.9709 231.646 45.6632C232.373 46.3554 232.957 47.1843 233.363 48.1024C233.77 49.0205 233.991 50.0098 234.015 51.0136C234.038 52.0174 233.863 53.0159 233.5 53.9521Z" fill="#B94C0C"/>
<g opacity="0.2">
<path d="M233.499 53.9521C232.955 55.3615 232.004 56.5777 230.768 57.447C229.532 58.3162 228.066 58.7995 226.555 58.8357C225.045 58.8718 223.557 58.4593 222.281 57.6501C221.005 56.841 219.997 55.6717 219.386 54.2899C218.774 52.9082 218.586 51.3761 218.844 49.8874C219.103 48.3987 219.798 47.0201 220.84 45.9261C221.883 44.8321 223.226 44.0717 224.7 43.741C226.175 43.4103 227.714 43.5242 229.124 44.0684C230.061 44.429 230.918 44.9709 231.645 45.6632C232.372 46.3554 232.956 47.1843 233.362 48.1024C233.769 49.0205 233.99 50.0098 234.014 51.0136C234.037 52.0174 233.862 53.0159 233.499 53.9521Z" fill="black"/>
</g>
<path d="M233.587 54.3273C233.049 55.7178 232.111 56.9178 230.891 57.7753C229.672 58.6329 228.225 59.1095 226.735 59.1451C225.244 59.1806 223.777 58.7733 222.518 57.9748C221.259 57.1763 220.265 56.0224 219.661 54.659C219.058 53.2956 218.873 51.784 219.128 50.3151C219.384 48.8463 220.07 47.4863 221.098 46.4071C222.127 45.3279 223.453 44.5779 224.907 44.252C226.362 43.9261 227.881 44.0389 229.272 44.5762C230.196 44.933 231.04 45.4683 231.757 46.1514C232.473 46.8346 233.049 47.6523 233.449 48.5579C233.85 49.4634 234.068 50.439 234.092 51.4289C234.116 52.4188 233.944 53.4037 233.587 54.3273Z" fill="#B94C0C"/>
<g opacity="0.2">
<path d="M233.588 54.3271C233.05 55.7177 232.112 56.9177 230.892 57.7752C229.673 58.6328 228.226 59.1094 226.736 59.1449C225.245 59.1804 223.778 58.7732 222.519 57.9747C221.26 57.1762 220.266 56.0223 219.662 54.6589C219.059 53.2955 218.874 51.7838 219.129 50.315C219.385 48.8462 220.071 47.4862 221.099 46.407C222.128 45.3278 223.454 44.5778 224.908 44.2519C226.363 43.926 227.882 44.0388 229.273 44.576C230.197 44.9328 231.041 45.4681 231.758 46.1513C232.474 46.8345 233.05 47.6522 233.45 48.5577C233.851 49.4633 234.069 50.4388 234.093 51.4288C234.117 52.4187 233.945 53.4036 233.588 54.3271Z" fill="white"/>
</g>
<path d="M227.072 51.1108L227.765 49.3114C228.079 49.4774 228.37 49.6851 228.629 49.9289C228.754 50.0707 228.866 50.2228 228.966 50.3835L229.011 50.338L229.538 49.7963L229.659 49.6713L229.47 49.2129H229.288C228.965 48.8444 228.571 48.5454 228.129 48.334L228.508 47.3453L228.295 46.9664L228.201 47.2127L227.776 47.0498L227.398 48.0575C225.954 47.6559 224.988 48.1938 224.636 49.103C224.159 50.3418 225.094 51.073 225.992 51.6942L225.314 53.5013C224.691 53.1982 224.166 52.7255 223.799 52.1375L223.041 52.8951C223.498 53.6022 224.158 54.1543 224.935 54.4787L224.647 55.2363L224.295 55.1075L224.553 55.4863L225.284 55.7667L225.663 54.7704C227.117 55.1492 228.087 54.6416 228.439 53.7324C228.924 52.4595 227.966 51.7321 227.072 51.1108ZM226.413 50.6411C225.954 50.2888 225.655 49.944 225.81 49.5046C225.966 49.0652 226.356 48.8947 227.026 49.0424L226.413 50.6411ZM226.045 53.7665L226.655 52.1867C227.132 52.5656 227.443 52.9027 227.276 53.3232C227.11 53.7437 226.735 53.918 226.045 53.7665Z" fill="#B94C0C"/>
<g opacity="0.3">
<path d="M227.072 51.1108L227.765 49.3114C228.079 49.4774 228.37 49.6851 228.629 49.9289C228.754 50.0707 228.866 50.2228 228.966 50.3835L229.011 50.338L229.538 49.7963L229.659 49.6713L229.47 49.2129H229.288C228.965 48.8444 228.571 48.5454 228.129 48.334L228.508 47.3453L228.295 46.9664L228.201 47.2127L227.776 47.0498L227.398 48.0575C225.954 47.6559 224.988 48.1938 224.636 49.103C224.159 50.3418 225.094 51.073 225.992 51.6942L225.314 53.5013C224.691 53.1982 224.166 52.7255 223.799 52.1375L223.041 52.8951C223.498 53.6022 224.158 54.1543 224.935 54.4787L224.647 55.2363L224.295 55.1075L224.553 55.4863L225.284 55.7667L225.663 54.7704C227.117 55.1492 228.087 54.6416 228.439 53.7324C228.924 52.4595 227.966 51.7321 227.072 51.1108ZM226.413 50.6411C225.954 50.2888 225.655 49.944 225.81 49.5046C225.966 49.0652 226.356 48.8947 227.026 49.0424L226.413 50.6411ZM226.045 53.7665L226.655 52.1867C227.132 52.5656 227.443 52.9027 227.276 53.3232C227.11 53.7437 226.735 53.918 226.045 53.7665Z" fill="black"/>
</g>
<path d="M225.462 54.3764L225.083 55.3765L224.352 55.0924L224.731 54.1037C223.954 53.7793 223.294 53.2272 222.837 52.5201L223.595 51.7625C223.961 52.3516 224.486 52.8256 225.11 53.1301L225.799 51.3458C224.902 50.7245 223.966 49.9933 224.443 48.7546C224.795 47.8416 225.761 47.3036 227.205 47.709L227.584 46.7013L228.315 46.9816L227.936 47.9704C228.565 48.2454 229.115 48.674 229.535 49.2167L228.822 49.9744C228.48 49.5451 228.051 49.1916 227.565 48.9364L226.868 50.7359C227.765 51.3609 228.724 52.0883 228.243 53.3271C227.891 54.2476 226.917 54.7742 225.462 54.3764ZM226.22 50.2775L226.834 48.6902C226.163 48.5462 225.769 48.7621 225.618 49.1561C225.466 49.5501 225.746 49.9479 226.205 50.2775H226.22ZM227.084 52.9785C227.25 52.5429 226.94 52.1868 226.462 51.842L225.852 53.4218C226.527 53.5581 226.921 53.3574 227.068 52.9785H227.084Z" fill="#B94C0C"/>
<path d="M223.681 58.6611H223.741L223.916 58.7141L224.2 58.805C224.323 58.8487 224.45 58.8841 224.578 58.9111L225.071 59.0172C225.165 59.0372 225.26 59.0511 225.355 59.0588L225.666 59.0967C225.776 59.0967 225.885 59.127 225.999 59.127H226.355C226.476 59.127 226.605 59.127 226.734 59.127L227.113 59.0967C227.702 59.0415 228.282 58.9208 228.844 58.7368L229.299 58.5626C229.375 58.5323 229.454 58.5058 229.53 58.4717L229.757 58.358C229.909 58.2785 230.064 58.2103 230.216 58.1231L230.666 57.8428L230.78 57.7708L230.886 57.6875L231.106 57.5208L231.325 57.3541C231.397 57.2973 231.462 57.2291 231.53 57.1647C231.666 57.0359 231.81 56.9109 231.943 56.7859L232.322 56.3502C232.825 55.7223 233.233 55.0241 233.534 54.278C233.815 53.5226 233.982 52.7298 234.03 51.9255C234.03 51.7285 234.03 51.5466 234.03 51.3458C234.03 51.1451 234 50.967 233.989 50.7776C233.989 50.6867 233.989 50.592 233.958 50.5011C233.928 50.4101 233.924 50.3192 233.909 50.2283C233.894 50.1374 233.879 50.0502 233.86 49.9593L233.837 49.8267L233.799 49.6979C233.75 49.5237 233.705 49.3532 233.655 49.1865C233.606 49.0198 233.534 48.8607 233.473 48.7016L233.383 48.4667C233.348 48.391 233.307 48.319 233.273 48.2432L233.053 47.8113C232.76 47.2968 232.41 46.8166 232.011 46.3794L231.742 46.0915C231.651 45.9967 231.553 45.921 231.462 45.8376L231.193 45.6028C231.108 45.5311 231.02 45.464 230.928 45.402L230.674 45.2201C230.598 45.1607 230.518 45.1063 230.435 45.0572L229.996 44.8034C229.874 44.7346 229.747 44.6739 229.617 44.6216L229.348 44.5004L229.185 44.4208L229.128 44.3943H229.185L229.356 44.4663L229.628 44.5837C229.759 44.6338 229.885 44.6933 230.007 44.7618L230.45 45.008C230.535 45.0557 230.616 45.1088 230.693 45.1671L230.947 45.3489C231.041 45.4109 231.132 45.4779 231.219 45.5497L231.488 45.7808C231.579 45.8642 231.682 45.9437 231.772 46.0346L232.045 46.3263C232.452 46.7621 232.808 47.2425 233.106 47.7583L233.326 48.1978L233.439 48.4213L233.53 48.6599C233.591 48.819 233.663 48.9781 233.716 49.1448L233.864 49.66L233.902 49.7926L233.924 49.9252C233.924 50.0161 233.958 50.1071 233.974 50.198C233.989 50.2889 234.008 50.3798 234.027 50.4707C234.041 50.5648 234.05 50.6597 234.053 50.7549C234.053 50.9405 234.091 51.1337 234.099 51.3269C234.106 51.5201 234.099 51.7057 234.099 51.9103C234.022 53.5463 233.417 55.1133 232.375 56.3767L231.996 56.8162C231.86 56.9563 231.716 57.0814 231.579 57.195C231.514 57.2621 231.444 57.3254 231.371 57.3844L231.147 57.5549L230.928 57.7216L230.818 57.8049L230.704 57.8769L230.25 58.1572C230.098 58.2444 229.939 58.3163 229.784 58.3959L229.556 58.5095L229.321 58.6005L228.867 58.7747C228.298 58.9541 227.711 59.0723 227.117 59.127L226.719 59.1573C226.59 59.1573 226.461 59.1573 226.34 59.1573H225.98C225.867 59.1573 225.757 59.1308 225.647 59.1233L225.336 59.0854C225.239 59.0751 225.143 59.0587 225.048 59.0361L224.556 58.9263C224.427 58.8954 224.301 58.8562 224.177 58.8088L223.897 58.7141L223.726 58.6535L223.681 58.6611Z" fill="#263238"/>
<path d="M216.779 52.721C216.775 52.6908 216.775 52.6602 216.779 52.63C216.779 52.5656 216.779 52.4785 216.749 52.3724C216.73 52.2368 216.718 52.1002 216.715 51.9633C216.715 51.8042 216.715 51.6186 216.715 51.4178C216.715 51.3155 216.715 51.2094 216.715 51.0995C216.715 50.9897 216.715 50.876 216.738 50.7586C216.738 50.5199 216.787 50.2699 216.825 50.0009C216.917 49.4276 217.055 48.8626 217.238 48.3114C217.43 47.7633 217.666 47.2313 217.942 46.7203C218.075 46.4892 218.2 46.2657 218.321 46.0725C218.385 45.974 218.446 45.8755 218.511 45.7845C218.575 45.6936 218.639 45.6103 218.7 45.5307C218.817 45.364 218.942 45.2315 219.045 45.1064C219.147 44.9814 219.242 44.8829 219.321 44.7996L219.503 44.614L219.567 44.5533C219.567 44.5533 219.567 44.5799 219.514 44.6253L219.34 44.8223C219.264 44.9057 219.173 45.0079 219.075 45.133C218.976 45.258 218.859 45.3944 218.745 45.561L218.56 45.8186C218.495 45.9058 218.439 46.0043 218.374 46.1066C218.242 46.2998 218.12 46.5233 217.995 46.7544C217.724 47.2622 217.492 47.7904 217.302 48.3341C217.12 48.8807 216.981 49.4405 216.885 50.0085C216.847 50.2737 216.806 50.5237 216.791 50.7662C216.791 50.8836 216.768 50.9973 216.764 51.1071C216.76 51.217 216.764 51.3231 216.764 51.4216C216.764 51.6223 216.764 51.8004 216.764 51.9671C216.764 52.1338 216.764 52.2626 216.764 52.3762C216.764 52.4899 216.764 52.5656 216.783 52.6338C216.784 52.6629 216.783 52.6921 216.779 52.721Z" fill="white"/>
<path d="M224.752 49.7434C224.685 49.6619 224.64 49.5638 224.623 49.4593C224.562 49.2086 224.583 48.9446 224.685 48.7073C224.787 48.4701 224.963 48.2725 225.188 48.1448C225.275 48.0841 225.377 48.0475 225.483 48.0387C225.483 48.0387 225.37 48.0842 225.214 48.1902C225.009 48.3217 224.848 48.512 224.752 48.7363C224.656 48.9606 224.63 49.2085 224.676 49.4479C224.711 49.6336 224.764 49.7396 224.752 49.7434Z" fill="white"/>
<path d="M227.401 47.6294C227.403 47.5227 227.429 47.4178 227.477 47.3225C227.542 47.1596 227.606 47.0346 227.625 47.0422C227.644 47.0498 227.625 47.1899 227.549 47.349C227.473 47.5082 227.42 47.637 227.401 47.6294Z" fill="white"/>
<path d="M229.859 44.1366C229.781 44.1099 229.705 44.077 229.632 44.0381C229.564 44.004 229.477 43.9623 229.37 43.9206C229.264 43.879 229.151 43.8259 229.018 43.7805C228.886 43.735 228.742 43.6782 228.582 43.6327C228.423 43.5873 228.253 43.538 228.075 43.4926C227.681 43.4004 227.281 43.3371 226.878 43.3031C226.475 43.2729 226.072 43.2729 225.669 43.3031C225.484 43.3031 225.309 43.3334 225.146 43.36C224.984 43.3865 224.828 43.4092 224.692 43.4357C224.556 43.4622 224.43 43.4925 224.313 43.5191C224.196 43.5456 224.108 43.5683 224.033 43.591C223.956 43.6175 223.878 43.6378 223.798 43.6517C223.872 43.6176 223.948 43.5885 224.025 43.5645C224.101 43.538 224.192 43.5077 224.302 43.4774C224.412 43.4471 224.533 43.4092 224.681 43.3827C224.828 43.3562 224.968 43.3221 225.135 43.2993C225.302 43.2766 225.476 43.2539 225.665 43.2349C226.071 43.2026 226.479 43.2026 226.885 43.2349C227.291 43.2714 227.694 43.3372 228.09 43.4319C228.272 43.4812 228.442 43.5229 228.601 43.5797C228.761 43.6365 228.905 43.6858 229.037 43.7388C229.17 43.7918 229.287 43.8449 229.389 43.8903C229.492 43.9358 229.579 43.9812 229.647 44.0191C229.722 44.0502 229.793 44.0896 229.859 44.1366Z" fill="white"/>
<path d="M224.178 60.7408C224.115 60.7391 224.053 60.7328 223.992 60.7219C223.875 60.7029 223.704 60.6726 223.496 60.6196C222.954 60.4871 222.429 60.2926 221.931 60.04C221.435 59.7849 220.968 59.4748 220.541 59.1156C220.378 58.9793 220.253 58.858 220.162 58.7747C220.116 58.7322 220.074 58.6853 220.037 58.6345C220.09 58.6676 220.138 58.7071 220.181 58.752C220.268 58.8315 220.401 58.9414 220.56 59.074C220.993 59.4184 221.458 59.7191 221.95 59.9718C222.443 60.2222 222.959 60.4227 223.492 60.5704C223.697 60.6272 223.871 60.6688 223.981 60.6916C224.048 60.6991 224.115 60.7156 224.178 60.7408Z" fill="white"/>
<path d="M243.252 111.413C243.252 111.413 244.945 104.003 242.494 97.4231C242.494 97.4231 244.608 86.3385 241.801 85.9824C238.994 85.6263 234.883 86.6112 234.883 86.6112C234.883 86.6112 225.81 77.0647 209.714 77.4283C193.617 77.792 178.449 89.9525 176.638 102.185C174.827 114.417 183.033 123.703 183.033 123.703L183.643 139.235L184.711 139.773L185.271 138.666L186.147 139.761H188.954L192.981 130.499L195.545 131.757L195.007 139.432H197.163L197.424 138.375L197.83 139.545H200.724L203.713 133.863L211.877 134.329L212.009 139.716H212.866L213.744 138.242L214.241 139.757H217.684L219.893 133.291L220.832 132.973L221.162 139.685H223.056L223.314 138.522L223.719 139.526H226.829L231.235 128.54L233.682 126.32C233.682 126.32 244.29 127.059 246.04 119.27C247.286 113.91 243.252 111.413 243.252 111.413Z" fill="#B94C0C"/>
<path d="M232.455 103.742C232.454 104.147 232.574 104.543 232.798 104.88C233.023 105.217 233.342 105.48 233.716 105.635C234.09 105.79 234.502 105.831 234.899 105.752C235.296 105.674 235.661 105.479 235.947 105.192C236.234 104.906 236.429 104.541 236.507 104.144C236.586 103.747 236.545 103.335 236.39 102.961C236.235 102.587 235.972 102.268 235.635 102.043C235.298 101.819 234.902 101.699 234.497 101.7C233.955 101.7 233.436 101.915 233.053 102.298C232.67 102.681 232.455 103.2 232.455 103.742Z" fill="#263238"/>
<path d="M216.696 103.655C216.696 104.075 216.821 104.486 217.054 104.836C217.288 105.185 217.62 105.457 218.008 105.618C218.397 105.779 218.824 105.821 219.236 105.739C219.648 105.657 220.027 105.455 220.324 105.158C220.622 104.86 220.824 104.482 220.906 104.069C220.988 103.657 220.946 103.23 220.785 102.841C220.624 102.453 220.352 102.121 220.002 101.888C219.653 101.654 219.242 101.53 218.822 101.53C218.258 101.531 217.718 101.755 217.32 102.153C216.922 102.551 216.697 103.091 216.696 103.655Z" fill="#263238"/>
<g opacity="0.3">
<path d="M220.132 81.713L217.511 83.1487C217.511 83.1487 209.101 80.2431 200.164 82.7434L201.467 80.5575C201.467 80.5575 210.635 77.7163 220.132 81.713Z" fill="black"/>
</g>
<g opacity="0.3">
<path d="M233.43 108.439C233.892 108.439 234.346 108.458 234.797 108.496C229.403 108.985 225.205 112.77 225.205 117.372C225.205 121.975 229.403 125.756 234.797 126.248C234.346 126.286 233.892 126.305 233.43 126.305C226.671 126.305 221.193 122.305 221.193 117.372C221.193 112.44 226.671 108.439 233.43 108.439Z" fill="black"/>
</g>
<g opacity="0.3">
<path d="M238.284 121.676H238.913C239.323 121.676 239.655 121.343 239.655 120.933V114.228C239.655 113.818 239.323 113.485 238.913 113.485H238.284C237.874 113.485 237.541 113.818 237.541 114.228V120.933C237.541 121.343 237.874 121.676 238.284 121.676Z" fill="black"/>
</g>
<g opacity="0.3">
<path d="M233.429 121.676H234.058C234.468 121.676 234.801 121.343 234.801 120.933V114.228C234.801 113.818 234.468 113.486 234.058 113.486H233.429C233.019 113.486 232.687 113.818 232.687 114.228V120.933C232.687 121.343 233.019 121.676 233.429 121.676Z" fill="black"/>
</g>
<path d="M225.204 117.49C225.217 117.437 225.225 117.384 225.227 117.331C225.227 117.217 225.246 117.065 225.265 116.872C225.265 116.77 225.265 116.656 225.295 116.531C225.326 116.406 225.345 116.274 225.375 116.13C225.405 115.986 225.428 115.827 225.47 115.66C225.511 115.493 225.576 115.323 225.633 115.141C225.927 114.253 226.374 113.424 226.955 112.69C227.724 111.718 228.668 110.898 229.739 110.273C231.035 109.512 232.47 109.018 233.959 108.818C235.665 108.577 237.402 108.69 239.062 109.152C239.955 109.408 240.814 109.768 241.623 110.224C242.458 110.715 243.222 111.316 243.896 112.012C244.618 112.73 245.191 113.583 245.582 114.523C245.973 115.463 246.174 116.472 246.174 117.49C246.174 118.508 245.973 119.516 245.582 120.456C245.191 121.396 244.618 122.25 243.896 122.968C243.222 123.662 242.458 124.262 241.623 124.752C240.814 125.208 239.955 125.568 239.062 125.824C237.403 126.289 235.665 126.403 233.959 126.157C232.469 125.96 231.034 125.465 229.739 124.703C228.668 124.08 227.723 123.261 226.955 122.289C226.375 121.555 225.928 120.726 225.633 119.838C225.576 119.653 225.523 119.482 225.47 119.319C225.417 119.157 225.405 118.994 225.375 118.85C225.345 118.706 225.322 118.569 225.295 118.444C225.269 118.319 225.276 118.209 225.265 118.107C225.265 117.914 225.235 117.762 225.227 117.645C225.224 117.593 225.217 117.541 225.204 117.49C225.2 117.543 225.2 117.596 225.204 117.649C225.204 117.762 225.204 117.918 225.204 118.111C225.204 118.213 225.204 118.327 225.204 118.452C225.204 118.577 225.25 118.713 225.273 118.861C225.295 119.009 225.322 119.168 225.36 119.338C225.398 119.509 225.462 119.679 225.515 119.865C225.798 120.77 226.241 121.616 226.822 122.365C227.591 123.36 228.541 124.2 229.622 124.843C230.93 125.63 232.383 126.145 233.895 126.358C235.628 126.617 237.396 126.509 239.085 126.04C239.994 125.783 240.871 125.419 241.695 124.956C242.55 124.458 243.332 123.845 244.021 123.134C244.764 122.397 245.354 121.52 245.756 120.554C246.159 119.588 246.366 118.552 246.366 117.505C246.366 116.458 246.159 115.422 245.756 114.456C245.354 113.489 244.764 112.612 244.021 111.875C243.333 111.164 242.55 110.551 241.695 110.053C240.871 109.591 239.994 109.227 239.085 108.97C237.397 108.502 235.631 108.393 233.899 108.652C232.387 108.863 230.933 109.379 229.625 110.167C228.543 110.807 227.592 111.646 226.822 112.641C226.241 113.391 225.798 114.239 225.515 115.145C225.462 115.33 225.409 115.524 225.36 115.671C225.311 115.819 225.303 116.001 225.273 116.149C225.242 116.296 225.227 116.429 225.204 116.554C225.182 116.679 225.204 116.796 225.204 116.899C225.204 117.092 225.204 117.247 225.204 117.361C225.202 117.404 225.202 117.447 225.204 117.49Z" fill="#263238"/>
<g opacity="0.3">
<path d="M241.738 96.4419C242.124 93.8941 242.264 91.315 242.158 88.7403C242.178 88.4279 242.088 88.1183 241.904 87.8652C241.775 87.7462 241.614 87.6666 241.441 87.6357C241.268 87.6048 241.089 87.624 240.927 87.6909C240.604 87.833 240.312 88.0362 240.067 88.2895L235.987 91.9982C235.603 92.3087 235.278 92.6845 235.025 93.1082C234.9 93.3213 234.834 93.5639 234.834 93.8109C234.834 94.058 234.9 94.3005 235.025 94.5137C235.324 94.8453 235.723 95.0711 236.161 95.1577L239.809 96.2714C240.385 96.4495 241.04 96.62 241.571 96.3321" fill="black"/>
</g>
<path d="M217.552 83.0312C218.428 82.6766 219.242 82.1856 219.965 81.5765C219.512 81.7175 219.085 81.9297 218.7 82.2054C218.276 82.4186 217.889 82.6973 217.552 83.0312Z" fill="#263238"/>
<path d="M200.425 82.7699C200.651 82.7545 200.875 82.719 201.095 82.6638C201.527 82.5805 202.152 82.4706 202.925 82.3532C206.961 81.7426 211.073 81.8336 215.078 82.6222C215.836 82.7699 216.465 82.9063 216.889 83.001C217.108 83.0658 217.332 83.1114 217.559 83.1374C217.351 83.0445 217.134 82.9709 216.912 82.9176C216.495 82.785 215.877 82.6259 215.112 82.4555C211.097 81.5762 206.949 81.4849 202.899 82.1865C202.141 82.3229 201.504 82.4555 201.08 82.5653C200.856 82.6128 200.636 82.6813 200.425 82.7699Z" fill="#263238"/>
<path d="M203.081 133.798C203.306 133.864 203.537 133.91 203.771 133.935C204.218 134.011 204.869 134.098 205.665 134.181C207.768 134.39 209.884 134.445 211.995 134.348C214.106 134.249 216.206 133.996 218.28 133.59C219.075 133.431 219.716 133.287 220.151 133.17C220.381 133.12 220.606 133.053 220.826 132.969C220.592 132.987 220.36 133.025 220.132 133.082C219.689 133.173 219.049 133.295 218.238 133.435C214.088 134.157 209.864 134.355 205.665 134.026C204.862 133.961 204.21 133.901 203.771 133.851C203.542 133.815 203.312 133.798 203.081 133.798Z" fill="#263238"/>
<path d="M181.991 122.343C182.1 122.531 182.227 122.709 182.37 122.873C182.628 123.21 183.029 123.672 183.548 124.225C184.917 125.642 186.442 126.899 188.094 127.972C189.752 129.038 191.485 129.981 193.28 130.794C193.966 131.112 194.527 131.355 194.917 131.514C195.115 131.609 195.322 131.685 195.534 131.741C195.349 131.625 195.155 131.522 194.955 131.434L193.371 130.639C191.606 129.784 189.892 128.826 188.238 127.771C186.594 126.705 185.062 125.475 183.666 124.1C183.135 123.57 182.719 123.123 182.442 122.805C182.306 122.638 182.155 122.483 181.991 122.343Z" fill="#263238"/>
<path d="M229.86 88.5507C229.879 88.5848 230.501 88.2401 231.546 87.7931C234.282 86.6 237.233 85.9836 240.218 85.9823C241.354 85.9823 242.066 86.0505 242.07 86.0126C241.91 85.9644 241.745 85.9352 241.578 85.9254C241.126 85.8681 240.672 85.834 240.218 85.8232C237.203 85.7369 234.21 86.3624 231.482 87.6491C231.069 87.8395 230.667 88.0519 230.277 88.2856C230.129 88.3588 229.989 88.4477 229.86 88.5507Z" fill="#263238"/>
<path d="M205.41 95.8737C205.452 95.7904 205.485 95.7027 205.509 95.6123C205.573 95.4153 205.66 95.1615 205.762 94.8547C205.986 94.1955 206.319 93.2484 206.804 92.1043C207.376 90.7675 208.029 89.467 208.759 88.21C209.172 87.5015 209.627 86.7742 210.134 86.0355C210.376 85.6614 210.666 85.3212 210.998 85.024C211.161 84.8749 211.351 84.7593 211.558 84.6839C211.766 84.6085 211.986 84.5747 212.206 84.5845C212.653 84.644 213.077 84.8204 213.434 85.096C213.813 85.3536 214.142 85.6642 214.483 85.9521C215.157 86.5355 215.79 87.1227 216.377 87.7023C217.411 88.7237 218.387 89.8012 219.302 90.93C220.086 91.896 220.677 92.7105 221.079 93.2787L221.537 93.9341C221.586 94.0156 221.644 94.0907 221.711 94.1576C221.676 94.0712 221.631 93.9886 221.579 93.9114C221.484 93.7523 221.344 93.5325 221.151 93.2295C220.772 92.6461 220.2 91.8126 219.427 90.8315C218.525 89.682 217.555 88.5877 216.521 87.5546C215.942 86.9674 215.309 86.3726 214.627 85.7854C214.287 85.4772 213.932 85.1864 213.563 84.9141C213.173 84.6139 212.71 84.423 212.222 84.361C211.973 84.3485 211.724 84.3852 211.489 84.4691C211.254 84.553 211.039 84.6823 210.854 84.8497C210.508 85.1618 210.205 85.5185 209.952 85.9105C209.445 86.6681 208.986 87.3917 208.577 88.1077C207.851 89.3772 207.209 90.6934 206.657 92.0475C206.191 93.203 205.876 94.1652 205.679 94.8319C205.577 95.1653 205.509 95.4267 205.467 95.5896C205.437 95.6817 205.418 95.7771 205.41 95.8737Z" fill="#263238"/>
<g opacity="0.3">
<path d="M210.919 94.6954C210.382 94.0325 210.503 93.7332 210.616 92.8884C210.869 91.0301 211.332 89.2064 211.995 87.4522C212.132 87.0733 212.329 86.6945 212.708 86.5771C213.086 86.4596 213.533 86.7892 213.844 87.0961C215.626 88.851 217.222 90.7858 218.606 92.8694C218.683 92.9791 218.729 93.107 218.74 93.2403C218.751 93.3736 218.727 93.5074 218.669 93.6283C218.612 93.7491 218.524 93.8526 218.413 93.9282C218.303 94.0039 218.175 94.049 218.041 94.059L210.919 94.6954Z" fill="black"/>
</g>
<path d="M179.703 101.189C178.706 102.099 177.448 102.673 176.106 102.829C174.765 102.986 173.409 102.717 172.229 102.06C170.187 100.923 168.266 97.8928 170.164 95.7486C170.578 95.3272 171.101 95.0295 171.674 94.889C172.248 94.7484 172.849 94.7706 173.411 94.9531C173.982 95.1347 174.501 95.4512 174.925 95.8758C175.348 96.3004 175.663 96.8207 175.843 97.3927C176.668 99.7832 175.464 102.579 173.445 103.962C171.274 105.447 167.986 104.875 166.705 102.492C166.107 101.378 167.8 100.386 168.399 101.499C168.733 102.075 169.267 102.509 169.899 102.718C170.532 102.927 171.219 102.898 171.831 102.636C172.512 102.311 173.088 101.801 173.494 101.165C173.9 100.529 174.119 99.7915 174.127 99.0369C174.127 98.3474 173.948 97.5216 173.369 97.0821C173.154 96.9229 172.9 96.8236 172.634 96.7943C172.368 96.7651 172.098 96.8068 171.854 96.9154C171.3 97.2336 171.35 97.9496 171.528 98.4914C171.802 99.2171 172.315 99.8278 172.982 100.223C173.798 100.748 174.764 100.993 175.731 100.919C176.699 100.845 177.616 100.457 178.343 99.8135C179.282 98.9763 180.677 100.359 179.729 101.204L179.703 101.189Z" fill="#B94C0C"/>
<path d="M176.547 109.046C176.585 109.046 176.441 108.269 176.358 107.008C176.311 106.271 176.303 105.533 176.335 104.795C176.415 102.993 176.736 101.209 177.29 99.4916C177.516 98.7888 177.779 98.0984 178.078 97.4232C178.593 96.2867 178.998 95.5972 178.964 95.5782C178.843 95.7178 178.738 95.8703 178.65 96.0328C178.387 96.4603 178.148 96.9016 177.934 97.355C177.611 98.0276 177.33 98.7196 177.093 99.4272C176.804 100.294 176.576 101.18 176.411 102.079C176.256 102.978 176.161 103.887 176.127 104.799C176.105 105.545 176.129 106.291 176.199 107.034C176.241 107.534 176.312 108.031 176.411 108.523C176.437 108.702 176.482 108.877 176.547 109.046Z" fill="#263238"/>
<path d="M108.983 71.2422H46.0059V139.754H108.983V71.2422Z" fill="#E0E0E0"/>
<path d="M108.986 139.75V67.5182L153.654 17.8004L198.072 69.1586V139.75H108.986Z" fill="#FAFAFA"/>
<path d="M198.053 129.567H45.9902V139.777H198.053V129.567Z" fill="#EBEBEB"/>
<path d="M121.545 131.325H115.256C114.71 131.325 114.268 131.768 114.268 132.314V133.291C114.268 133.837 114.71 134.28 115.256 134.28H121.545C122.091 134.28 122.534 133.837 122.534 133.291V132.314C122.534 131.768 122.091 131.325 121.545 131.325Z" fill="#E0E0E0"/>
<path d="M130.988 131.325H124.7C124.154 131.325 123.711 131.768 123.711 132.314V133.291C123.711 133.837 124.154 134.28 124.7 134.28H130.988C131.534 134.28 131.977 133.837 131.977 133.291V132.314C131.977 131.768 131.534 131.325 130.988 131.325Z" fill="#E0E0E0"/>
<path d="M140.433 131.325H134.144C133.598 131.325 133.155 131.768 133.155 132.314V133.291C133.155 133.837 133.598 134.28 134.144 134.28H140.433C140.979 134.28 141.421 133.837 141.421 133.291V132.314C141.421 131.768 140.979 131.325 140.433 131.325Z" fill="#E0E0E0"/>
<path d="M149.878 131.325H143.589C143.043 131.325 142.601 131.768 142.601 132.314V133.291C142.601 133.837 143.043 134.28 143.589 134.28H149.878C150.424 134.28 150.867 133.837 150.867 133.291V132.314C150.867 131.768 150.424 131.325 149.878 131.325Z" fill="#E0E0E0"/>
<path d="M159.321 131.325H153.033C152.487 131.325 152.044 131.768 152.044 132.314V133.291C152.044 133.837 152.487 134.28 153.033 134.28H159.321C159.867 134.28 160.31 133.837 160.31 133.291V132.314C160.31 131.768 159.867 131.325 159.321 131.325Z" fill="#E0E0E0"/>
<path d="M168.766 131.325H162.477C161.931 131.325 161.488 131.768 161.488 132.314V133.291C161.488 133.837 161.931 134.28 162.477 134.28H168.766C169.312 134.28 169.754 133.837 169.754 133.291V132.314C169.754 131.768 169.312 131.325 168.766 131.325Z" fill="#E0E0E0"/>
<path d="M178.211 131.325H171.922C171.376 131.325 170.934 131.768 170.934 132.314V133.291C170.934 133.837 171.376 134.28 171.922 134.28H178.211C178.757 134.28 179.2 133.837 179.2 133.291V132.314C179.2 131.768 178.757 131.325 178.211 131.325Z" fill="#E0E0E0"/>
<path d="M187.655 131.325H181.367C180.821 131.325 180.378 131.768 180.378 132.314V133.291C180.378 133.837 180.821 134.28 181.367 134.28H187.655C188.201 134.28 188.644 133.837 188.644 133.291V132.314C188.644 131.768 188.201 131.325 187.655 131.325Z" fill="#E0E0E0"/>
<path d="M197.1 131.325H190.811C190.265 131.325 189.822 131.768 189.822 132.314V133.291C189.822 133.837 190.265 134.28 190.811 134.28H197.1C197.646 134.28 198.088 133.837 198.088 133.291V132.314C198.088 131.768 197.646 131.325 197.1 131.325Z" fill="#E0E0E0"/>
<path d="M112.101 131.325H105.812C105.266 131.325 104.823 131.768 104.823 132.314V133.291C104.823 133.837 105.266 134.28 105.812 134.28H112.101C112.647 134.28 113.089 133.837 113.089 133.291V132.314C113.089 131.768 112.647 131.325 112.101 131.325Z" fill="#E0E0E0"/>
<path d="M118.155 135.227H111.593C111.047 135.227 110.604 135.669 110.604 136.215V137.193C110.604 137.739 111.047 138.182 111.593 138.182H118.155C118.701 138.182 119.143 137.739 119.143 137.193V136.215C119.143 135.669 118.701 135.227 118.155 135.227Z" fill="#E0E0E0"/>
<path d="M108.104 135.227H101.542C100.996 135.227 100.554 135.669 100.554 136.215V137.193C100.554 137.739 100.996 138.182 101.542 138.182H108.104C108.65 138.182 109.093 137.739 109.093 137.193V136.215C109.093 135.669 108.65 135.227 108.104 135.227Z" fill="#E0E0E0"/>
<path d="M102.626 131.325H96.3374C95.7913 131.325 95.3486 131.768 95.3486 132.314V133.291C95.3486 133.837 95.7913 134.28 96.3374 134.28H102.626C103.172 134.28 103.615 133.837 103.615 133.291V132.314C103.615 131.768 103.172 131.325 102.626 131.325Z" fill="#E0E0E0"/>
<path d="M98.6292 135.227H92.0678C91.5218 135.227 91.0791 135.669 91.0791 136.215V137.193C91.0791 137.739 91.5218 138.182 92.0678 138.182H98.6292C99.1753 138.182 99.618 137.739 99.618 137.193V136.215C99.618 135.669 99.1753 135.227 98.6292 135.227Z" fill="#E0E0E0"/>
<path d="M93.1514 131.325H86.8628C86.3167 131.325 85.874 131.768 85.874 132.314V133.291C85.874 133.837 86.3167 134.28 86.8628 134.28H93.1514C93.6974 134.28 94.1401 133.837 94.1401 133.291V132.314C94.1401 131.768 93.6974 131.325 93.1514 131.325Z" fill="#E0E0E0"/>
<path d="M89.1556 135.227H82.5942C82.0481 135.227 81.6055 135.669 81.6055 136.215V137.193C81.6055 137.739 82.0481 138.182 82.5942 138.182H89.1556C89.7016 138.182 90.1443 137.739 90.1443 137.193V136.215C90.1443 135.669 89.7016 135.227 89.1556 135.227Z" fill="#E0E0E0"/>
<path d="M83.6807 131.325H77.3921C76.846 131.325 76.4033 131.768 76.4033 132.314V133.291C76.4033 133.837 76.846 134.28 77.3921 134.28H83.6807C84.2267 134.28 84.6694 133.837 84.6694 133.291V132.314C84.6694 131.768 84.2267 131.325 83.6807 131.325Z" fill="#E0E0E0"/>
<path d="M79.6839 135.227H73.1225C72.5765 135.227 72.1338 135.669 72.1338 136.215V137.193C72.1338 137.739 72.5765 138.182 73.1225 138.182H79.6839C80.23 138.182 80.6726 137.739 80.6726 137.193V136.215C80.6726 135.669 80.23 135.227 79.6839 135.227Z" fill="#E0E0E0"/>
<path d="M74.2061 131.325H67.9175C67.3714 131.325 66.9287 131.768 66.9287 132.314V133.291C66.9287 133.837 67.3714 134.28 67.9175 134.28H74.2061C74.7521 134.28 75.1948 133.837 75.1948 133.291V132.314C75.1948 131.768 74.7521 131.325 74.2061 131.325Z" fill="#E0E0E0"/>
<path d="M70.2103 135.227H63.6489C63.1028 135.227 62.6602 135.669 62.6602 136.215V137.193C62.6602 137.739 63.1028 138.182 63.6489 138.182H70.2103C70.7563 138.182 71.199 137.739 71.199 137.193V136.215C71.199 135.669 70.7563 135.227 70.2103 135.227Z" fill="#E0E0E0"/>
<path d="M64.7305 131.325H58.4419C57.8958 131.325 57.4531 131.768 57.4531 132.314V133.291C57.4531 133.837 57.8958 134.28 58.4419 134.28H64.7305C65.2765 134.28 65.7192 133.837 65.7192 133.291V132.314C65.7192 131.768 65.2765 131.325 64.7305 131.325Z" fill="#E0E0E0"/>
<path d="M60.7347 135.227H54.1733C53.6272 135.227 53.1846 135.669 53.1846 136.215V137.193C53.1846 137.739 53.6272 138.182 54.1733 138.182H60.7347C61.2807 138.182 61.7234 137.739 61.7234 137.193V136.215C61.7234 135.669 61.2807 135.227 60.7347 135.227Z" fill="#E0E0E0"/>
<path d="M55.2568 131.325H48.9682C48.4222 131.325 47.9795 131.768 47.9795 132.314V133.291C47.9795 133.837 48.4222 134.28 48.9682 134.28H55.2568C55.8029 134.28 56.2456 133.837 56.2456 133.291V132.314C56.2456 131.768 55.8029 131.325 55.2568 131.325Z" fill="#E0E0E0"/>
<path d="M51.3889 135.227H47.2938C46.8921 135.227 46.5664 135.552 46.5664 135.954V137.454C46.5664 137.856 46.8921 138.182 47.2938 138.182H51.3889C51.7906 138.182 52.1163 137.856 52.1163 137.454V135.954C52.1163 135.552 51.7906 135.227 51.3889 135.227Z" fill="#E0E0E0"/>
<path d="M128.137 135.227H121.576C121.03 135.227 120.587 135.669 120.587 136.215V137.193C120.587 137.739 121.03 138.182 121.576 138.182H128.137C128.683 138.182 129.126 137.739 129.126 137.193V136.215C129.126 135.669 128.683 135.227 128.137 135.227Z" fill="#E0E0E0"/>
<path d="M137.733 135.227H131.171C130.625 135.227 130.183 135.669 130.183 136.215V137.193C130.183 137.739 130.625 138.182 131.171 138.182H137.733C138.279 138.182 138.721 137.739 138.721 137.193V136.215C138.721 135.669 138.279 135.227 137.733 135.227Z" fill="#E0E0E0"/>
<path d="M147.332 135.227H140.771C140.225 135.227 139.782 135.669 139.782 136.215V137.193C139.782 137.739 140.225 138.182 140.771 138.182H147.332C147.878 138.182 148.321 137.739 148.321 137.193V136.215C148.321 135.669 147.878 135.227 147.332 135.227Z" fill="#E0E0E0"/>
<path d="M156.928 135.227H150.367C149.821 135.227 149.378 135.669 149.378 136.215V137.193C149.378 137.739 149.821 138.182 150.367 138.182H156.928C157.474 138.182 157.917 137.739 157.917 137.193V136.215C157.917 135.669 157.474 135.227 156.928 135.227Z" fill="#E0E0E0"/>
<path d="M166.524 135.227H159.962C159.416 135.227 158.974 135.669 158.974 136.215V137.193C158.974 137.739 159.416 138.182 159.962 138.182H166.524C167.07 138.182 167.512 137.739 167.512 137.193V136.215C167.512 135.669 167.07 135.227 166.524 135.227Z" fill="#E0E0E0"/>
<path d="M176.123 135.227H169.562C169.016 135.227 168.573 135.669 168.573 136.215V137.193C168.573 137.739 169.016 138.182 169.562 138.182H176.123C176.669 138.182 177.112 137.739 177.112 137.193V136.215C177.112 135.669 176.669 135.227 176.123 135.227Z" fill="#E0E0E0"/>
<path d="M185.719 135.227H179.158C178.612 135.227 178.169 135.669 178.169 136.215V137.193C178.169 137.739 178.612 138.182 179.158 138.182H185.719C186.265 138.182 186.708 137.739 186.708 137.193V136.215C186.708 135.669 186.265 135.227 185.719 135.227Z" fill="#E0E0E0"/>
<path d="M195.315 135.227H188.753C188.207 135.227 187.765 135.669 187.765 136.215V137.193C187.765 137.739 188.207 138.182 188.753 138.182H195.315C195.861 138.182 196.303 137.739 196.303 137.193V136.215C196.303 135.669 195.861 135.227 195.315 135.227Z" fill="#E0E0E0"/>
<path d="M91.7839 10.7428L39.6416 65.6998V72.2991H108.968L153.655 17.8004L198.069 69.1585V72.2991H208.146C208.233 72.2972 208.317 72.2706 208.39 72.2225C208.462 72.1743 208.519 72.1066 208.555 72.0271C208.59 71.9477 208.602 71.8599 208.589 71.7739C208.577 71.6879 208.54 71.6072 208.483 71.5414L205.895 68.7305L154.174 10.22L91.7839 10.7428Z" fill="#A64911"/>
<path d="M150.034 46.6521H136.089V77.1026H150.034V46.6521Z" fill="#E0E0E0"/>
<path d="M149.341 47.6675H137.006V75.8184H149.341V47.6675Z" fill="#263238"/>
<path d="M148.366 48.8948H137.979V74.5909H148.366V48.8948Z" fill="#A64911"/>
<g opacity="0.3">
<path d="M148.365 48.8949H137.978V49.842H148.365V48.8949Z" fill="black"/>
</g>
<g opacity="0.3">
<path d="M146.486 48.8949L137.978 55.8654V61.169L148.365 52.418V48.8949H146.486Z" fill="white"/>
</g>
<g opacity="0.3">
<path d="M137.978 63.2866V65.7036L148.365 57.1344V56.3199V54.7781L137.978 63.2866Z" fill="white"/>
</g>
<path d="M143.426 48.4744H142.922V75.0077H143.426V48.4744Z" fill="#263238"/>
<path d="M170.016 46.6521H156.071V77.1026H170.016V46.6521Z" fill="#E0E0E0"/>
<path d="M169.319 47.6675H156.984V75.8184H169.319V47.6675Z" fill="#263238"/>
<path d="M168.347 48.8948H157.959V74.5909H168.347V48.8948Z" fill="#A64911"/>
<g opacity="0.3">
<path d="M168.346 48.8949H157.958V49.842H168.346V48.8949Z" fill="black"/>
</g>
<g opacity="0.3">
<path d="M166.467 48.8949L157.958 55.8654V61.169L168.349 52.418V48.8949H166.467Z" fill="white"/>
</g>
<g opacity="0.3">
<path d="M157.958 63.2866V65.7036L168.349 57.1344V56.3199V54.7781L157.958 63.2866Z" fill="white"/>
</g>
<path d="M163.405 48.4744H162.901V75.0077H163.405V48.4744Z" fill="#263238"/>
<g opacity="0.2">
<path d="M99.2646 86.2627H81.6982V117.638H99.2646V86.2627Z" fill="black"/>
</g>
<path d="M98.4022 87.6833H82.8398V116.683H98.4022V87.6833Z" fill="#263238"/>
<path d="M97.0226 89.0433H83.9453V115.319H97.0226V89.0433Z" fill="#A64911"/>
<g opacity="0.3">
<path d="M93.6548 89.1002L83.9453 101.299V110.186L97.0226 92.5779V89.1002H93.6548Z" fill="white"/>
</g>
<g opacity="0.3">
<path d="M97.0221 105.087L88.5098 115.38H92.2526L97.0221 109.136V105.087Z" fill="white"/>
</g>
<path d="M90.9842 88.6532H90.2568V115.713H90.9842V88.6532Z" fill="#263238"/>
<g opacity="0.2">
<path d="M72.3838 86.2627H54.8174V117.638H72.3838V86.2627Z" fill="black"/>
</g>
<path d="M71.5204 87.6833H55.958V116.683H71.5204V87.6833Z" fill="#263238"/>
<path d="M70.1378 89.0433H57.0605V115.319H70.1378V89.0433Z" fill="#A64911"/>
<g opacity="0.3">
<path d="M66.7729 89.1001L57.0635 101.298V110.186L70.1407 92.5778V89.1001H66.7729Z" fill="white"/>
</g>
<g opacity="0.3">
<path d="M70.1411 105.087L61.625 115.38H65.3716L70.1411 109.136V105.087Z" fill="white"/>
</g>
<path d="M64.1033 88.6532H63.376V115.713H64.1033V88.6532Z" fill="#263238"/>
<path d="M191.875 86.4788H174.309V117.244H191.875V86.4788Z" fill="#E0E0E0"/>
<path d="M190.871 87.869H175.312V116.308H190.871V87.869Z" fill="#263238"/>
<path d="M189.491 89.2063H176.414V114.974H189.491V89.2063Z" fill="#A64911"/>
<g opacity="0.3">
<path d="M186.127 89.2594L176.414 101.219V109.936L189.495 92.6689V89.2594H186.127Z" fill="white"/>
</g>
<g opacity="0.3">
<path d="M189.497 104.935L180.98 115.027H184.727L189.497 108.909V104.935Z" fill="white"/>
</g>
<path d="M183.457 88.8198H182.729V115.357H183.457V88.8198Z" fill="#263238"/>
<path d="M136.558 86.4788H118.991V117.244H136.558V86.4788Z" fill="#E0E0E0"/>
<path d="M135.55 87.869H119.991V116.308H135.55V87.869Z" fill="#263238"/>
<path d="M134.175 89.2063H121.098V114.974H134.175V89.2063Z" fill="#A64911"/>
<g opacity="0.3">
<path d="M130.811 89.2594L121.098 101.219V109.936L134.175 92.6689V89.2594H130.811Z" fill="white"/>
</g>
<g opacity="0.3">
<path d="M134.175 104.935L125.663 115.027H129.41L134.175 108.909V104.935Z" fill="white"/>
</g>
<path d="M128.137 88.8198H127.409V115.357H128.137V88.8198Z" fill="#263238"/>
<path d="M168.823 86.7817H141.494V134.7H168.823V86.7817Z" fill="#E0E0E0"/>
<path d="M166.581 89.1343H143.483V140H166.581V89.1343Z" fill="#B94C0C"/>
<g opacity="0.4">
<path d="M166.581 89.1343H143.483V140H166.581V89.1343Z" fill="black"/>
</g>
<g opacity="0.2">
<path d="M108.778 65.7036H39.6455V72.2877H108.778V65.7036Z" fill="black"/>
</g>
<g opacity="0.3">
<path d="M154.178 10.22L108.778 65.7036H39.6455L91.784 10.7428L154.178 10.22Z" fill="black"/>
</g>
<path d="M163.182 93.1121H146.881V98.7718H163.182V93.1121Z" fill="#A64911"/>
<path d="M153.772 101.189H146.881V115.99H153.772V101.189Z" fill="#A64911"/>
<path d="M162.907 101.189H156.016V115.99H162.907V101.189Z" fill="#A64911"/>
<g opacity="0.3">
<path d="M162.907 102.079L156.016 108.152V112.542L162.907 106.144V102.079Z" fill="white"/>
</g>
<g opacity="0.3">
<path d="M146.878 110.046V111.326V111.823L153.769 105.909V103.924L146.878 110.046Z" fill="white"/>
</g>
<path d="M158.64 83.1602H151.677V85.8006H158.64V83.1602Z" fill="#E0E0E0"/>
<path d="M164.054 118.713C164.054 118.927 163.991 119.136 163.872 119.313C163.753 119.491 163.585 119.629 163.387 119.711C163.19 119.793 162.973 119.814 162.764 119.772C162.554 119.731 162.362 119.628 162.211 119.477C162.06 119.326 161.957 119.134 161.915 118.924C161.874 118.715 161.895 118.498 161.977 118.3C162.058 118.103 162.197 117.934 162.374 117.816C162.552 117.697 162.761 117.634 162.974 117.634C163.116 117.633 163.257 117.661 163.388 117.715C163.519 117.769 163.638 117.849 163.739 117.949C163.839 118.049 163.919 118.168 163.973 118.3C164.027 118.431 164.054 118.572 164.054 118.713Z" fill="#A64911"/>
<g opacity="0.3">
<path d="M152.061 19.7438L198.073 72.2877H200.434L198.073 69.1586L153.655 17.8004L152.061 19.7438Z" fill="black"/>
</g>
<path d="M77.3954 30.7527V6.30667H75.0088V0.124146H83.9037H97.4204V6.30667H95.4922L95.1853 22.6987L87.855 30.7527H77.3954Z" fill="#B94C0C"/>
<g opacity="0.1">
<path d="M90.7909 6.3635H88.0216V30.7527H77.3954V6.30667H75.0088V0.124146H90.7909V6.3635Z" fill="#E0E0E0"/>
</g>
<g opacity="0.3">
<path d="M95.4506 6.30652H77.3955V7.54908H95.4506V6.30652Z" fill="black"/>
</g>
<path d="M108.923 120.513C108.859 120.513 108.806 111.421 108.806 100.226C108.806 89.032 108.859 79.9363 108.923 79.9363C108.988 79.9363 109.044 89.0282 109.044 100.226C109.044 111.425 108.991 120.513 108.923 120.513Z" fill="#263238"/>
<g opacity="0.5">
<path d="M79.873 42.379H105.736L111.032 37.1133H84.9986L79.873 42.379Z" fill="black"/>
</g>
<g opacity="0.5">
<path d="M84.9986 37.1133V42.379H79.873L84.9986 37.1133Z" fill="black"/>
</g>
<path d="M198.068 139.731C198.015 139.731 197.97 123.991 197.97 104.575C197.97 85.1604 198.015 69.4161 198.068 69.4161C198.121 69.4161 198.167 85.1528 198.167 104.575C198.167 123.998 198.125 139.731 198.068 139.731Z" fill="#263238"/>
<path d="M46.0028 139.75C45.9498 139.75 45.9043 124.597 45.9043 105.886C45.9043 87.1757 45.9498 72.0187 46.0028 72.0187C46.0558 72.0187 46.1013 87.1719 46.1013 105.886C46.1013 124.6 46.0596 139.75 46.0028 139.75Z" fill="#263238"/>
<path d="M73.4716 53.8085C79.0588 48.7014 79.4479 40.0319 74.3408 34.4447C69.2336 28.8575 60.5641 28.4683 54.9769 33.5755C49.3897 38.6827 49.0005 47.3522 54.1077 52.9394C59.2149 58.5266 67.8844 58.9157 73.4716 53.8085Z" fill="#B94C0C"/>
<g opacity="0.1">
<path d="M73.7464 33.8288C72.4527 32.5775 70.9252 31.5934 69.2511 30.9327C67.5769 30.272 65.789 29.9477 63.9895 29.9783C62.1899 30.0089 60.4141 30.3938 58.7634 31.1111C57.1127 31.8283 55.6195 32.8638 54.3691 34.1584C54.3691 34.1584 60.9949 41.1592 65.3552 39.981C69.7156 38.8029 73.7464 33.8288 73.7464 33.8288Z" fill="white"/>
</g>
<path d="M70.9287 51.3461C75.3298 47.64 75.8932 41.0679 72.1871 36.6668C68.4811 32.2658 61.909 31.7023 57.5079 35.4084C53.1068 39.1144 52.5434 45.6865 56.2495 50.0876C59.9555 54.4887 66.5276 55.0521 70.9287 51.3461Z" fill="#B94C0C"/>
<g opacity="0.2">
<path d="M70.9277 51.3458C75.3288 47.6398 75.8922 41.0677 72.1862 36.6666C68.4801 32.2655 61.908 31.7021 57.5069 35.4081C53.1059 39.1142 52.5424 45.6863 56.2485 50.0874C59.9545 54.4884 66.5266 55.0519 70.9277 51.3458Z" fill="black"/>
</g>
<path d="M71.6182 51.1339C70.205 52.5962 68.3899 53.6067 66.4024 54.0374C64.4149 54.4681 62.3443 54.2997 60.4525 53.5536C58.5607 52.8074 56.9327 51.517 55.7743 49.8455C54.6159 48.1741 53.9793 46.1966 53.9448 44.1633C53.9104 42.1299 54.4797 40.1321 55.5808 38.4223C56.6819 36.7126 58.2653 35.3677 60.1307 34.558C61.9962 33.7482 64.0599 33.5098 66.0608 33.8729C68.0617 34.236 69.9101 35.1844 71.372 36.5981C72.3428 37.5362 73.1193 38.6564 73.6571 39.8947C74.195 41.133 74.4835 42.4651 74.5064 43.815C74.5293 45.1648 74.286 46.5059 73.7904 47.7617C73.2948 49.0175 72.5567 50.1634 71.6182 51.1339Z" fill="#B94C0C"/>
<g opacity="0.2">
<path d="M71.6172 51.1339C70.204 52.5962 68.3889 53.6067 66.4014 54.0374C64.4139 54.4681 62.3433 54.2997 60.4515 53.5536C58.5597 52.8074 56.9317 51.517 55.7733 49.8455C54.615 48.1741 53.9783 46.1966 53.9439 44.1633C53.9094 42.1299 54.4787 40.1321 55.5798 38.4223C56.6809 36.7126 58.2643 35.3677 60.1298 34.558C61.9952 33.7482 64.0589 33.5098 66.0598 33.8729C68.0608 34.236 69.9091 35.1844 71.371 36.5981C72.3418 37.5362 73.1183 38.6564 73.6562 39.8947C74.194 41.133 74.4826 42.4651 74.5054 43.815C74.5283 45.1648 74.285 46.5059 73.7894 47.7617C73.2939 49.0175 72.5557 50.1634 71.6172 51.1339Z" fill="white"/>
</g>
<path d="M65.1392 43.633L66.969 41.7389C67.2758 42.1147 67.5307 42.5301 67.7267 42.9739C67.8102 43.2204 67.871 43.474 67.9085 43.7315L67.9918 43.6974L68.9427 43.3186L69.1586 43.2277V42.5458L68.9238 42.4624C68.7153 41.8275 68.3788 41.2421 67.935 40.7425L68.9427 39.7045L68.8707 39.1325L68.6169 39.3901L68.185 38.962L67.1622 40.019C65.5635 38.7499 64.0671 38.9128 63.1428 39.8674C61.8851 41.1706 62.6731 42.5837 63.4686 43.8414L61.6578 45.7014C61.0296 44.991 60.6181 44.1155 60.472 43.1784L59.1348 43.7164C59.2143 44.6104 59.8167 45.7696 60.6766 46.7129L59.9189 47.4971L59.5401 47.1524L59.6651 47.7509L60.4228 48.5086L61.4381 47.4592C63.0519 48.7283 64.5521 48.5957 65.4764 47.6297C66.7531 46.3152 65.9348 44.8907 65.1392 43.633ZM64.5634 42.6935C64.1846 42.0078 63.9687 41.4131 64.4043 40.9661C64.84 40.519 65.4082 40.4849 66.1735 41.0267L64.5634 42.6935ZM62.423 46.425L64.0255 44.7657C64.4346 45.4704 64.6392 46.0841 64.196 46.5424C63.7527 47.0008 63.2261 46.9819 62.442 46.425H62.423Z" fill="#B94C0C"/>
<g opacity="0.3">
<path d="M65.1392 43.633L66.969 41.7389C67.2758 42.1147 67.5307 42.5301 67.7267 42.9739C67.8102 43.2204 67.871 43.474 67.9085 43.7315L67.9918 43.6974L68.9427 43.3186L69.1586 43.2277V42.5458L68.9238 42.4624C68.7153 41.8275 68.3788 41.2421 67.935 40.7425L68.9427 39.7045L68.8707 39.1325L68.6169 39.3901L68.185 38.962L67.1622 40.019C65.5635 38.7499 64.0671 38.9128 63.1428 39.8674C61.8851 41.1706 62.6731 42.5837 63.4686 43.8414L61.6578 45.7014C61.0296 44.991 60.6181 44.1155 60.472 43.1784L59.1348 43.7164C59.2143 44.6104 59.8167 45.7696 60.6766 46.7129L59.9189 47.4971L59.5401 47.1524L59.6651 47.7509L60.4228 48.5086L61.4381 47.4592C63.0519 48.7283 64.5521 48.5957 65.4764 47.6297C66.7531 46.3152 65.9348 44.8907 65.1392 43.633ZM64.5634 42.6935C64.1846 42.0078 63.9687 41.4131 64.4043 40.9661C64.84 40.519 65.4082 40.4849 66.1735 41.0267L64.5634 42.6935ZM62.423 46.425L64.0255 44.7657C64.4346 45.4704 64.6392 46.0841 64.196 46.5424C63.7527 47.0008 63.2261 46.9819 62.442 46.425H62.423Z" fill="black"/>
</g>
<path d="M61.3852 46.8832L60.3737 47.9326L59.6161 47.1749L60.62 46.1331C59.7562 45.1898 59.1577 44.0306 59.0781 43.1366L60.4116 42.5986C60.5611 43.5346 60.9722 44.4092 61.5974 45.1216L63.4082 43.2275C62.6126 41.9698 61.8246 40.5757 63.0824 39.2536C64.0067 38.2989 65.5069 38.1171 67.1056 39.4051L68.1284 38.3481L68.8861 39.1058L67.8784 40.1438C68.5244 40.822 68.9895 41.6519 69.2308 42.557L67.9314 43.129C67.7294 42.4076 67.3783 41.7365 66.901 41.1591L65.0712 43.0532C65.8668 44.3109 66.6851 45.7354 65.4273 47.0385C64.503 48.0083 63.0028 48.1523 61.3852 46.8832ZM64.4954 42.1289L66.1054 40.462C65.3478 39.9203 64.7341 39.9885 64.3363 40.4014C63.9385 40.8143 64.1052 41.4432 64.4954 42.1289ZM64.1431 45.9778C64.5901 45.5194 64.3855 44.9057 63.9764 44.2011L62.374 45.8604C63.1733 46.4173 63.7567 46.3794 64.1431 45.9778Z" fill="#B94C0C"/>
<path d="M51.3613 40.1932C51.3672 40.1518 51.3774 40.1112 51.3916 40.0719C51.4144 39.9848 51.4485 39.8711 51.4901 39.7348C51.5403 39.5538 51.5997 39.3755 51.6682 39.2006C51.7439 38.9961 51.8235 38.7612 51.9409 38.5111L52.1152 38.1134C52.1796 37.977 52.2554 37.8406 52.3273 37.6967C52.4713 37.405 52.6531 37.1095 52.835 36.795C53.6707 35.4505 54.7333 34.261 55.9755 33.2795C56.2672 33.0598 56.54 32.8476 56.8127 32.6734C56.9491 32.5824 57.0741 32.4915 57.1915 32.4157L57.5704 32.196C57.8052 32.0521 58.0325 31.946 58.2257 31.8475C58.3901 31.758 58.5596 31.6783 58.7334 31.6088L59.063 31.4725C59.0991 31.4541 59.1372 31.4402 59.1766 31.4308C59.1766 31.4308 59.1425 31.4535 59.0705 31.4914L58.7523 31.6467C58.5815 31.7216 58.4146 31.8051 58.2523 31.8968C58.0628 32.0028 57.8393 32.1089 57.6083 32.2756L57.2294 32.4953C57.1006 32.5749 56.9756 32.6696 56.8506 32.7567C56.5778 32.9347 56.3089 33.1355 56.0209 33.3666C55.4115 33.8634 54.8404 34.4054 54.3124 34.988C53.793 35.5818 53.3206 36.2151 52.8994 36.8822C52.71 37.1928 52.5206 37.4845 52.3842 37.7724C52.3084 37.9164 52.2326 38.0528 52.1682 38.1853L51.9902 38.5642C51.8652 38.8066 51.7856 39.0415 51.7023 39.2461C51.6281 39.4166 51.5636 39.5911 51.5091 39.7689L51.4295 40.0984C51.4104 40.1325 51.3875 40.1642 51.3613 40.1932Z" fill="white"/>
<path d="M62.9575 40.6894C62.9217 40.5503 62.9217 40.4043 62.9575 40.2651C63.0141 39.9182 63.18 39.5983 63.431 39.3522C63.6859 39.1087 64.0129 38.9545 64.363 38.9127C64.504 38.8844 64.65 38.8922 64.7872 38.9354C64.7872 38.9354 64.6243 38.9354 64.3743 38.9809C64.0466 39.0384 63.7436 39.1924 63.504 39.4233C63.2644 39.6541 63.0991 39.9512 63.0295 40.2765C62.9613 40.5265 62.9726 40.6894 62.9575 40.6894Z" fill="white"/>
<path d="M67.4004 39.4393C67.4004 39.4393 67.4989 39.265 67.6618 39.0945C67.8247 38.9241 67.9762 38.8028 67.9952 38.8218C68.0141 38.8407 67.9004 38.996 67.7338 39.1665C67.5671 39.337 67.4193 39.4582 67.4004 39.4393Z" fill="white"/>
<path d="M72.3222 36.3479C72.2389 36.2733 72.1616 36.1922 72.0911 36.1055C72.0192 36.0221 71.932 35.9236 71.8222 35.8176C71.7123 35.7115 71.5987 35.5827 71.4433 35.4387C71.288 35.2948 71.1478 35.1622 70.9736 35.022C70.7993 34.8818 70.5947 34.7303 70.4091 34.575C69.9631 34.2537 69.4961 33.9626 69.0112 33.7037C68.522 33.4524 68.0156 33.2359 67.4959 33.0559C67.2572 32.9801 67.0262 32.9006 66.8064 32.8475C66.5867 32.7945 66.3859 32.7452 66.1965 32.7036C66.0071 32.6619 65.8366 32.6392 65.6889 32.6126C65.5411 32.5861 65.4048 32.5672 65.3101 32.5558C65.1991 32.5475 65.089 32.531 64.9805 32.5066C65.0914 32.4965 65.2029 32.4965 65.3138 32.5066C65.4407 32.5123 65.5672 32.5249 65.6927 32.5444C65.8442 32.5634 66.0185 32.5823 66.2079 32.624C66.3973 32.6657 66.6057 32.696 66.8254 32.7566C67.0451 32.8172 67.28 32.8816 67.5224 32.9574C68.049 33.134 68.5618 33.3493 69.0567 33.6014C69.5474 33.8622 70.0184 34.1585 70.4659 34.4879C70.6667 34.647 70.8448 34.7909 71.0304 34.9462C71.216 35.1016 71.3562 35.2379 71.4926 35.3743C71.629 35.5107 71.7464 35.6395 71.8525 35.7531C71.9436 35.8483 72.0296 35.9482 72.1101 36.0524C72.1893 36.1446 72.2602 36.2434 72.3222 36.3479Z" fill="white"/>
<path d="M56.3918 54.1871C56.3129 54.1554 56.2379 54.1147 56.1683 54.0659C55.9725 53.9495 55.7828 53.8231 55.6 53.6871C54.9894 53.233 54.4338 52.7092 53.9445 52.1263C53.4543 51.545 53.0323 50.9095 52.6868 50.2321C52.558 49.9708 52.4595 49.7548 52.4027 49.6033C52.3661 49.5271 52.3382 49.447 52.3193 49.3646C52.3686 49.434 52.4093 49.509 52.4406 49.5881C52.5087 49.7321 52.6148 49.9442 52.7512 50.1981C53.1126 50.8591 53.5376 51.4834 54.0203 52.0619C54.5078 52.6368 55.0509 53.1622 55.6417 53.6303C55.869 53.8083 56.0584 53.9485 56.191 54.0432C56.263 54.0837 56.3303 54.132 56.3918 54.1871Z" fill="white"/>
<path d="M34.2752 139.674H61.6533V133.81H34.2752V139.674Z" fill="#B94C0C"/>
<path d="M58.9719 139.731C59.1235 137.794 59.1235 135.849 58.9719 133.912C58.9075 133.912 58.8545 135.215 58.8545 136.822C58.8545 138.428 58.9075 139.731 58.9719 139.731Z" fill="#263238"/>
<path d="M60.4691 139.731C60.6207 137.794 60.6207 135.849 60.4691 133.912C60.4047 133.912 60.3555 135.215 60.3555 136.822C60.3555 138.428 60.4047 139.731 60.4691 139.731Z" fill="#263238"/>
<path d="M55.6801 139.731C55.7445 139.731 55.7937 138.428 55.7937 136.822C55.7937 135.215 55.7445 133.912 55.6801 133.912C55.5285 135.849 55.5285 137.794 55.6801 139.731Z" fill="#263238"/>
<path d="M57.1771 139.731C57.2415 139.731 57.2946 138.428 57.2946 136.822C57.2946 135.215 57.2415 133.912 57.1771 133.912C57.0256 135.849 57.0256 137.794 57.1771 139.731Z" fill="#263238"/>
<path d="M52.391 139.731C52.5425 137.794 52.5425 135.849 52.391 133.912C52.3266 133.912 52.2773 135.215 52.2773 136.822C52.2773 138.428 52.3266 139.731 52.391 139.731Z" fill="#263238"/>
<path d="M53.8881 139.731C53.9525 139.731 54.0017 138.428 54.0017 136.822C54.0017 135.215 53.9525 133.912 53.8881 133.912C53.8237 133.912 53.7744 135.215 53.7744 136.822C53.7744 138.428 53.8237 139.731 53.8881 139.731Z" fill="#263238"/>
<path d="M49.1 139.731C49.1644 139.731 49.2174 138.428 49.2174 136.822C49.2174 135.215 49.1644 133.912 49.1 133.912C48.9484 135.849 48.9484 137.794 49.1 139.731Z" fill="#263238"/>
<path d="M50.599 139.731C50.7505 137.794 50.7505 135.849 50.599 133.912C50.5346 133.912 50.4854 135.215 50.4854 136.822C50.4854 138.428 50.5346 139.731 50.599 139.731Z" fill="#263238"/>
<path d="M45.8119 139.731C45.8763 139.731 45.9255 138.428 45.9255 136.822C45.9255 135.215 45.8763 133.912 45.8119 133.912C45.7475 133.912 45.6982 135.215 45.6982 136.822C45.6982 138.428 45.7475 139.731 45.8119 139.731Z" fill="#263238"/>
<path d="M47.307 139.731C47.3714 139.731 47.4207 138.428 47.4207 136.822C47.4207 135.215 47.3714 133.912 47.307 133.912C47.1555 135.849 47.1555 137.794 47.307 139.731Z" fill="#263238"/>
<path d="M42.5228 139.731C42.6744 137.794 42.6744 135.849 42.5228 133.912C42.4584 133.912 42.4092 135.215 42.4092 136.822C42.4092 138.428 42.4584 139.731 42.5228 139.731Z" fill="#263238"/>
<path d="M44.0199 139.731C44.0843 139.731 44.1336 138.428 44.1336 136.822C44.1336 135.215 44.0843 133.912 44.0199 133.912C43.9555 133.912 43.9062 135.215 43.9062 136.822C43.9062 138.428 43.9555 139.731 44.0199 139.731Z" fill="#263238"/>
<path d="M39.2308 139.731C39.2952 139.731 39.3445 138.428 39.3445 136.822C39.3445 135.215 39.2952 133.912 39.2308 133.912C39.0793 135.849 39.0793 137.794 39.2308 139.731Z" fill="#263238"/>
<path d="M40.7308 139.731C40.8824 137.794 40.8824 135.849 40.7308 133.912C40.6664 133.912 40.6172 135.215 40.6172 136.822C40.6172 138.428 40.6664 139.731 40.7308 139.731Z" fill="#263238"/>
<path d="M35.9427 139.731C36.0071 139.731 36.0564 138.428 36.0564 136.822C36.0564 135.215 36.0071 133.912 35.9427 133.912C35.8783 133.912 35.8291 135.215 35.8291 136.822C35.8291 138.428 35.8973 139.731 35.9427 139.731Z" fill="#263238"/>
<path d="M37.4398 139.731C37.5042 139.731 37.5535 138.428 37.5535 136.822C37.5535 135.215 37.5042 133.912 37.4398 133.912C37.2883 135.849 37.2883 137.794 37.4398 139.731Z" fill="#263238"/>
<path d="M59.7107 127.927H87.0889V122.062H59.7107V127.927Z" fill="#B94C0C"/>
<path d="M84.3881 127.987C84.4525 127.987 84.5017 126.684 84.5017 125.078C84.5017 123.472 84.4525 122.168 84.3881 122.168C84.3237 122.168 84.2744 123.472 84.2744 125.078C84.2744 126.684 84.3388 127.987 84.3881 127.987Z" fill="#263238"/>
<path d="M85.9027 127.987C85.9671 127.987 86.0164 126.684 86.0164 125.078C86.0164 123.472 85.9671 122.168 85.9027 122.168C85.7512 124.105 85.7512 126.051 85.9027 127.987Z" fill="#263238"/>
<path d="M81.1145 127.987C81.266 126.051 81.266 124.105 81.1145 122.168C81.0501 122.168 80.9971 123.472 80.9971 125.078C80.9971 126.684 81.0501 127.987 81.1145 127.987Z" fill="#263238"/>
<path d="M82.6107 127.987C82.7623 126.051 82.7623 124.105 82.6107 122.168C82.5463 122.168 82.4971 123.472 82.4971 125.078C82.4971 126.684 82.5463 127.987 82.6107 127.987Z" fill="#263238"/>
<path d="M77.8236 127.987C77.888 127.987 77.9373 126.684 77.9373 125.078C77.9373 123.472 77.888 122.168 77.8236 122.168C77.6721 124.105 77.6721 126.051 77.8236 127.987Z" fill="#263238"/>
<path d="M79.3187 127.987C79.3831 127.987 79.4362 126.684 79.4362 125.078C79.4362 123.472 79.3831 122.168 79.3187 122.168C79.1672 124.105 79.1672 126.051 79.3187 127.987Z" fill="#263238"/>
<path d="M74.5375 127.987C74.689 126.051 74.689 124.105 74.5375 122.168C74.4731 122.168 74.4238 123.472 74.4238 125.078C74.4238 126.684 74.4693 127.987 74.5375 127.987Z" fill="#263238"/>
<path d="M76.0306 127.987C76.095 127.987 76.1443 126.684 76.1443 125.078C76.1443 123.472 76.095 122.168 76.0306 122.168C75.9662 122.168 75.917 123.472 75.917 125.078C75.917 126.684 75.9662 127.987 76.0306 127.987Z" fill="#263238"/>
<path d="M71.2426 127.987C71.307 127.987 71.36 126.684 71.36 125.078C71.36 123.472 71.307 122.168 71.2426 122.168C71.091 124.105 71.091 126.051 71.2426 127.987Z" fill="#263238"/>
<path d="M72.7435 127.987C72.8951 126.051 72.8951 124.105 72.7435 122.168C72.6791 122.168 72.6299 123.472 72.6299 125.078C72.6299 126.684 72.6791 127.987 72.7435 127.987Z" fill="#263238"/>
<path d="M67.9545 127.987C68.0189 127.987 68.0681 126.684 68.0681 125.078C68.0681 123.472 68.0189 122.168 67.9545 122.168C67.8901 122.168 67.8408 123.472 67.8408 125.078C67.8408 126.684 67.8901 127.987 67.9545 127.987Z" fill="#263238"/>
<path d="M69.4496 127.987C69.514 127.987 69.5632 126.684 69.5632 125.078C69.5632 123.472 69.514 122.168 69.4496 122.168C69.2981 124.105 69.2981 126.051 69.4496 127.987Z" fill="#263238"/>
<path d="M64.6654 127.987C64.8169 126.051 64.8169 124.105 64.6654 122.168C64.601 122.168 64.5518 123.472 64.5518 125.078C64.5518 126.684 64.601 127.987 64.6654 127.987Z" fill="#263238"/>
<path d="M66.1625 127.987C66.2269 127.987 66.2761 126.684 66.2761 125.078C66.2761 123.472 66.2269 122.168 66.1625 122.168C66.0981 122.168 66.0488 123.472 66.0488 125.078C66.0488 126.684 66.0981 127.987 66.1625 127.987Z" fill="#263238"/>
<path d="M61.3734 127.987C61.4378 127.987 61.4871 126.684 61.4871 125.078C61.4871 123.472 61.4378 122.168 61.3734 122.168C61.2219 124.105 61.2219 126.051 61.3734 127.987Z" fill="#263238"/>
<path d="M62.8734 127.987C63.025 126.051 63.025 124.105 62.8734 122.168C62.809 122.168 62.7598 123.472 62.7598 125.078C62.7598 126.684 62.7939 127.987 62.8734 127.987Z" fill="#263238"/>
<path d="M58.4109 122.1H85.7891V116.236H58.4109V122.1Z" fill="#B94C0C"/>
<path d="M83.1029 122.142C83.1673 122.142 83.2166 120.839 83.2166 119.232C83.2166 117.626 83.1673 116.327 83.1029 116.327C83.0385 116.327 82.9893 117.626 82.9893 119.232C82.9893 120.839 83.0385 122.142 83.1029 122.142Z" fill="#263238"/>
<path d="M84.6 122.142C84.6644 122.142 84.7136 120.839 84.7136 119.232C84.7136 117.626 84.6644 116.327 84.6 116.327C84.4484 118.262 84.4484 120.206 84.6 122.142Z" fill="#263238"/>
<path d="M79.8147 122.142C79.9662 120.206 79.9662 118.262 79.8147 116.327C79.7503 116.327 79.6973 117.626 79.6973 119.232C79.6973 120.839 79.7503 122.142 79.8147 122.142Z" fill="#263238"/>
<path d="M81.3119 122.142C81.4634 120.206 81.4634 118.262 81.3119 116.327C81.2475 116.327 81.1982 117.626 81.1982 119.232C81.1982 120.839 81.2475 122.142 81.3119 122.142Z" fill="#263238"/>
<path d="M76.5238 122.142C76.5882 122.142 76.6374 120.839 76.6374 119.232C76.6374 117.626 76.5882 116.327 76.5238 116.327C76.3723 118.262 76.3723 120.206 76.5238 122.142Z" fill="#263238"/>
<path d="M78.0199 122.142C78.0843 122.142 78.1373 120.839 78.1373 119.232C78.1373 117.626 78.0843 116.327 78.0199 116.327C77.8684 118.262 77.8684 120.206 78.0199 122.142Z" fill="#263238"/>
<path d="M73.2347 122.142C73.3863 120.206 73.3863 118.262 73.2347 116.327C73.1703 116.327 73.1211 117.626 73.1211 119.232C73.1211 120.839 73.1703 122.142 73.2347 122.142Z" fill="#263238"/>
<path d="M74.7308 122.142C74.7952 122.142 74.8445 120.839 74.8445 119.232C74.8445 117.626 74.7952 116.327 74.7308 116.327C74.5793 118.262 74.5793 120.206 74.7308 122.142Z" fill="#263238"/>
<path d="M69.9427 122.142C70.0071 122.142 70.0602 120.839 70.0602 119.232C70.0602 117.626 70.0071 116.327 69.9427 116.327C69.7912 118.262 69.7912 120.206 69.9427 122.142Z" fill="#263238"/>
<path d="M71.4437 122.142C71.5953 120.206 71.5953 118.262 71.4437 116.327C71.3793 116.327 71.3301 117.626 71.3301 119.232C71.3301 120.839 71.3793 122.142 71.4437 122.142Z" fill="#263238"/>
<path d="M66.6547 122.142C66.7191 122.142 66.7683 120.839 66.7683 119.232C66.7683 117.626 66.7191 116.327 66.6547 116.327C66.5903 116.327 66.541 117.626 66.541 119.232C66.541 120.839 66.5827 122.142 66.6547 122.142Z" fill="#263238"/>
<path d="M68.1517 122.142C68.2161 122.142 68.2654 120.839 68.2654 119.232C68.2654 117.626 68.2161 116.327 68.1517 116.327C68.0002 118.262 68.0002 120.206 68.1517 122.142Z" fill="#263238"/>
<path d="M63.3666 122.142C63.5181 120.206 63.5181 118.262 63.3666 116.327C63.3022 116.327 63.2529 117.626 63.2529 119.232C63.2529 120.839 63.3022 122.142 63.3666 122.142Z" fill="#263238"/>
<path d="M64.8627 122.142C64.9271 122.142 64.9763 120.839 64.9763 119.232C64.9763 117.626 64.9271 116.327 64.8627 116.327C64.7983 116.327 64.749 117.626 64.749 119.232C64.749 120.839 64.7983 122.142 64.8627 122.142Z" fill="#263238"/>
<path d="M60.0736 122.142C60.138 122.142 60.1873 120.839 60.1873 119.232C60.1873 117.626 60.138 116.327 60.0736 116.327C59.9221 118.262 59.9221 120.206 60.0736 122.142Z" fill="#263238"/>
<path d="M61.5746 122.142C61.7261 120.206 61.7261 118.262 61.5746 116.327C61.5102 116.327 61.4609 117.626 61.4609 119.232C61.4609 120.839 61.5102 122.142 61.5746 122.142Z" fill="#263238"/>
<path d="M61.8553 133.742H89.2334V127.878H61.8553V133.742Z" fill="#B94C0C"/>
<path d="M86.5472 133.783C86.6116 133.783 86.6647 132.48 86.6647 130.874C86.6647 129.268 86.6116 127.968 86.5472 127.968C86.3957 129.904 86.3957 131.848 86.5472 133.783Z" fill="#263238"/>
<path d="M88.0473 133.783C88.1988 131.848 88.1988 129.904 88.0473 127.968C87.9828 127.968 87.9336 129.268 87.9336 130.874C87.9336 132.48 87.9828 133.783 88.0473 133.783Z" fill="#263238"/>
<path d="M83.2513 133.783C83.3157 133.783 83.365 132.48 83.365 130.874C83.365 129.268 83.3157 127.968 83.2513 127.968C83.1869 127.968 83.1377 129.268 83.1377 130.874C83.1377 132.48 83.1945 133.783 83.2513 133.783Z" fill="#263238"/>
<path d="M84.766 133.783C84.8304 133.783 84.8796 132.48 84.8796 130.874C84.8796 129.268 84.8304 127.968 84.766 127.968C84.6145 129.904 84.6145 131.848 84.766 133.783Z" fill="#263238"/>
<path d="M79.9711 133.783C80.1226 131.848 80.1226 129.904 79.9711 127.968C79.9067 127.968 79.8574 129.268 79.8574 130.874C79.8574 132.48 79.9067 133.783 79.9711 133.783Z" fill="#263238"/>
<path d="M81.4662 133.783C81.5306 133.783 81.5798 132.48 81.5798 130.874C81.5798 129.268 81.5306 127.968 81.4662 127.968C81.4018 127.968 81.3525 129.268 81.3525 130.874C81.3525 132.48 81.4018 133.783 81.4662 133.783Z" fill="#263238"/>
<path d="M76.6791 133.783C76.7435 133.783 76.7927 132.48 76.7927 130.874C76.7927 129.268 76.7435 127.968 76.6791 127.968C76.5275 129.904 76.5275 131.848 76.6791 133.783Z" fill="#263238"/>
<path d="M78.1791 133.783C78.3306 131.848 78.3306 129.904 78.1791 127.968C78.1147 127.968 78.0654 129.268 78.0654 130.874C78.0654 132.48 78.1147 133.783 78.1791 133.783Z" fill="#263238"/>
<path d="M73.4027 133.783C73.4671 133.783 73.5164 132.48 73.5164 130.874C73.5164 129.268 73.4671 127.968 73.4027 127.968C73.3383 127.968 73.2891 129.268 73.2891 130.874C73.2891 132.48 73.3269 133.783 73.4027 133.783Z" fill="#263238"/>
<path d="M74.8871 133.783C74.9515 133.783 75.0007 132.48 75.0007 130.874C75.0007 129.268 74.9515 127.968 74.8871 127.968C74.7356 129.904 74.7356 131.848 74.8871 133.783Z" fill="#263238"/>
<path d="M70.1009 133.783C70.2525 131.848 70.2525 129.904 70.1009 127.968C70.0365 127.968 69.9873 129.268 69.9873 130.874C69.9873 132.48 70.0365 133.783 70.1009 133.783Z" fill="#263238"/>
<path d="M71.598 133.783C71.6624 133.783 71.7117 132.48 71.7117 130.874C71.7117 129.268 71.6624 127.968 71.598 127.968C71.5336 127.968 71.4844 129.268 71.4844 130.874C71.4844 132.48 71.5336 133.783 71.598 133.783Z" fill="#263238"/>
<path d="M66.8109 133.783C66.8753 133.783 66.9246 132.48 66.9246 130.874C66.9246 129.268 66.8753 127.968 66.8109 127.968C66.6594 129.904 66.6594 131.848 66.8109 133.783Z" fill="#263238"/>
<path d="M68.3108 133.783C68.4623 131.848 68.4623 129.904 68.3108 127.968C68.2464 127.968 68.1934 129.268 68.1934 130.874C68.1934 132.48 68.2464 133.783 68.3108 133.783Z" fill="#263238"/>
<path d="M63.5219 133.783C63.6734 131.848 63.6734 129.904 63.5219 127.968C63.4575 127.968 63.4082 129.268 63.4082 130.874C63.4082 132.48 63.4575 133.783 63.5219 133.783Z" fill="#263238"/>
<path d="M65.0179 133.783C65.0823 133.783 65.1316 132.48 65.1316 130.874C65.1316 129.268 65.0823 127.968 65.0179 127.968C64.8664 129.904 64.8664 131.848 65.0179 133.783Z" fill="#263238"/>
<path d="M61.8545 127.881C61.8545 127.953 68.0105 128.014 75.6061 128.014C83.2016 128.014 89.3576 127.953 89.3576 127.881C89.3576 127.809 83.2016 127.745 75.6061 127.745C68.0105 127.745 61.8545 127.805 61.8545 127.881Z" fill="#263238"/>
<path d="M59.1121 139.693H86.4902V133.829H59.1121V139.693Z" fill="#B94C0C"/>
<path d="M83.8051 139.731C83.8695 139.731 83.9187 138.432 83.9187 136.825C83.9187 135.219 83.8695 133.916 83.8051 133.916C83.6535 135.851 83.6535 137.796 83.8051 139.731Z" fill="#263238"/>
<path d="M85.3011 139.731C85.3655 139.731 85.4186 138.432 85.4186 136.825C85.4186 135.219 85.3655 133.916 85.3011 133.916C85.1496 135.851 85.1496 137.796 85.3011 139.731Z" fill="#263238"/>
<path d="M80.516 139.731C80.6675 137.796 80.6675 135.851 80.516 133.916C80.4516 133.916 80.4023 135.215 80.4023 136.825C80.4023 138.435 80.4516 139.731 80.516 139.731Z" fill="#263238"/>
<path d="M82.0121 139.731C82.0765 139.731 82.1257 138.432 82.1257 136.825C82.1257 135.219 82.0765 133.916 82.0121 133.916C81.9477 133.916 81.8984 135.215 81.8984 136.825C81.8984 138.435 81.9477 139.731 82.0121 139.731Z" fill="#263238"/>
<path d="M77.224 139.731C77.2884 139.731 77.3377 138.432 77.3377 136.825C77.3377 135.219 77.2884 133.916 77.224 133.916C77.0725 135.851 77.0725 137.796 77.224 139.731Z" fill="#263238"/>
<path d="M78.725 139.731C78.8765 137.796 78.8765 135.851 78.725 133.916C78.6606 133.916 78.6113 135.215 78.6113 136.825C78.6113 138.435 78.6606 139.731 78.725 139.731Z" fill="#263238"/>
<path d="M73.9359 139.731C74.0003 139.731 74.0496 138.432 74.0496 136.825C74.0496 135.219 74.0003 133.916 73.9359 133.916C73.8715 133.916 73.8223 135.215 73.8223 136.825C73.8223 138.435 73.8715 139.731 73.9359 139.731Z" fill="#263238"/>
<path d="M75.433 139.731C75.4974 139.731 75.5466 138.432 75.5466 136.825C75.5466 135.219 75.4974 133.916 75.433 133.916C75.2815 135.851 75.2815 137.796 75.433 139.731Z" fill="#263238"/>
<path d="M70.6478 139.731C70.7994 137.796 70.7994 135.851 70.6478 133.916C70.5834 133.916 70.5342 135.215 70.5342 136.825C70.5342 138.435 70.5834 139.731 70.6478 139.731Z" fill="#263238"/>
<path d="M72.1439 139.731C72.2083 139.731 72.2576 138.432 72.2576 136.825C72.2576 135.219 72.2083 133.916 72.1439 133.916C72.0795 133.916 72.0303 135.215 72.0303 136.825C72.0303 138.435 72.0795 139.731 72.1439 139.731Z" fill="#263238"/>
<path d="M67.3402 139.731C67.4046 139.731 67.4539 138.432 67.4539 136.825C67.4539 135.219 67.4046 133.916 67.3402 133.916C67.1887 135.851 67.1887 137.796 67.3402 139.731Z" fill="#263238"/>
<path d="M68.8558 139.731C69.0074 137.796 69.0074 135.851 68.8558 133.916C68.7914 133.916 68.7422 135.215 68.7422 136.825C68.7422 138.435 68.7914 139.731 68.8558 139.731Z" fill="#263238"/>
<path d="M64.0678 139.731C64.1322 139.731 64.1814 138.432 64.1814 136.825C64.1814 135.219 64.1322 133.916 64.0678 133.916C64.0034 133.916 63.9541 135.215 63.9541 136.825C63.9541 138.435 64.0034 139.731 64.0678 139.731Z" fill="#263238"/>
<path d="M65.5638 139.731C65.6282 139.731 65.6775 138.432 65.6775 136.825C65.6775 135.219 65.6282 133.916 65.5638 133.916C65.4123 135.851 65.4123 137.796 65.5638 139.731Z" fill="#263238"/>
<path d="M60.7787 139.731C60.9302 137.796 60.9302 135.851 60.7787 133.916C60.7143 133.916 60.665 135.215 60.665 136.825C60.665 138.435 60.7143 139.731 60.7787 139.731Z" fill="#263238"/>
<path d="M62.2758 139.731C62.3402 139.731 62.3894 138.432 62.3894 136.825C62.3894 135.219 62.3402 133.916 62.2758 133.916C62.2114 133.916 62.1621 135.215 62.1621 136.825C62.1621 138.435 62.2114 139.731 62.2758 139.731Z" fill="#263238"/>
<path d="M59.1074 133.829C59.1074 133.901 65.2672 133.961 72.859 133.961C80.4508 133.961 86.6144 133.901 86.6144 133.829C86.6144 133.757 80.4584 133.693 72.859 133.693C65.2596 133.693 59.1074 133.753 59.1074 133.829Z" fill="#263238"/>
<path d="M58.4072 122.15C58.4072 122.199 64.8739 122.237 72.8521 122.237C80.8303 122.237 87.2969 122.199 87.2969 122.15C87.2969 122.1 80.8303 122.062 72.8521 122.062C64.8739 122.062 58.4072 122.1 58.4072 122.15Z" fill="#263238"/>
<g opacity="0.3">
<path d="M87.0843 122.062C82.9967 123.248 78.6402 123.475 74.4389 123.146C70.2377 122.816 66.1539 122.009 61.9375 122.062H87.0843Z" fill="black"/>
</g>
<g opacity="0.3">
<path d="M85.5238 127.938C81.4362 129.124 77.0797 129.351 72.8784 129.021C68.6772 128.692 64.4343 127.965 60.2217 128.025L85.5238 127.938Z" fill="black"/>
</g>
<g opacity="0.3">
<path d="M86.5855 133.791C82.4979 134.977 78.1413 135.208 73.9401 134.878C69.7388 134.549 65.4959 133.818 61.2871 133.878L86.5855 133.791Z" fill="black"/>
</g>
<path d="M86.2826 126.51C86.347 126.51 86.3962 125.824 86.3962 124.994C86.3962 124.165 86.347 123.479 86.2826 123.479C86.1311 124.493 86.1311 125.523 86.2826 126.536V126.51Z" fill="white"/>
<path d="M88.8207 132.067C88.8851 132.067 88.9343 131.454 88.9343 130.7C88.9343 129.946 88.8851 129.328 88.8207 129.328C88.6691 130.235 88.6691 131.161 88.8207 132.067Z" fill="white"/>
<path d="M86.0998 139.481C86.211 137.988 86.211 136.489 86.0998 134.996C85.9837 136.488 85.9837 137.988 86.0998 139.481Z" fill="white"/>
<path d="M65.2949 133.136C65.2949 133.189 70.2728 133.234 76.4136 133.234C82.5545 133.234 87.5323 133.189 87.5323 133.136C87.5323 133.083 82.5545 133.037 76.4136 133.037C70.2728 133.037 65.2949 133.079 65.2949 133.136Z" fill="white"/>
<path d="M69.2757 90.9414C68.9809 90.8463 68.6755 90.7878 68.3665 90.7671C67.6224 90.6846 66.8716 90.6846 66.1276 90.7671C65.3821 90.8478 64.6492 91.0196 63.9455 91.2785C63.6487 91.373 63.3658 91.5068 63.1045 91.6763C63.4033 91.6024 63.6969 91.5088 63.9834 91.396C64.6884 91.1773 65.4128 91.0263 66.1465 90.9452C66.8799 90.8651 67.6189 90.8486 68.3551 90.8959C68.6607 90.9304 68.9681 90.9455 69.2757 90.9414Z" fill="#A64911"/>
<path d="M74.3447 51.3914C74.3447 51.4558 75.0039 51.3118 75.7578 51.0466C76.0305 50.9595 76.2843 50.8724 76.4927 50.8231L76.4662 50.6754L76.3412 50.7019L76.3677 50.8383C76.549 50.8031 76.7223 50.735 76.8791 50.6375C76.6959 50.6264 76.5121 50.6495 76.3374 50.7057L76.3639 50.8383H76.4927L76.4662 50.6905C76.2089 50.7397 75.9556 50.8081 75.7085 50.8951C75.2435 51.0304 74.7879 51.1962 74.3447 51.3914Z" fill="#6F4439"/>
<path d="M74.0957 52.8878C74.4609 52.8696 74.8183 52.7754 75.1451 52.6113C75.4947 52.5102 75.8189 52.3359 76.0959 52.0999C75.7454 52.1772 75.4048 52.2941 75.0807 52.4484C74.7362 52.5556 74.4056 52.7031 74.0957 52.8878Z" fill="#6F4439"/>
</svg>
