<svg width="177" height="26" viewBox="0 0 177 26" fill="none" xmlns="http://www.w3.org/2000/svg">
<path d="M58.3868 21.9685C56.9185 21.9672 55.5107 21.3613 54.4724 20.2838C53.434 19.2063 52.8499 17.7452 52.8482 16.2211V12.6774C52.8482 11.1527 53.4317 9.6904 54.4704 8.61225C55.5091 7.5341 56.9179 6.9284 58.3868 6.9284C59.8557 6.9284 61.2644 7.5341 62.3031 8.61225C63.3418 9.6904 63.9253 11.1527 63.9253 12.6774V16.2211C63.9236 17.7452 63.3395 19.2063 62.3012 20.2838C61.2628 21.3613 59.855 21.9672 58.3868 21.9685ZM58.3868 9.81698C57.6564 9.81829 56.9564 10.1201 56.4401 10.6563C55.9239 11.1925 55.6335 11.9193 55.6326 12.6774V16.2211C55.6335 16.9791 55.9239 17.7057 56.4402 18.2416C56.9565 18.7776 57.6566 19.079 58.3868 19.0799C59.1171 19.079 59.8173 18.7776 60.3339 18.2417C60.8504 17.7058 61.1412 16.9792 61.1425 16.2211V12.6774C61.1416 11.9191 60.851 11.192 60.3344 10.6557C59.8178 10.1195 59.1174 9.81785 58.3868 9.81698Z" fill="#C96F3B"/>
<path d="M28.3606 21.7369C28.4808 21.7369 28.5961 21.6875 28.6812 21.5994C28.7664 21.5113 28.8144 21.3918 28.8148 21.2671V17.0103H32.0774C34.669 17.0103 36.8477 14.8927 36.9099 12.2126C36.9243 11.5562 36.8124 10.9035 36.5806 10.2926C36.3488 9.68179 36.0018 9.12513 35.56 8.65531C35.1182 8.18548 34.5905 7.81194 34.0078 7.5566C33.4251 7.30126 32.7992 7.16926 32.1667 7.16833H26.4847C26.3657 7.16918 26.2518 7.21827 26.1672 7.30513C26.0826 7.39199 26.0341 7.50974 26.032 7.63321V21.2687C26.0324 21.3935 26.0805 21.513 26.1656 21.601C26.2508 21.6891 26.3661 21.7386 26.4863 21.7386L28.3606 21.7369ZM28.8148 10.0503H32.1619C32.6818 10.0503 33.1805 10.2647 33.5481 10.6463C33.9158 11.0279 34.1223 11.5455 34.1223 12.0852C34.1223 12.6249 33.9158 13.1425 33.5481 13.5241C33.1805 13.9057 32.6818 14.1201 32.1619 14.1201H28.8148V10.0503Z" fill="#C96F3B"/>
<path d="M47.0785 16.2609C47.9983 15.9524 48.798 15.3446 49.3592 14.5276C49.9204 13.7106 50.2132 12.7278 50.1945 11.7246C50.1435 9.1735 48.0763 7.16011 45.6186 7.16011H39.7676C39.6474 7.16055 39.5323 7.21041 39.4475 7.29879C39.3626 7.38717 39.315 7.50684 39.315 7.63161V21.2671C39.315 21.3917 39.3627 21.5112 39.4476 21.5993C39.5324 21.6875 39.6476 21.737 39.7676 21.737H41.6515C41.7716 21.737 41.8867 21.6875 41.9716 21.5993C42.0565 21.5112 42.1042 21.3917 42.1042 21.2671V10.0503H45.66C46.1037 10.0463 46.5322 10.2181 46.858 10.5308C47.1838 10.8434 47.3824 11.2734 47.4132 11.7329C47.4238 11.9727 47.3874 12.2123 47.3062 12.4371C47.225 12.6619 47.1007 12.8673 46.9408 13.0408C46.7809 13.2143 46.5888 13.3524 46.3761 13.4466C46.1633 13.5409 45.9344 13.5893 45.703 13.5891H44.5698C44.5397 13.5891 44.5098 13.5952 44.482 13.6072C44.4542 13.6192 44.4289 13.6367 44.4075 13.6588C44.3862 13.681 44.3693 13.7072 44.3578 13.7361C44.3463 13.765 44.3403 13.796 44.3403 13.8273V17.1129C44.3405 17.2121 44.3706 17.3087 44.4264 17.3892L47.3383 21.5434C47.3802 21.6036 47.4353 21.6526 47.499 21.6862C47.5628 21.7199 47.6334 21.7373 47.7049 21.737H50.0239C50.1076 21.737 50.1897 21.713 50.2611 21.6677C50.3325 21.6223 50.3904 21.5574 50.4285 21.48C50.4666 21.4027 50.4833 21.3159 50.4769 21.2293C50.4705 21.1427 50.4411 21.0596 50.3921 20.9892L47.0785 16.2609Z" fill="#C96F3B"/>
<path d="M82.5158 21.9999H80.6398C80.4524 21.9999 80.2727 21.9228 80.14 21.7854C80.0073 21.648 79.9326 21.4616 79.9322 21.267V7.63318C79.9322 7.5368 79.9505 7.44137 79.9861 7.35234C80.0217 7.26331 80.0738 7.18244 80.1395 7.11436C80.2053 7.04628 80.2833 6.99234 80.3691 6.9556C80.455 6.91887 80.547 6.90007 80.6398 6.90029H89.3565C89.4494 6.90007 89.5413 6.91887 89.6272 6.9556C89.713 6.99234 89.7911 7.04628 89.8568 7.11436C89.9225 7.18244 89.9747 7.26331 90.0103 7.35234C90.0458 7.44137 90.0641 7.5368 90.0641 7.63318V9.58041C90.0637 9.77493 89.989 9.96134 89.8563 10.0987C89.7237 10.2361 89.5439 10.3133 89.3565 10.3133H83.2218V12.3796H87.7133C87.9007 12.3801 88.0802 12.4577 88.2126 12.5954C88.345 12.7331 88.4193 12.9197 88.4193 13.1142V15.0614C88.4189 15.2557 88.3444 15.4418 88.212 15.5792C88.0797 15.7165 87.9004 15.7939 87.7133 15.7943H83.225V21.2687C83.2242 21.4632 83.149 21.6495 83.0161 21.7865C82.8831 21.9236 82.7032 22.0004 82.5158 21.9999ZM80.6398 7.42307C80.6134 7.42285 80.5872 7.42809 80.5627 7.43849C80.5383 7.44889 80.5161 7.46424 80.4974 7.48364C80.4787 7.50304 80.4639 7.5261 80.4539 7.55149C80.4439 7.57688 80.4388 7.60409 80.439 7.63153V21.267C80.439 21.3223 80.4602 21.3753 80.4978 21.4144C80.5355 21.4535 80.5866 21.4755 80.6398 21.4755H82.5158C82.5689 21.4751 82.6197 21.4529 82.6573 21.4139C82.6949 21.375 82.7162 21.3222 82.7166 21.267V15.2682H87.7133C87.7662 15.2678 87.8169 15.2456 87.8542 15.2066C87.8915 15.1675 87.9125 15.1148 87.9125 15.0598V13.1125C87.9127 13.0852 87.9077 13.0582 87.8978 13.0329C87.8878 13.0076 87.8732 12.9846 87.8547 12.9652C87.8362 12.9459 87.8141 12.9305 87.7899 12.92C87.7656 12.9095 87.7395 12.9041 87.7133 12.9041H82.7198V9.78389H89.3597C89.4129 9.78389 89.464 9.76194 89.5017 9.72284C89.5393 9.68375 89.5605 9.63072 89.5605 9.57544V7.63318C89.5607 7.60575 89.5557 7.57854 89.5457 7.55315C89.5356 7.52776 89.5208 7.50469 89.5021 7.48529C89.4835 7.46589 89.4612 7.45054 89.4368 7.44015C89.4123 7.42975 89.3861 7.42451 89.3597 7.42473L80.6398 7.42307Z" fill="#C96F3B"/>
<path d="M111.289 21.9999H105.15C104.962 21.9999 104.783 21.9228 104.65 21.7854C104.517 21.648 104.442 21.4616 104.442 21.267V19.3198C104.442 19.125 104.517 18.9382 104.649 18.8004C104.782 18.6626 104.962 18.5853 105.15 18.5853H106.575V10.3133H105.15C104.962 10.3133 104.783 10.2361 104.65 10.0987C104.517 9.96134 104.442 9.77493 104.442 9.58041V7.63318C104.442 7.5368 104.46 7.44137 104.496 7.35234C104.532 7.26331 104.584 7.18244 104.649 7.11436C104.715 7.04628 104.793 6.99234 104.879 6.9556C104.965 6.91887 105.057 6.90007 105.15 6.90029H111.289C111.382 6.90007 111.474 6.91887 111.56 6.9556C111.646 6.99234 111.724 7.04628 111.789 7.11436C111.855 7.18244 111.907 7.26331 111.943 7.35234C111.979 7.44137 111.997 7.5368 111.997 7.63318V9.58041C111.996 9.77493 111.922 9.96134 111.789 10.0987C111.656 10.2361 111.477 10.3133 111.289 10.3133H109.867V18.5853H111.292C111.48 18.5853 111.66 18.6626 111.793 18.8004C111.925 18.9382 112 19.125 112 19.3198V21.267C112 21.3636 111.981 21.4592 111.945 21.5484C111.91 21.6375 111.857 21.7185 111.791 21.7865C111.725 21.8546 111.647 21.9085 111.561 21.9451C111.474 21.9817 111.382 22.0004 111.289 21.9999ZM105.15 19.1114C105.123 19.1111 105.097 19.1164 105.073 19.1268C105.048 19.1372 105.026 19.1525 105.007 19.1719C104.989 19.1913 104.974 19.2144 104.964 19.2398C104.954 19.2652 104.949 19.2924 104.949 19.3198V21.267C104.949 21.3223 104.97 21.3753 105.008 21.4144C105.045 21.4535 105.096 21.4755 105.15 21.4755H111.289C111.342 21.4755 111.393 21.4535 111.431 21.4144C111.469 21.3753 111.49 21.3223 111.49 21.267V19.3198C111.49 19.2924 111.485 19.2652 111.475 19.2398C111.465 19.2144 111.45 19.1913 111.432 19.1719C111.413 19.1525 111.391 19.1372 111.366 19.1268C111.342 19.1164 111.316 19.1111 111.289 19.1114H109.357V9.78389H111.289C111.342 9.78389 111.393 9.76194 111.431 9.72284C111.469 9.68375 111.49 9.63072 111.49 9.57544V7.63318C111.49 7.60575 111.485 7.57854 111.475 7.55315C111.465 7.52776 111.45 7.50469 111.432 7.48529C111.413 7.46589 111.391 7.45054 111.366 7.44015C111.342 7.42975 111.316 7.42451 111.289 7.42473H105.15C105.123 7.42451 105.097 7.42975 105.073 7.44015C105.048 7.45054 105.026 7.46589 105.007 7.48529C104.989 7.50469 104.974 7.52776 104.964 7.55315C104.954 7.57854 104.949 7.60575 104.949 7.63318V9.58041C104.949 9.63569 104.97 9.68871 105.008 9.7278C105.045 9.76689 105.096 9.78886 105.15 9.78886H107.081V19.113L105.15 19.1114Z" fill="#C96F3B"/>
<path d="M98.105 22H96.229C96.0418 22 95.8622 21.9228 95.7298 21.7853C95.5974 21.6479 95.523 21.4615 95.523 21.2671V15.7017L91.0842 8.0088C91.0198 7.89745 90.985 7.77033 90.9835 7.64047C90.982 7.5106 91.0138 7.38265 91.0755 7.26971C91.1373 7.15678 91.2269 7.06291 91.3351 6.99771C91.4433 6.93252 91.5663 6.89835 91.6914 6.8987H93.8765C93.9987 6.89884 94.1187 6.93165 94.2251 6.99395C94.3314 7.05625 94.4205 7.14595 94.4838 7.2544L97.1168 11.8288L99.7546 7.2544C99.8178 7.14595 99.907 7.05625 100.013 6.99395C100.12 6.93165 100.24 6.89884 100.362 6.8987H102.549C102.674 6.89865 102.796 6.93303 102.904 6.99834C103.012 7.06365 103.102 7.15754 103.163 7.27043C103.225 7.38332 103.256 7.51116 103.255 7.64088C103.253 7.7706 103.219 7.89757 103.154 8.0088L98.8063 15.5446V21.2671C98.8058 21.4605 98.732 21.6459 98.6007 21.7831C98.4694 21.9203 98.2913 21.9983 98.105 22ZM91.6978 7.42314C91.6622 7.42277 91.6273 7.43228 91.5965 7.45067C91.5657 7.46906 91.5402 7.49567 91.5226 7.52774C91.5051 7.5598 91.4961 7.59616 91.4966 7.63304C91.4971 7.66991 91.5072 7.70597 91.5257 7.73748L96.0346 15.5578V21.2671C96.035 21.3222 96.0563 21.375 96.0939 21.414C96.1314 21.453 96.1823 21.4751 96.2354 21.4755H98.1114C98.1645 21.4751 98.2153 21.453 98.2529 21.414C98.2905 21.375 98.3118 21.3222 98.3122 21.2671V15.4089L102.73 7.74575C102.748 7.71417 102.758 7.67818 102.758 7.64152C102.758 7.60486 102.748 7.56887 102.73 7.53729C102.713 7.50532 102.688 7.4787 102.657 7.4601C102.627 7.44151 102.592 7.43162 102.557 7.43142H100.37C100.335 7.43144 100.301 7.44071 100.27 7.45838C100.24 7.47604 100.214 7.50151 100.196 7.53233L97.1168 12.8512L94.0439 7.52406C94.0263 7.49303 94.0011 7.46737 93.9709 7.44965C93.9406 7.43194 93.9065 7.42279 93.8718 7.42314H91.6978Z" fill="#C96F3B"/>
<path d="M69.142 21.7369C69.2015 21.7371 69.2606 21.7251 69.3157 21.7016C69.3708 21.6781 69.4209 21.6435 69.4631 21.5999C69.5053 21.5562 69.5387 21.5044 69.5616 21.4473C69.5844 21.3901 69.5962 21.3289 69.5962 21.2671V17.0103H72.8604C75.4503 17.0103 77.6307 14.8927 77.6913 12.2126C77.7059 11.5563 77.5941 10.9036 77.3625 10.2928C77.1309 9.68192 76.7841 9.12524 76.3424 8.6554C75.9007 8.18555 75.3731 7.81199 74.7905 7.55663C74.2079 7.30128 73.582 7.16926 72.9496 7.16833H67.266C67.1458 7.16877 67.0307 7.21864 66.9458 7.30701C66.861 7.39539 66.8134 7.51506 66.8134 7.63983V21.2753C66.8134 21.4 66.8611 21.5195 66.9459 21.6076C67.0308 21.6957 67.146 21.7452 67.266 21.7452L69.142 21.7369ZM69.5962 10.0503H72.9432C73.4632 10.0503 73.9618 10.2647 74.3295 10.6463C74.6971 11.0279 74.9036 11.5455 74.9036 12.0852C74.9036 12.6249 74.6971 13.1425 74.3295 13.5241C73.9618 13.9057 73.4632 14.1201 72.9432 14.1201H69.5962V10.0503Z" fill="#C96F3B"/>
<path d="M19.11 7.99881L9.8945 0.0990879C9.82013 0.0350535 9.72655 0 9.62993 0C9.5333 0 9.43971 0.0350535 9.36535 0.0990879L0.149821 7.99881C0.102883 8.03908 0.0651159 8.08963 0.0392138 8.14683C0.0133118 8.20404 -8.42695e-05 8.26648 3.98864e-07 8.32969V21.5863C3.98864e-07 21.6258 0.0151144 21.6637 0.0420155 21.6916C0.0689166 21.7195 0.105405 21.7352 0.143449 21.7352H11.4118C11.4499 21.7352 11.4863 21.7195 11.5132 21.6916C11.5402 21.6637 11.5553 21.6258 11.5553 21.5863V11.9346C11.5548 11.9109 11.5495 11.8875 11.5396 11.8661C11.5297 11.8447 11.5155 11.8257 11.4979 11.8105L9.72396 10.3596C9.69681 10.3393 9.66418 10.3284 9.63071 10.3284C9.59724 10.3284 9.56463 10.3393 9.53748 10.3596L7.76195 11.8105C7.74437 11.8257 7.73014 11.8447 7.72024 11.8661C7.71034 11.8875 7.705 11.9109 7.70458 11.9346V17.2667C7.70458 17.3909 7.65705 17.51 7.57246 17.5978C7.48787 17.6856 7.37315 17.7349 7.25352 17.7349H4.30334C4.18371 17.7349 4.06899 17.6856 3.9844 17.5978C3.89981 17.51 3.85229 17.3909 3.85229 17.2667V10.2322C3.85191 10.1637 3.86597 10.0959 3.8935 10.0336C3.92103 9.97129 3.96137 9.916 4.01168 9.87159L9.33825 5.3038C9.41941 5.23486 9.52106 5.19719 9.62594 5.19719C9.73081 5.19719 9.83246 5.23486 9.91362 5.3038L15.2402 9.87159C15.2905 9.916 15.3308 9.97129 15.3584 10.0336C15.3859 10.0959 15.4 10.1637 15.3996 10.2322V21.588C15.3996 21.6275 15.4147 21.6654 15.4416 21.6933C15.4685 21.7212 15.505 21.7369 15.543 21.7369H19.1084C19.1465 21.7369 19.183 21.7212 19.2099 21.6933C19.2368 21.6654 19.2519 21.6275 19.2519 21.588V8.33134C19.2531 8.26852 19.241 8.2062 19.2165 8.14875C19.192 8.0913 19.1556 8.04012 19.11 7.99881Z" fill="#C96F3B"/>
<path d="M134.668 19.0264C134.668 19.9932 134.319 20.7549 133.621 21.3115C132.928 21.8682 131.961 22.1465 130.721 22.1465C129.578 22.1465 128.567 21.9316 127.688 21.502V19.3926C128.411 19.7148 129.021 19.9419 129.52 20.0737C130.022 20.2056 130.481 20.2715 130.896 20.2715C131.395 20.2715 131.775 20.1763 132.039 19.9858C132.308 19.7954 132.442 19.5122 132.442 19.1362C132.442 18.9263 132.383 18.7407 132.266 18.5796C132.149 18.4136 131.976 18.2549 131.746 18.1035C131.521 17.9521 131.06 17.7104 130.362 17.3784C129.708 17.0708 129.217 16.7754 128.89 16.4922C128.562 16.209 128.301 15.8794 128.106 15.5034C127.911 15.1274 127.813 14.688 127.813 14.1851C127.813 13.2378 128.133 12.4932 128.772 11.9512C129.417 11.4092 130.306 11.1382 131.438 11.1382C131.995 11.1382 132.525 11.2041 133.028 11.3359C133.536 11.4678 134.065 11.6533 134.617 11.8926L133.885 13.6577C133.313 13.4233 132.84 13.2598 132.464 13.167C132.093 13.0742 131.727 13.0278 131.365 13.0278C130.936 13.0278 130.606 13.1279 130.376 13.3281C130.147 13.5283 130.032 13.7896 130.032 14.1118C130.032 14.312 130.079 14.4878 130.171 14.6392C130.264 14.7856 130.411 14.9297 130.611 15.0713C130.816 15.208 131.297 15.457 132.054 15.8184C133.055 16.2969 133.741 16.7778 134.112 17.2612C134.483 17.7397 134.668 18.3281 134.668 19.0264ZM139.825 15.2471C139.351 15.2471 138.98 15.3984 138.711 15.7012C138.443 15.999 138.289 16.4238 138.25 16.9756H141.385C141.375 16.4238 141.231 15.999 140.953 15.7012C140.674 15.3984 140.298 15.2471 139.825 15.2471ZM140.14 22.1465C138.821 22.1465 137.791 21.7827 137.049 21.0552C136.307 20.3276 135.936 19.2974 135.936 17.9644C135.936 16.5923 136.277 15.5327 136.961 14.7856C137.649 14.0337 138.599 13.6577 139.81 13.6577C140.967 13.6577 141.868 13.9873 142.513 14.6465C143.157 15.3057 143.479 16.2163 143.479 17.3784V18.4624H138.199C138.223 19.0972 138.411 19.5928 138.763 19.9492C139.114 20.3057 139.607 20.4839 140.242 20.4839C140.735 20.4839 141.202 20.4326 141.641 20.3301C142.081 20.2275 142.54 20.064 143.018 19.8394V21.5679C142.627 21.7632 142.21 21.9072 141.766 22C141.321 22.0977 140.779 22.1465 140.14 22.1465ZM147.53 22H145.296V10.6035H147.53V22ZM152.115 22H149.881V10.6035H152.115V22ZM154.371 11.6948C154.371 10.9673 154.776 10.6035 155.586 10.6035C156.397 10.6035 156.802 10.9673 156.802 11.6948C156.802 12.0415 156.7 12.3125 156.495 12.5078C156.294 12.6982 155.992 12.7935 155.586 12.7935C154.776 12.7935 154.371 12.4272 154.371 11.6948ZM156.7 22H154.466V13.8115H156.7V22ZM166.609 22H164.375V17.2173C164.375 16.6265 164.271 16.1846 164.061 15.8916C163.851 15.5938 163.516 15.4448 163.057 15.4448C162.432 15.4448 161.98 15.6548 161.702 16.0747C161.424 16.4897 161.285 17.1807 161.285 18.1475V22H159.051V13.8115H160.757L161.058 14.8589H161.182C161.431 14.4634 161.773 14.1655 162.208 13.9653C162.647 13.7603 163.145 13.6577 163.702 13.6577C164.654 13.6577 165.376 13.9165 165.87 14.4341C166.363 14.9468 166.609 15.689 166.609 16.6606V22ZM176.036 13.8115V14.9468L174.754 15.2764C174.988 15.6426 175.105 16.0527 175.105 16.5068C175.105 17.3857 174.798 18.0718 174.183 18.5649C173.572 19.0532 172.723 19.2974 171.634 19.2974L171.231 19.2754L170.901 19.2388C170.672 19.4146 170.557 19.6099 170.557 19.8247C170.557 20.147 170.967 20.3081 171.788 20.3081H173.179C174.078 20.3081 174.761 20.501 175.23 20.8867C175.704 21.2725 175.94 21.8389 175.94 22.5859C175.94 23.543 175.54 24.2852 174.739 24.8125C173.943 25.3398 172.798 25.6035 171.304 25.6035C170.162 25.6035 169.288 25.4033 168.682 25.0029C168.082 24.6074 167.781 24.0508 167.781 23.333C167.781 22.8398 167.935 22.4272 168.243 22.0952C168.55 21.7632 169.002 21.5264 169.598 21.3848C169.368 21.2871 169.168 21.1284 168.997 20.9087C168.826 20.6841 168.741 20.4473 168.741 20.1982C168.741 19.8857 168.831 19.627 169.012 19.4219C169.192 19.2119 169.454 19.0068 169.795 18.8066C169.366 18.6211 169.024 18.3232 168.77 17.9131C168.521 17.5029 168.396 17.0195 168.396 16.4629C168.396 15.5693 168.687 14.8784 169.268 14.3901C169.849 13.9019 170.679 13.6577 171.758 13.6577C171.988 13.6577 172.259 13.6797 172.571 13.7236C172.889 13.7627 173.091 13.792 173.179 13.8115H176.036ZM169.715 23.1572C169.715 23.4648 169.861 23.7065 170.154 23.8823C170.452 24.0581 170.867 24.146 171.399 24.146C172.2 24.146 172.828 24.0361 173.282 23.8164C173.736 23.5967 173.963 23.2964 173.963 22.9155C173.963 22.6079 173.829 22.3955 173.56 22.2783C173.292 22.1611 172.876 22.1025 172.315 22.1025H171.158C170.748 22.1025 170.403 22.1978 170.125 22.3882C169.852 22.5835 169.715 22.8398 169.715 23.1572ZM170.528 16.4922C170.528 16.9365 170.628 17.2881 170.828 17.5469C171.033 17.8057 171.343 17.9351 171.758 17.9351C172.178 17.9351 172.486 17.8057 172.681 17.5469C172.876 17.2881 172.974 16.9365 172.974 16.4922C172.974 15.5059 172.569 15.0127 171.758 15.0127C170.938 15.0127 170.528 15.5059 170.528 16.4922Z" fill="#3D3D3D"/>
</svg>
