<svg width="140" height="140" viewBox="0 0 140 140" fill="none" xmlns="http://www.w3.org/2000/svg">
<path fill-rule="evenodd" clip-rule="evenodd" d="M138.904 65.3867C139.561 66.7637 139.901 68.2705 139.899 69.7963C139.902 71.3224 139.562 72.8297 138.906 74.2074C138.249 75.5852 137.293 76.7982 136.105 77.7573L127.16 84.9887L131.218 95.9982C131.753 97.4228 131.966 98.9483 131.841 100.465C131.716 101.982 131.256 103.452 130.495 104.769C129.733 106.087 128.689 107.219 127.438 108.085C126.186 108.951 124.758 109.529 123.257 109.776L111.903 111.555L109.909 123.12C109.66 124.621 109.082 126.048 108.216 127.299C107.35 128.55 106.217 129.593 104.9 130.354C103.582 131.115 102.112 131.574 100.596 131.699C99.0798 131.824 97.5546 131.611 96.1304 131.076L85.3958 126.948L77.8895 135.963C76.9238 137.139 75.7094 138.087 74.3337 138.737C72.958 139.387 71.4552 139.725 69.9335 139.725C68.4118 139.725 66.909 139.387 65.5333 138.737C64.1576 138.087 62.9431 137.139 61.9774 135.963L54.741 127.018L43.7365 131.076C42.3126 131.61 40.7879 131.822 39.2722 131.697C37.7565 131.572 36.2873 131.112 34.9704 130.352C33.6534 129.591 32.5214 128.548 31.6556 127.297C30.7899 126.047 30.212 124.62 29.9634 123.12L28.1643 111.76L16.605 109.761C15.1046 109.513 13.6779 108.935 12.4274 108.069C11.177 107.203 10.1339 106.071 9.37319 104.754C8.61245 103.437 8.15296 101.968 8.02774 100.453C7.90252 98.9368 8.11469 97.4122 8.64899 95.9882L12.7769 85.2536L3.76143 77.7473C2.58543 76.7816 1.63814 75.5672 0.987742 74.1915C0.33734 72.8158 0 71.313 0 69.7913C0 68.2696 0.33734 66.7668 0.987742 65.3911C1.63814 64.0154 2.58543 62.801 3.76143 61.8353L12.707 54.6039L8.64899 43.5943C8.11379 42.1698 7.90107 40.6443 8.02614 39.1276C8.15121 37.611 8.61096 36.1409 9.37231 34.8233C10.1336 33.5056 11.1776 32.3731 12.4292 31.5073C13.6807 30.6415 15.1085 30.064 16.61 29.8162L27.9694 28.0371L29.9584 16.4729C30.2062 14.9714 30.7837 13.5435 31.6495 12.292C32.5153 11.0405 33.6478 9.99648 34.9654 9.23514C36.2831 8.47379 37.7531 8.01404 39.2698 7.88897C40.7864 7.7639 42.3119 7.97662 43.7365 8.51182L54.4712 12.6398L61.9774 3.62426C62.9673 2.48633 64.1897 1.57396 65.5621 0.948746C66.9346 0.323527 68.4253 0 69.9335 0C71.4417 0 72.9323 0.323527 74.3048 0.948746C75.6773 1.57396 76.8997 2.48633 77.8895 3.62426L85.1259 12.5698L96.1304 8.51182C97.5544 7.97752 99.079 7.76535 100.595 7.89057C102.11 8.01579 103.58 8.47528 104.897 9.23602C106.214 9.99676 107.346 11.0398 108.211 12.2903C109.077 13.5407 109.655 14.9674 109.904 16.4679L111.703 27.8272L123.262 29.8262C124.763 30.0739 126.19 30.6514 127.441 31.5169C128.692 32.3824 129.735 33.5146 130.496 34.8318C131.257 36.149 131.716 37.6185 131.841 39.1345C131.966 40.6506 131.753 42.1754 131.218 43.5993L127.09 54.334L136.1 61.8403C137.288 62.7979 138.246 64.0098 138.904 65.3867ZM51.5822 90.3911C54.1649 92.3291 57.3087 93.3729 60.5377 93.3646C62.8249 93.3707 65.0833 92.8549 67.141 91.8564C69.1987 90.8578 71.0014 89.4029 72.4118 87.6025L101.367 50.381C102.183 49.3339 102.548 48.0059 102.384 46.6891C102.22 45.3723 101.54 44.1746 100.493 43.3595C99.4457 42.5444 98.1177 42.1786 96.8009 42.3426C95.4842 42.5066 94.2865 43.187 93.4713 44.2341L64.5257 81.4655C63.7159 82.493 62.5376 83.1647 61.2409 83.3383C59.9441 83.5118 58.6308 83.1735 57.5792 82.3951L45.4453 73.2946C44.3849 72.4993 43.0521 72.1579 41.74 72.3453C40.4279 72.5328 39.244 73.2337 38.4487 74.2941C37.6535 75.3544 37.312 76.6873 37.4995 77.9994C37.5923 78.649 37.8121 79.2741 38.1465 79.8388C38.4809 80.4035 38.9232 80.8968 39.4482 81.2906L51.5822 90.3911Z" fill="#C96F3B"/>
</svg>
