<svg width="43" height="43" viewBox="0 0 43 43" fill="none" xmlns="http://www.w3.org/2000/svg">
<circle cx="21.5" cy="21.5" r="21.5" fill="white"/>
<path d="M32 20C32 19.4696 31.7893 18.9609 31.4142 18.5858C31.0391 18.2107 30.5304 18 30 18H23.68L24.64 13.43C24.66 13.33 24.67 13.22 24.67 13.11C24.67 12.7 24.5 12.32 24.23 12.05L23.17 11L16.59 17.58C16.22 17.95 16 18.45 16 19V29C16 29.5304 16.2107 30.0391 16.5858 30.4142C16.9609 30.7893 17.4696 31 18 31H27C27.83 31 28.54 30.5 28.84 29.78L31.86 22.73C31.95 22.5 32 22.26 32 22V20ZM10 31H14V19H10V31Z" fill="#C96F3B"/>
</svg>
