<svg width="25" height="39" viewBox="0 0 25 38" fill="none" xmlns="http://www.w3.org/2000/svg">
<circle cx="15" cy="15" r="15" fill="#FD5E0D"/>
<path d="M7.5 22.375V14.1719L5.925 15.375L4.875 13.975L14.5 6.625L24.125 13.975L23.075 15.3531L21.5 14.1719V22.375H7.5ZM11 17.125C10.7521 17.125 10.5443 17.0411 10.3766 16.8734C10.2089 16.7057 10.125 16.4979 10.125 16.25C10.125 16.0021 10.2089 15.7943 10.3766 15.6266C10.5443 15.4589 10.7521 15.375 11 15.375C11.2479 15.375 11.4557 15.4589 11.6234 15.6266C11.7911 15.7943 11.875 16.0021 11.875 16.25C11.875 16.4979 11.7911 16.7057 11.6234 16.8734C11.4557 17.0411 11.2479 17.125 11 17.125ZM14.5 17.125C14.2521 17.125 14.0443 17.0411 13.8766 16.8734C13.7089 16.7057 13.625 16.4979 13.625 16.25C13.625 16.0021 13.7089 15.7943 13.8766 15.6266C14.0443 15.4589 14.2521 15.375 14.5 15.375C14.7479 15.375 14.9557 15.4589 15.1234 15.6266C15.2911 15.7943 15.375 16.0021 15.375 16.25C15.375 16.4979 15.2911 16.7057 15.1234 16.8734C14.9557 17.0411 14.7479 17.125 14.5 17.125ZM18 17.125C17.7521 17.125 17.5443 17.0411 17.3766 16.8734C17.2089 16.7057 17.125 16.4979 17.125 16.25C17.125 16.0021 17.2089 15.7943 17.3766 15.6266C17.5443 15.4589 17.7521 15.375 18 15.375C18.2479 15.375 18.4557 15.4589 18.6234 15.6266C18.7911 15.7943 18.875 16.0021 18.875 16.25C18.875 16.4979 18.7911 16.7057 18.6234 16.8734C18.4557 17.0411 18.2479 17.125 18 17.125Z" fill="white"/>
<path d="M15 30V38" stroke="#FD5E0D"/>
</svg>
