<svg width="43" height="43" viewBox="0 0 43 43" fill="none" xmlns="http://www.w3.org/2000/svg">
<circle cx="21.5" cy="21.5" r="21.5" fill="white"/>
<path d="M14.5 13.25C14.1685 13.25 13.8505 13.3817 13.6161 13.6161C13.3817 13.8505 13.25 14.1685 13.25 14.5V29.5C13.25 29.8315 13.3817 30.1495 13.6161 30.3839C13.8505 30.6183 14.1685 30.75 14.5 30.75H29.5C29.8315 30.75 30.1495 30.6183 30.3839 30.3839C30.6183 30.1495 30.75 29.8315 30.75 29.5V14.5C30.75 14.1685 30.6183 13.8505 30.3839 13.6161C30.1495 13.3817 29.8315 13.25 29.5 13.25H23.875C23.5435 13.25 23.2255 13.3817 22.9911 13.6161C22.7567 13.8505 22.625 14.1685 22.625 14.5V23.6163L25.9325 20.3075C26.0499 20.1901 26.209 20.1242 26.375 20.1242C26.541 20.1242 26.7001 20.1901 26.8175 20.3075C26.9349 20.4249 27.0008 20.584 27.0008 20.75C27.0008 20.916 26.9349 21.0751 26.8175 21.1925L22.4425 25.5675C22.3844 25.6257 22.3155 25.6719 22.2395 25.7034C22.1636 25.7349 22.0822 25.7511 22 25.7511C21.9178 25.7511 21.8364 25.7349 21.7605 25.7034C21.6845 25.6719 21.6156 25.6257 21.5575 25.5675L17.1825 21.1925C17.1244 21.1344 17.0783 21.0654 17.0468 20.9895C17.0154 20.9136 16.9992 20.8322 16.9992 20.75C16.9992 20.6678 17.0154 20.5864 17.0468 20.5105C17.0783 20.4346 17.1244 20.3656 17.1825 20.3075C17.2406 20.2494 17.3096 20.2033 17.3855 20.1718C17.4614 20.1404 17.5428 20.1242 17.625 20.1242C17.7072 20.1242 17.7886 20.1404 17.8645 20.1718C17.9404 20.2033 18.0094 20.2494 18.0675 20.3075L21.375 23.6163V14.5C21.375 13.837 21.6384 13.2011 22.1072 12.7322C22.5761 12.2634 23.212 12 23.875 12H29.5C30.163 12 30.7989 12.2634 31.2678 12.7322C31.7366 13.2011 32 13.837 32 14.5V29.5C32 30.163 31.7366 30.7989 31.2678 31.2678C30.7989 31.7366 30.163 32 29.5 32H14.5C13.837 32 13.2011 31.7366 12.7322 31.2678C12.2634 30.7989 12 30.163 12 29.5V14.5C12 13.837 12.2634 13.2011 12.7322 12.7322C13.2011 12.2634 13.837 12 14.5 12H17.625C17.7908 12 17.9497 12.0658 18.0669 12.1831C18.1842 12.3003 18.25 12.4592 18.25 12.625C18.25 12.7908 18.1842 12.9497 18.0669 13.0669C17.9497 13.1842 17.7908 13.25 17.625 13.25H14.5Z" fill="#C96F3B" stroke="#C96F3B"/>
</svg>
