<svg width="1278" height="1258" viewBox="0 0 1278 1258" fill="none" xmlns="http://www.w3.org/2000/svg">
<g opacity="0.5">
<path d="M637.711 986.745C638.124 944.631 630.184 902.855 614.347 863.824C598.51 824.797 575.089 789.296 545.442 759.367C515.792 729.442 480.501 705.686 441.61 689.471C402.723 673.26 361.001 664.911 318.863 664.911C276.725 664.911 235.004 673.26 196.114 689.471C157.223 705.686 121.933 729.442 92.2842 759.367C62.6354 789.296 39.2151 824.797 23.3779 863.824C7.54058 902.855 -0.399884 944.631 0.0154937 986.745V1214.95H638.112L637.711 986.745Z" fill="#FFF1DC"/>
<path d="M1275.1 603.271C1275.51 561.158 1267.57 519.377 1251.73 480.35C1235.89 441.323 1212.48 405.819 1182.83 375.892C1153.18 345.966 1117.89 322.21 1079 305.997C1040.11 289.784 998.385 281.437 956.25 281.437C914.11 281.437 872.391 289.784 833.5 305.997C794.609 322.21 759.319 345.966 729.669 375.892C700.022 405.819 676.601 441.323 660.764 480.35C644.927 519.377 636.987 561.158 637.4 603.271V1216.13H1275.47L1275.1 603.271Z" fill="#FFF1DC"/>
<path d="M873.165 711.996C873.636 765.938 863.412 819.44 843.083 869.412C822.753 919.384 792.724 964.836 754.725 1003.14C716.725 1041.46 671.513 1071.86 621.694 1092.62C571.875 1113.37 518.436 1124.05 464.462 1124.05C410.491 1124.05 357.051 1113.37 307.231 1092.62C257.412 1071.86 212.198 1041.46 174.2 1003.14C136.201 964.836 106.171 919.384 85.8428 869.412C65.5141 819.44 55.2898 765.938 55.7596 711.996C55.7596 486.424 234.355 365.434 460.077 365.434C685.801 365.434 873.165 486.424 873.165 711.996Z" fill="#FFF1DC"/>
<path d="M1109.21 78.4233C1084.63 31.3208 1033.91 50.335 1033.91 50.335C1033.91 50.335 1030.82 5.80314 973.403 0.414722C922.956 -4.35434 901.889 33.5814 901.889 33.5814C901.889 33.5814 851.848 21.9994 820.801 55.0733C788.483 89.4476 800.571 117.938 800.571 117.938C770.825 125.928 776.836 147.915 776.836 147.915H1204.76C1204.76 90.9651 1146.51 54.3298 1109.21 78.4233Z" fill="#FFF1DC"/>
<path d="M144.684 300.774C147.782 240.666 203.554 246.116 203.554 246.116C212.85 203.504 258.335 217.873 258.335 217.873C269.675 184.149 301.001 194.74 301.001 194.74C308.561 163.06 366.379 131.132 415.365 157.578C465.995 184.923 456.697 241.749 456.697 241.749C456.697 241.749 503.176 261.414 485.64 300.774H144.684Z" fill="#FFF1DC"/>
<path d="M432.382 481.165C432.382 481.165 435.136 467.199 421.381 462.954C421.381 462.954 426.99 447.905 412.087 429.694C397.707 412.198 375.09 423.502 375.09 423.502C375.09 423.502 365.794 402.878 342.525 405.386C315.971 408.236 312.655 430.78 312.655 430.78C312.655 430.78 282.322 424.026 278.232 453.542C278.232 453.542 248.363 456.636 252.886 481.165H432.382Z" fill="white"/>
</g>
<path d="M303.76 985.227H38.5625V1214.82H303.76V985.227Z" fill="#FFF1DC"/>
<path d="M560.067 528.789H291.924V1109.16H560.067V528.789Z" fill="#FFF1DC"/>
<path d="M385.248 674.12H224.035V960.017H385.248V674.12Z" fill="#FFF1DC"/>
<path d="M1000.21 371.999H838.996V657.894H1000.21V371.999Z" fill="#FFF1DC"/>
<path d="M1135.02 427.094H973.805V712.99H1135.02V427.094Z" fill="#FFF1DC"/>
<path d="M387.356 796.042H166.186L120.918 880.184H432.591L387.356 796.042Z" fill="#C96F3B"/>
<g style="mix-blend-mode:overlay" opacity="0.3">
<path d="M153.267 820.074L146.791 832.086H406.721L400.278 820.074H153.267Z" fill="white"/>
<path d="M393.798 808.058L387.355 796.042H166.187L159.711 808.058H393.798Z" fill="white"/>
<path d="M127.394 868.168L120.918 880.184H432.591L426.117 868.168H127.394Z" fill="white"/>
<path d="M419.673 856.152L413.195 844.105H140.314L133.869 856.152H419.673Z" fill="white"/>
</g>
<path d="M432.591 1046.21H120.918V1211.3H432.591V1046.21Z" fill="#D57F00"/>
<path d="M432.591 903.038H120.918V1023.38H432.591V903.038Z" fill="#D57F00"/>
<g style="mix-blend-mode:multiply" opacity="0.5">
<path d="M432.439 903.038H121.076V910.717H432.439V903.038Z" fill="#D57F00"/>
</g>
<g style="mix-blend-mode:multiply" opacity="0.5">
<path d="M432.439 1046.21H121.076V1053.89H432.439V1046.21Z" fill="#D57F00"/>
</g>
<path d="M451.092 1023.38H102.422V1046.23H451.092V1023.38Z" fill="#FCDFB9"/>
<g style="mix-blend-mode:multiply" opacity="0.7">
<path d="M451.092 1034.81H102.422V1046.24H451.092V1034.81Z" fill="#FCDFB9"/>
</g>
<path d="M451.092 880.185H102.422V903.039H451.092V880.185Z" fill="#FCDFB9"/>
<g style="mix-blend-mode:multiply" opacity="0.7">
<path d="M451.092 891.615H102.422V903.042H451.092V891.615Z" fill="#FCDFB9"/>
</g>
<path opacity="0.8" d="M206.033 921.311H144.684V1004.27H206.033V921.311Z" fill="white"/>
<path d="M134.953 1004.28H215.761" stroke="#BF7113" stroke-width="1.46" stroke-linecap="round" stroke-linejoin="round"/>
<path opacity="0.8" d="M307.455 921.311H246.105V1004.27H307.455V921.311Z" fill="white"/>
<path d="M236.367 1004.28H317.175" stroke="#BF7113" stroke-width="1.46" stroke-linecap="round" stroke-linejoin="round"/>
<path opacity="0.8" d="M408.86 921.311H347.51V1004.27H408.86V921.311Z" fill="white"/>
<path d="M337.787 1004.28H418.564" stroke="#BF7113" stroke-width="1.46" stroke-linecap="round" stroke-linejoin="round"/>
<path d="M216.32 1070.36H144.684V1193.55H216.32V1070.36Z" fill="#BF7113"/>
<path d="M226.048 1193.58H134.953V1211.32H226.048V1193.58Z" fill="#FCDFB9"/>
<path opacity="0.8" d="M307.455 1070.36H246.105V1153.32H307.455V1070.36Z" fill="white"/>
<path d="M236.367 1153.32H317.175" stroke="#BF7113" stroke-width="1.46" stroke-linecap="round" stroke-linejoin="round"/>
<path opacity="0.8" d="M408.86 1070.36H347.51V1153.32H408.86V1070.36Z" fill="white"/>
<path d="M337.787 1153.32H418.564" stroke="#BF7113" stroke-width="1.46" stroke-linecap="round" stroke-linejoin="round"/>
<path d="M1190.63 546.565H913.166V482.37L1190.63 516.743V546.565Z" fill="#EB9D73"/>
<g style="mix-blend-mode:multiply" opacity="0.4">
<path d="M1190.63 540.308H913.166V546.595H1190.63V540.308Z" fill="#EB9D73"/>
</g>
<path d="M1223.82 546.568H879.949V659.878H1223.82V546.568Z" fill="#E4C390"/>
<path d="M1242.14 659.351H861.674V684.434H1242.14V659.351Z" fill="#C26027"/>
<g style="mix-blend-mode:multiply" opacity="0.9">
<path d="M1242.14 671.895H861.674V684.438H1242.14V671.895Z" fill="#C26027"/>
</g>
<path opacity="0.95" d="M1194.13 577.625H909.633V628.848H1194.13V577.625Z" fill="white"/>
<path d="M904.303 628.848H1199.46" stroke="#EB9D73" stroke-width="1.46" stroke-linecap="round" stroke-linejoin="round"/>
<path d="M1223.82 684.438H879.949V797.748H1223.82V684.438Z" fill="#E4C390"/>
<g style="mix-blend-mode:multiply" opacity="0.5">
<path d="M1223.82 684.438H879.949V692.117H1223.82V684.438Z" fill="#E4C390"/>
</g>
<path d="M1242.14 797.189H861.674V822.273H1242.14V797.189Z" fill="#C26027"/>
<g style="mix-blend-mode:multiply" opacity="0.9">
<path d="M1242.14 809.729H861.674V822.273H1242.14V809.729Z" fill="#C26027"/>
</g>
<path opacity="0.95" d="M1194.13 715.469H909.633V766.691H1194.13V715.469Z" fill="white"/>
<path d="M904.303 766.69H1199.46" stroke="#EB9D73" stroke-width="1.46" stroke-linecap="round" stroke-linejoin="round"/>
<path d="M1223.82 822.273H879.949V935.583H1223.82V822.273Z" fill="#E4C390"/>
<g style="mix-blend-mode:multiply" opacity="0.5">
<path d="M1223.82 822.273H879.949V829.953H1223.82V822.273Z" fill="#E4C390"/>
</g>
<path opacity="0.95" d="M1194.13 853.334H909.633V904.553H1194.13V853.334Z" fill="white"/>
<path d="M904.303 904.557H1199.46" stroke="#EB9D73" stroke-width="1.46" stroke-linecap="round" stroke-linejoin="round"/>
<path d="M1223.82 960.143H879.949V1073.46H1223.82V960.143Z" fill="#E4C390"/>
<g style="mix-blend-mode:multiply" opacity="0.5">
<path d="M1223.82 960.143H879.949V967.826H1223.82V960.143Z" fill="#E4C390"/>
</g>
<path d="M1242.14 1072.9H861.674V1097.98H1242.14V1072.9Z" fill="#C26027"/>
<g style="mix-blend-mode:multiply" opacity="0.9">
<path d="M1242.14 1085.44H861.674V1097.99H1242.14V1085.44Z" fill="#C26027"/>
</g>
<path opacity="0.95" d="M1194.13 991.173H909.633V1042.39H1194.13V991.173Z" fill="white"/>
<path d="M904.303 1042.39H1199.46" stroke="#EB9D73" stroke-width="1.46" stroke-linecap="round" stroke-linejoin="round"/>
<path d="M1223.82 1097.98H879.949V1211.3H1223.82V1097.98Z" fill="#E4C390"/>
<g style="mix-blend-mode:multiply" opacity="0.5">
<path d="M1223.82 1097.98H879.949V1105.66H1223.82V1097.98Z" fill="#E4C390"/>
</g>
<path opacity="0.95" d="M1077.57 1129.04H914.16V1180.27H1077.57V1129.04Z" fill="white"/>
<path d="M904.303 1180.27H1087.42" stroke="#EB9D73" stroke-width="1.46" stroke-linecap="round" stroke-linejoin="round"/>
<path d="M1179.76 1115.36H1125.16V1197.58H1179.76V1115.36Z" fill="#EB9D73"/>
<path d="M1194.13 1197.57H1110.79V1210.77H1194.13V1197.57Z" fill="#C26027"/>
<path d="M1242.14 935.063H861.674V960.147H1242.14V935.063Z" fill="#C26027"/>
<g style="mix-blend-mode:multiply" opacity="0.9">
<path d="M1242.14 947.603H861.674V960.146H1242.14V947.603Z" fill="#C26027"/>
</g>
<path d="M919.609 1170.05V255.871C919.609 231.363 899.731 211.494 875.208 211.494H451.987C427.468 211.494 407.586 231.363 407.586 255.871V1170.05C407.586 1194.56 427.468 1214.42 451.987 1214.42H875.208C899.731 1214.42 919.609 1194.56 919.609 1170.05Z" fill="#162E66"/>
<path d="M882.37 1170.05V255.871C882.37 231.363 862.489 211.494 837.969 211.494H414.749C390.226 211.494 370.348 231.363 370.348 255.871V1170.05C370.348 1194.56 390.226 1214.42 414.749 1214.42H837.969C862.489 1214.42 882.37 1194.56 882.37 1170.05Z" fill="#336699"/>
<mask id="mask0_3028_1491" style="mask-type:luminance" maskUnits="userSpaceOnUse" x="385" y="229" width="483" height="968">
<path d="M867.467 1154.13V271.818C867.467 248.473 848.531 229.547 825.175 229.547H427.548C404.189 229.547 385.252 248.473 385.252 271.818V1154.13C385.252 1177.47 404.189 1196.4 427.548 1196.4H825.175C848.531 1196.4 867.467 1177.47 867.467 1154.13Z" fill="white"/>
</mask>
<g mask="url(#mask0_3028_1491)">
<path d="M419.211 229.544H833.601C854.795 229.544 871.99 249.983 871.99 275.191V1147.34C871.99 1172.55 854.795 1192.96 833.601 1192.96H421.878C400.684 1192.96 383.488 1172.55 383.488 1147.34V275.191C383.488 249.983 397.864 229.544 419.211 229.544Z" fill="#FF9000"/>
<path opacity="0.7" d="M499.086 502.095H361.328V383.083H499.086V502.095ZM499.086 775.326H361.328V850.546H499.086V775.326ZM499.086 885.294H361.328V960.514H499.086V885.294ZM499.086 995.257H361.328V1070.48H499.086V995.257ZM499.086 536.931H361.328V740.67H499.086V536.931ZM757.188 383.175H533.852V502.187H757.188V383.175ZM533.852 536.747V699.98H692.37V820.227H885.03V536.747H533.852ZM885.03 1138.58V975.348H726.512V855.097H533.852V1138.58H885.03ZM1015.32 382.961H791.985V501.969H1015.32V382.961ZM658.717 725.002H533.852V820.323H658.717V725.002ZM885.187 855.066H760.349V950.387H885.187V855.066Z" fill="white"/>
<path d="M785.973 931.186C800.315 931.186 811.939 919.567 811.939 905.234C811.939 890.9 800.315 879.282 785.973 879.282C771.632 879.282 760.008 890.9 760.008 905.234C760.008 919.567 771.632 931.186 785.973 931.186Z" fill="white"/>
<path d="M785.967 870.918C781.52 870.914 777.12 871.786 773.011 873.484C768.901 875.182 765.167 877.672 762.021 880.815C758.876 883.955 756.381 887.684 754.679 891.787C752.98 895.894 752.104 900.292 752.104 904.736C752.104 925.827 770.692 949.175 780.361 959.798C781.065 960.586 781.93 961.217 782.898 961.646C783.862 962.078 784.911 962.303 785.967 962.303C787.027 962.303 788.071 962.078 789.039 961.646C790.007 961.217 790.872 960.586 791.576 959.798C801.18 949.205 819.803 926.011 819.803 904.706C819.795 895.741 816.225 887.148 809.881 880.815C803.537 874.478 794.936 870.918 785.967 870.918ZM785.967 929.261C781.211 929.269 776.562 927.866 772.601 925.227C768.645 922.592 765.557 918.84 763.732 914.45C761.907 910.06 761.428 905.226 762.35 900.564C763.276 895.898 765.565 891.615 768.924 888.25C772.287 884.888 776.569 882.594 781.233 881.664C785.902 880.735 790.734 881.209 795.131 883.026C799.527 884.846 803.285 887.925 805.929 891.879C808.569 895.829 809.981 900.476 809.981 905.233C809.985 908.385 809.369 911.509 808.163 914.427C806.958 917.341 805.19 919.991 802.959 922.221C800.729 924.454 798.081 926.225 795.165 927.433C792.25 928.642 789.123 929.261 785.967 929.261Z" fill="#C96F3B"/>
<path d="M785.971 891.921L770.264 904.553H774.477V918.584L782.037 918.553V908.641H789.908V918.553L797.435 918.523V904.553H801.651L785.971 891.921Z" fill="#C96F3B"/>
<path d="M432.837 1021.15C447.178 1021.15 458.802 1009.53 458.802 995.196C458.802 980.862 447.178 969.244 432.837 969.244C418.496 969.244 406.871 980.862 406.871 995.196C406.871 1009.53 418.496 1021.15 432.837 1021.15Z" fill="white"/>
<path d="M432.844 961.007C428.402 961.007 424.002 961.883 419.896 963.581C415.79 965.282 412.059 967.772 408.918 970.912C405.777 974.052 403.286 977.78 401.583 981.884C399.884 985.987 399.008 990.385 399.008 994.825C399.008 1015.91 417.6 1039.26 427.265 1049.88C427.969 1050.67 428.83 1051.3 429.795 1051.73C430.759 1052.16 431.803 1052.39 432.86 1052.39C433.916 1052.39 434.96 1052.16 435.924 1051.73C436.889 1051.3 437.75 1050.67 438.454 1049.88C448.088 1039.29 466.711 1016.1 466.711 994.795C466.707 990.351 465.827 985.957 464.125 981.853C462.418 977.753 459.923 974.029 456.778 970.889C453.633 967.753 449.902 965.263 445.796 963.569C441.687 961.875 437.287 961.003 432.844 961.007ZM432.844 1019.35C428.088 1019.35 423.439 1017.94 419.483 1015.3C415.53 1012.66 412.446 1008.9 410.628 1004.51C408.807 1000.11 408.333 995.284 409.266 990.618C410.196 985.957 412.488 981.677 415.855 978.316C419.219 974.958 423.508 972.671 428.172 971.746C432.84 970.824 437.673 971.302 442.066 973.126C446.458 974.95 450.212 978.036 452.852 981.991C455.489 985.949 456.893 990.595 456.889 995.349C456.847 1001.69 454.295 1007.76 449.791 1012.23C445.284 1016.7 439.192 1019.21 432.844 1019.2V1019.35Z" fill="#C96F3B"/>
<path d="M432.841 981.85L417.16 994.485H421.377V1008.51L428.903 1008.48V998.573H436.774V1008.48L444.304 1008.45V994.485H448.548L432.841 981.85Z" fill="#C96F3B"/>
<path d="M451.428 456.877C465.77 456.877 477.394 445.259 477.394 430.925C477.394 416.596 465.77 404.978 451.428 404.978C437.087 404.978 425.463 416.596 425.463 430.925C425.463 445.259 437.087 456.877 451.428 456.877Z" fill="white"/>
<path d="M451.428 396.613C442.455 396.613 433.85 400.178 427.506 406.518C421.158 412.859 417.596 421.46 417.596 430.432C417.596 451.519 436.184 474.839 445.853 485.49C446.557 486.274 447.422 486.901 448.386 487.329C449.347 487.758 450.391 487.98 451.444 487.98C452.5 487.98 453.544 487.758 454.505 487.329C455.469 486.901 456.334 486.274 457.038 485.49C466.672 474.9 485.265 451.706 485.265 430.401C485.257 421.437 481.687 412.844 475.343 406.507C468.999 400.174 460.397 396.613 451.428 396.613ZM451.428 454.957C446.676 454.957 442.027 453.549 438.07 450.907C434.118 448.268 431.038 444.513 429.216 440.122C427.395 435.732 426.921 430.898 427.846 426.236C428.776 421.574 431.064 417.295 434.428 413.934C437.791 410.572 442.077 408.285 446.737 407.356C451.401 406.43 456.238 406.904 460.631 408.725C465.023 410.541 468.781 413.624 471.421 417.574C474.065 421.529 475.473 426.171 475.473 430.925C475.465 437.296 472.929 443.404 468.421 447.909C463.914 452.414 457.803 454.949 451.428 454.957Z" fill="#C96F3B"/>
<path d="M451.432 417.613L435.756 430.218H439.938V444.276L447.499 444.246V434.337H455.37V444.215H462.896V430.218H467.113L451.432 417.613Z" fill="#C96F3B"/>
<path d="M867.464 270.453H385.252V352.983H867.464V270.453Z" fill="white"/>
<path d="M877.348 221.585H375.334V278.194H877.348V221.585Z" fill="#162E66"/>
<path d="M626.342 264.041C630.945 264.041 634.675 260.311 634.675 255.71C634.675 251.11 630.945 247.38 626.342 247.38C621.738 247.38 618.008 251.11 618.008 255.71C618.008 260.311 621.738 264.041 626.342 264.041Z" fill="#336699"/>
<path d="M877.348 1129.01H375.334V1201.75H877.348V1129.01Z" fill="#162E66"/>
<path d="M582.928 1159.39H672.472" stroke="#336699" stroke-width="2" stroke-linecap="round" stroke-linejoin="round"/>
<path d="M826.774 300.737H727.006C719.047 300.737 712.596 307.184 712.596 315.137V318.296C712.596 326.249 719.047 332.696 727.006 332.696H826.774C834.733 332.696 841.184 326.249 841.184 318.296V315.137C841.184 307.184 834.733 300.737 826.774 300.737Z" fill="#C96F3B"/>
<path d="M751.322 315.241C751.207 314.277 750.744 313.528 749.929 312.995C749.118 312.462 748.12 312.195 746.941 312.195C746.076 312.195 745.319 312.335 744.672 312.614C744.029 312.893 743.528 313.277 743.168 313.766C742.812 314.255 742.633 314.81 742.633 315.432C742.633 315.952 742.759 316.4 743.004 316.774C743.26 317.142 743.581 317.45 743.976 317.698C744.37 317.939 744.783 318.139 745.215 318.297C745.648 318.45 746.046 318.573 746.405 318.669L748.387 319.202C748.896 319.335 749.459 319.519 750.082 319.754C750.71 319.989 751.311 320.309 751.885 320.715C752.462 321.115 752.937 321.629 753.312 322.258C753.687 322.886 753.874 323.657 753.874 324.571C753.874 325.625 753.599 326.576 753.044 327.427C752.497 328.277 751.697 328.953 750.645 329.455C749.596 329.956 748.322 330.207 746.826 330.207C745.43 330.207 744.217 329.982 743.195 329.531C742.181 329.08 741.381 328.452 740.796 327.646C740.218 326.84 739.889 325.904 739.816 324.838H742.254C742.315 325.574 742.564 326.183 742.996 326.666C743.432 327.141 743.987 327.497 744.653 327.732C745.326 327.96 746.049 328.074 746.826 328.074C747.725 328.074 748.537 327.928 749.252 327.637C749.971 327.338 750.542 326.926 750.959 326.399C751.38 325.866 751.586 325.244 751.586 324.533C751.586 323.886 751.406 323.359 751.043 322.953C750.683 322.546 750.205 322.216 749.616 321.962C749.026 321.708 748.387 321.487 747.702 321.296L745.3 320.611C743.777 320.173 742.571 319.548 741.68 318.735C740.792 317.923 740.348 316.86 740.348 315.546C740.348 314.455 740.643 313.502 741.232 312.69C741.829 311.871 742.633 311.237 743.635 310.786C744.645 310.329 745.77 310.101 747.014 310.101C748.273 310.101 749.39 310.326 750.369 310.776C751.345 311.221 752.122 311.83 752.692 312.604C753.27 313.379 753.576 314.258 753.607 315.241H751.322ZM757.758 329.864V310.367H769.532V312.462H760.119V319.049H768.92V321.144H760.119V327.77H769.681V329.864H757.758ZM774.586 329.864H772.111L779.274 310.367H781.715L788.878 329.864H786.398L780.571 313.451H780.418L774.586 329.864ZM775.501 322.248H785.484V324.343H775.501V322.248ZM740.654 360.459V340.962H747.243C748.77 340.962 750.017 341.222 750.997 341.742C751.977 342.256 752.7 342.964 753.17 343.865C753.637 344.766 753.874 345.791 753.874 346.94C753.874 348.089 753.637 349.108 753.17 349.996C752.7 350.884 751.977 351.583 751.005 352.09C750.037 352.592 748.793 352.842 747.282 352.842H741.948V350.71H747.205C748.246 350.71 749.084 350.558 749.719 350.253C750.362 349.948 750.825 349.517 751.112 348.959C751.403 348.394 751.548 347.721 751.548 346.94C751.548 346.159 751.403 345.477 751.112 344.893C750.821 344.309 750.354 343.859 749.711 343.541C749.069 343.218 748.223 343.056 747.167 343.056H743.015V360.459H740.654ZM749.834 351.7L754.636 360.459H751.892L747.167 351.7H749.834ZM773.507 347.054H771.146C771.005 346.375 770.76 345.779 770.412 345.265C770.067 344.751 769.65 344.319 769.153 343.97C768.667 343.614 768.124 343.348 767.527 343.17C766.93 342.993 766.306 342.903 765.66 342.903C764.477 342.903 763.406 343.202 762.449 343.798C761.496 344.395 760.739 345.274 760.173 346.436C759.614 347.597 759.335 349.022 759.335 350.71C759.335 352.398 759.614 353.823 760.173 354.984C760.739 356.146 761.496 357.025 762.449 357.622C763.406 358.218 764.477 358.517 765.66 358.517C766.306 358.517 766.93 358.427 767.527 358.25C768.124 358.072 768.667 357.809 769.153 357.46C769.65 357.104 770.067 356.669 770.412 356.155C770.76 355.635 771.005 355.038 771.146 354.366H773.507C773.328 355.362 773.006 356.254 772.535 357.041C772.065 357.828 771.483 358.497 770.783 359.05C770.083 359.595 769.298 360.011 768.43 360.297C767.565 360.582 766.643 360.725 765.66 360.725C763.995 360.725 762.514 360.319 761.221 359.506C759.924 358.694 758.906 357.539 758.164 356.041C757.418 354.543 757.046 352.766 757.046 350.71C757.046 348.654 757.418 346.877 758.164 345.379C758.906 343.881 759.924 342.726 761.221 341.913C762.514 341.101 763.995 340.695 765.66 340.695C766.643 340.695 767.565 340.838 768.43 341.123C769.298 341.409 770.083 341.828 770.783 342.38C771.483 342.926 772.065 343.592 772.535 344.379C773.006 345.16 773.328 346.052 773.507 347.054ZM777.326 360.459V340.962H779.687V349.644H790.087V340.962H792.452V360.459H790.087V351.738H779.687V360.459H777.326Z" fill="white"/>
<path d="M679.727 332.727H492.951C488.708 332.719 484.64 331.028 481.644 328.027C478.645 325.025 476.961 320.957 476.961 316.717C476.961 312.479 478.648 308.414 481.644 305.417C484.644 302.421 488.712 300.737 492.951 300.737H679.727C683.97 300.737 688.038 302.42 691.041 305.416C694.045 308.412 695.736 312.476 695.744 316.717C695.736 320.961 694.045 325.028 691.045 328.029C688.041 331.03 683.97 332.719 679.727 332.727Z" fill="white" stroke="#FFA766" stroke-width="0.7" stroke-linecap="round" stroke-linejoin="round"/>
<path d="M516.664 326.285C515.895 326.285 515.195 326.097 514.56 325.723C513.925 325.342 513.416 324.835 513.037 324.2C512.662 323.565 512.475 322.864 512.475 322.096C512.475 321.322 512.662 320.62 513.037 319.992C513.416 319.357 513.925 318.853 514.56 318.478C515.195 318.098 515.895 317.907 516.664 317.907C517.441 317.907 518.141 318.098 518.769 318.478C519.404 318.853 519.909 319.357 520.284 319.992C520.667 320.62 520.858 321.322 520.858 322.096C520.858 322.864 520.667 323.565 520.284 324.2C519.909 324.835 519.404 325.342 518.769 325.723C518.141 326.097 517.441 326.285 516.664 326.285ZM531.752 326.285C530.986 326.285 530.282 326.097 529.647 325.723C529.012 325.342 528.503 324.835 528.124 324.2C527.749 323.565 527.562 322.864 527.562 322.096C527.562 321.322 527.749 320.62 528.124 319.992C528.503 319.357 529.012 318.853 529.647 318.478C530.282 318.098 530.986 317.907 531.752 317.907C532.528 317.907 533.229 318.098 533.856 318.478C534.491 318.853 534.997 319.357 535.372 319.992C535.754 320.62 535.945 321.322 535.945 322.096C535.945 322.864 535.754 323.565 535.372 324.2C534.997 324.835 534.491 325.342 533.856 325.723C533.229 326.097 532.528 326.285 531.752 326.285ZM546.839 326.285C546.074 326.285 545.37 326.097 544.735 325.723C544.099 325.342 543.594 324.835 543.212 324.2C542.837 323.565 542.649 322.864 542.649 322.096C542.649 321.322 542.837 320.62 543.212 319.992C543.594 319.357 544.099 318.853 544.735 318.478C545.37 318.098 546.074 317.907 546.839 317.907C547.616 317.907 548.316 318.098 548.947 318.478C549.583 318.853 550.084 319.357 550.459 319.992C550.841 320.62 551.033 321.322 551.033 322.096C551.033 322.864 550.841 323.565 550.459 324.2C550.084 324.835 549.583 325.342 548.947 325.723C548.316 326.097 547.616 326.285 546.839 326.285ZM561.93 326.285C561.161 326.285 560.457 326.097 559.822 325.723C559.187 325.342 558.682 324.835 558.299 324.2C557.924 323.565 557.736 322.864 557.736 322.096C557.736 321.322 557.924 320.62 558.299 319.992C558.682 319.357 559.187 318.853 559.822 318.478C560.457 318.098 561.161 317.907 561.93 317.907C562.703 317.907 563.403 318.098 564.035 318.478C564.67 318.853 565.175 319.357 565.55 319.992C565.929 320.62 566.12 321.322 566.12 322.096C566.12 322.864 565.929 323.565 565.55 324.2C565.175 324.835 564.67 325.342 564.035 325.723C563.403 326.097 562.703 326.285 561.93 326.285ZM577.017 326.285C576.248 326.285 575.548 326.097 574.913 325.723C574.278 325.342 573.769 324.835 573.386 324.2C573.011 323.565 572.824 322.864 572.824 322.096C572.824 321.322 573.011 320.62 573.386 319.992C573.769 319.357 574.278 318.853 574.913 318.478C575.548 318.098 576.248 317.907 577.017 317.907C577.79 317.907 578.494 318.098 579.122 318.478C579.757 318.853 580.262 319.357 580.637 319.992C581.016 320.62 581.207 321.322 581.207 322.096C581.207 322.864 581.016 323.565 580.637 324.2C580.262 324.835 579.757 325.342 579.122 325.723C578.494 326.097 577.79 326.285 577.017 326.285ZM592.105 326.285C591.336 326.285 590.635 326.097 590 325.723C589.365 325.342 588.856 324.835 588.474 324.2C588.099 323.565 587.915 322.864 587.915 322.096C587.915 321.322 588.099 320.62 588.474 319.992C588.856 319.357 589.365 318.853 590 318.478C590.635 318.098 591.336 317.907 592.105 317.907C592.878 317.907 593.582 318.098 594.209 318.478C594.844 318.853 595.349 319.357 595.724 319.992C596.103 320.62 596.295 321.322 596.295 322.096C596.295 322.864 596.103 323.565 595.724 324.2C595.349 324.835 594.844 325.342 594.209 325.723C593.582 326.097 592.878 326.285 592.105 326.285ZM516.664 356.879C515.895 356.879 515.195 356.692 514.56 356.317C513.925 355.936 513.416 355.429 513.037 354.794C512.662 354.16 512.475 353.458 512.475 352.69C512.475 351.916 512.662 351.215 513.037 350.586C513.416 349.952 513.925 349.447 514.56 349.073C515.195 348.692 515.895 348.502 516.664 348.502C517.441 348.502 518.141 348.692 518.769 349.073C519.404 349.447 519.909 349.952 520.284 350.586C520.667 351.215 520.858 351.916 520.858 352.69C520.858 353.458 520.667 354.16 520.284 354.794C519.909 355.429 519.404 355.936 518.769 356.317C518.141 356.692 517.441 356.879 516.664 356.879ZM531.752 356.879C530.986 356.879 530.282 356.692 529.647 356.317C529.012 355.936 528.503 355.429 528.124 354.794C527.749 354.16 527.562 353.458 527.562 352.69C527.562 351.916 527.749 351.215 528.124 350.586C528.503 349.952 529.012 349.447 529.647 349.073C530.282 348.692 530.986 348.502 531.752 348.502C532.528 348.502 533.229 348.692 533.856 349.073C534.491 349.447 534.997 349.952 535.372 350.586C535.754 351.215 535.945 351.916 535.945 352.69C535.945 353.458 535.754 354.16 535.372 354.794C534.997 355.429 534.491 355.936 533.856 356.317C533.229 356.692 532.528 356.879 531.752 356.879ZM546.839 356.879C546.074 356.879 545.37 356.692 544.735 356.317C544.099 355.936 543.594 355.429 543.212 354.794C542.837 354.16 542.649 353.458 542.649 352.69C542.649 351.916 542.837 351.215 543.212 350.586C543.594 349.952 544.099 349.447 544.735 349.073C545.37 348.692 546.074 348.502 546.839 348.502C547.616 348.502 548.316 348.692 548.947 349.073C549.583 349.447 550.084 349.952 550.459 350.586C550.841 351.215 551.033 351.916 551.033 352.69C551.033 353.458 550.841 354.16 550.459 354.794C550.084 355.429 549.583 355.936 548.947 356.317C548.316 356.692 547.616 356.879 546.839 356.879Z" fill="#C96F3B"/>
<path d="M414.279 303.468H452.604" stroke="#C96F3B" stroke-width="0.64" stroke-linecap="round" stroke-linejoin="round"/>
<path d="M414.279 316.535H452.604" stroke="#C96F3B" stroke-width="0.64" stroke-linecap="round" stroke-linejoin="round"/>
<path d="M414.279 329.633H452.604" stroke="#C96F3B" stroke-width="0.64" stroke-linecap="round" stroke-linejoin="round"/>
<path d="M424.843 307.06C426.829 307.06 428.436 305.451 428.436 303.467C428.436 301.483 426.829 299.875 424.843 299.875C422.857 299.875 421.25 301.483 421.25 303.467C421.25 305.451 422.857 307.06 424.843 307.06Z" fill="#C96F3B"/>
<path d="M445.643 316.875C445.643 317.585 445.429 318.28 445.035 318.87C444.64 319.461 444.078 319.922 443.424 320.193C442.766 320.465 442.042 320.537 441.346 320.398C440.65 320.259 440.007 319.917 439.506 319.415C439.004 318.912 438.66 318.272 438.522 317.575C438.384 316.879 438.453 316.157 438.725 315.5C438.997 314.844 439.46 314.283 440.049 313.888C440.642 313.493 441.335 313.282 442.046 313.282C442.999 313.282 443.913 313.661 444.587 314.335C445.264 315.008 445.643 315.922 445.643 316.875Z" fill="#C96F3B"/>
<path d="M432.094 330.001C432.094 330.712 431.88 331.406 431.486 331.997C431.092 332.588 430.529 333.048 429.875 333.32C429.217 333.592 428.494 333.663 427.797 333.525C427.101 333.386 426.458 333.044 425.957 332.541C425.455 332.039 425.111 331.399 424.973 330.702C424.836 330.005 424.904 329.283 425.176 328.626C425.448 327.97 425.911 327.409 426.5 327.015C427.093 326.62 427.786 326.409 428.497 326.409C429.45 326.409 430.365 326.787 431.038 327.461C431.715 328.135 432.094 329.049 432.094 330.001Z" fill="#C96F3B"/>
<g style="mix-blend-mode:soft-light" opacity="0.6">
<path d="M379.451 539.906L380.846 971.382L725.548 225.178H524.829L379.451 539.906Z" fill="white"/>
<path d="M871.584 271.196C871.584 245.771 854.358 225.178 833.068 225.178H784.393L381.252 1097.95L381.438 1150.41C381.438 1175.8 398.667 1196.4 419.953 1196.4H470.239L871.584 327.341V271.196Z" fill="white"/>
<path d="M871.643 652.845V442.73L523.529 1196.4H620.573L871.643 652.845Z" fill="white"/>
</g>
<g style="mix-blend-mode:multiply" opacity="0.7">
<path d="M957.716 1116.01C959.285 1114.61 960.765 1113.12 962.147 1111.55C962.549 1111.11 962.923 1110.65 963.264 1110.22C964.37 1108.95 965.403 1107.63 966.36 1106.25L967.106 1105.17C968.189 1103.45 969.172 1101.67 970.048 1099.84L970.419 1098.91C971.154 1097.32 971.785 1095.69 972.309 1094.02C972.309 1093.61 972.589 1093.21 972.711 1092.78C973.867 1088.83 974.533 1084.75 974.697 1080.64C974.712 1080.35 974.712 1080.06 974.697 1079.77C974.697 1077.85 974.697 1075.9 974.51 1073.98C974.51 1073.83 974.51 1073.67 974.51 1073.52C974.303 1071.35 973.94 1069.2 973.427 1067.08C971.575 1059.3 967.852 1052.09 962.579 1046.08L818.223 880.184C811.637 872.658 802.929 867.3 793.24 864.814C783.552 862.325 773.336 862.825 763.938 866.248L748.973 848.752C787.394 815.439 811.469 768.595 816.187 717.98C820.909 667.366 805.902 616.881 774.304 577.051C742.702 537.217 696.943 511.109 646.557 504.164C596.172 497.219 545.048 509.969 503.838 539.764C462.629 569.559 434.513 614.097 425.345 664.1C416.177 714.102 426.665 765.711 454.628 808.173C482.591 850.634 525.867 880.677 575.441 892.039C625.019 903.401 677.069 895.206 720.746 869.159L737.54 888.792C736.626 890.452 735.799 892.158 735.061 893.902C733.369 898.051 732.233 902.403 731.682 906.847C731.697 906.962 731.697 907.076 731.682 907.187C731.185 911.513 731.257 915.888 731.9 920.194C731.885 920.461 731.885 920.733 731.9 921.001C732.206 922.848 732.619 924.68 733.14 926.481C733.14 926.791 733.293 927.131 733.389 927.441C734.012 929.445 734.758 931.41 735.619 933.326C735.619 933.636 735.929 933.912 736.052 934.191C736.828 935.793 737.689 937.353 738.623 938.868L739.522 940.294C740.705 942.088 741.998 943.805 743.394 945.434L887.598 1111.3C896.115 1121.14 908.172 1127.23 921.155 1128.24C927.74 1128.72 934.36 1127.9 940.627 1125.83C946.899 1123.75 952.696 1120.45 957.685 1116.13L957.716 1116.01ZM606.197 872.317C572.089 869.652 539.538 856.936 512.662 835.78C485.786 814.62 465.793 785.972 455.209 753.458C444.626 720.944 443.929 686.021 453.204 653.109C462.479 620.197 481.313 590.773 507.324 568.561C533.332 546.35 565.347 532.345 599.321 528.318C633.295 524.295 667.698 530.429 698.182 545.948C728.667 561.467 753.863 585.675 770.581 615.508C787.298 645.342 794.786 679.458 792.104 713.544C788.515 759.237 766.911 801.633 732.046 831.409C697.184 861.185 651.914 875.901 606.197 872.317Z" fill="white"/>
</g>
</g>
<path opacity="0.5" d="M789.861 801.205C860.683 730.421 860.683 615.658 789.861 544.87C719.036 474.086 604.211 474.086 533.389 544.87C462.563 615.658 462.563 730.421 533.389 801.205C604.211 871.989 719.036 871.989 789.861 801.205Z" fill="white"/>
<g style="mix-blend-mode:multiply" opacity="0.6">
<path d="M673.101 492.126C637.305 489.858 601.64 498.249 570.616 516.242C539.592 534.231 514.602 561.013 498.807 593.198C483.011 625.383 477.119 661.527 481.875 697.058C486.635 732.59 501.826 765.915 525.53 792.815C549.238 819.719 580.392 838.989 615.059 848.194C649.722 857.4 686.34 856.126 720.279 844.531C754.219 832.939 783.958 811.546 805.733 783.059C827.509 754.576 840.343 720.276 842.615 684.499C844.123 660.743 840.936 636.921 833.233 614.396C825.531 591.871 813.466 571.086 797.725 553.219C781.983 535.356 762.874 520.766 741.493 510.284C720.107 499.801 696.87 493.633 673.101 492.126ZM651.195 837.138C618.717 835.077 587.586 823.436 561.727 803.691C535.872 783.943 516.458 756.977 505.935 726.203C495.413 695.425 494.257 662.223 502.618 630.791C510.974 599.363 528.469 571.113 552.892 549.62C577.312 528.124 607.563 514.353 639.815 510.043C672.067 505.729 704.875 511.075 734.089 525.401C763.303 539.723 787.612 562.386 803.939 590.517C820.27 618.649 827.884 650.987 825.822 683.444C823.051 726.968 803.097 767.609 770.347 796.433C737.601 825.253 694.742 839.896 651.195 837.138Z" fill="#B2B2B2"/>
</g>
<path opacity="0.8" d="M683.198 525.076C653.199 523.137 623.346 530.644 597.836 546.538C631.362 532.285 669.037 531.218 703.317 543.547C737.601 555.873 765.958 580.689 782.714 613.02C799.469 645.354 803.387 682.817 793.688 717.916C783.984 753.012 761.378 783.155 730.388 802.303C760.379 789.622 785.205 767.188 800.847 738.644C816.489 710.095 822.025 677.107 816.565 645.025C811.105 612.939 794.962 583.637 770.756 561.866C746.551 540.094 715.699 527.133 683.198 525.076Z" fill="white"/>
<path d="M674.091 476.392C635.177 473.925 596.409 483.05 562.683 502.612C528.958 522.169 501.794 551.287 484.629 586.276C467.464 621.268 461.067 660.559 466.244 699.184C471.421 737.809 487.947 774.029 513.725 803.27C539.503 832.507 573.374 853.449 611.063 863.445C648.749 873.438 688.555 872.038 725.444 859.422C762.338 846.806 794.655 823.535 818.314 792.558C841.972 761.581 855.908 724.287 858.356 685.394C861.632 633.261 844.061 581.962 809.509 542.77C774.957 503.579 726.248 479.704 674.091 476.392ZM650.666 845.532C616.527 843.368 583.797 831.134 556.611 810.379C529.428 789.621 509.015 761.275 497.949 728.922C486.887 696.572 485.67 661.664 494.456 628.622C503.241 595.58 521.63 565.881 547.305 543.287C572.976 520.689 604.777 506.21 638.682 501.675C672.587 497.143 707.078 502.761 737.788 517.821C768.502 532.881 794.055 556.702 811.22 586.276C828.385 615.853 836.389 649.851 834.22 683.971C831.312 729.721 810.34 772.446 775.918 802.742C741.496 833.042 696.441 848.431 650.666 845.532Z" fill="#162E66"/>
<g style="mix-blend-mode:multiply" opacity="0.4">
<path d="M673.101 492.126C637.305 489.858 601.64 498.249 570.616 516.242C539.592 534.231 514.602 561.013 498.807 593.198C483.011 625.383 477.119 661.527 481.875 697.058C486.635 732.59 501.826 765.915 525.53 792.815C549.238 819.719 580.392 838.989 615.059 848.194C649.722 857.4 686.34 856.126 720.279 844.531C754.219 832.939 783.958 811.546 805.733 783.059C827.509 754.576 840.343 720.276 842.615 684.499C844.123 660.743 840.936 636.921 833.233 614.396C825.531 591.871 813.466 571.086 797.725 553.219C781.983 535.356 762.874 520.766 741.493 510.284C720.107 499.801 696.87 493.633 673.101 492.126ZM650.667 845.533C616.528 843.368 583.794 831.134 556.611 810.38C529.429 789.622 509.015 761.276 497.95 728.922C486.888 696.573 485.671 661.668 494.456 628.623C503.241 595.581 521.631 565.881 547.302 543.287C572.977 520.689 604.777 506.211 638.683 501.679C672.588 497.143 707.079 502.765 737.789 517.821C768.499 532.881 794.055 556.703 811.22 586.28C828.381 615.853 836.386 649.851 834.22 683.972C831.312 729.722 810.34 772.447 775.918 802.743C741.497 833.043 696.441 848.432 650.667 845.533Z" fill="#162E66"/>
</g>
<path d="M793.072 819.829C784.417 827.581 775.084 834.545 765.189 840.641L812.935 894.835C814.442 896.544 816.271 897.94 818.318 898.942C820.369 899.948 822.592 900.537 824.869 900.682C827.146 900.824 829.426 900.518 831.584 899.78C833.742 899.046 835.732 897.891 837.442 896.384C839.157 894.877 840.553 893.045 841.556 890.999C842.558 888.953 843.151 886.731 843.293 884.456C843.438 882.18 843.132 879.901 842.394 877.744C841.655 875.587 840.5 873.595 838.992 871.885L793.072 819.829Z" fill="#162E66"/>
<g style="mix-blend-mode:multiply" opacity="0.4">
<path d="M793.072 819.829C784.417 827.581 775.084 834.545 765.189 840.641L771.384 847.639C781.249 841.463 790.577 834.469 799.271 826.736L793.072 819.829Z" fill="#162E66"/>
</g>
<path d="M935.783 1080.24L789.069 916.539C784.692 911.701 781.313 906.048 779.128 899.903C776.94 893.757 775.991 887.241 776.331 880.724C776.668 874.211 778.294 867.829 781.107 861.943C783.919 856.057 787.868 850.784 792.727 846.428C797.564 842.068 803.215 838.703 809.356 836.527C815.494 834.347 822.006 833.402 828.511 833.743C835.02 834.079 841.394 835.701 847.276 838.504C853.153 841.307 858.425 845.242 862.784 850.084L1009.46 1013.78C1013.82 1018.62 1017.19 1024.26 1019.37 1030.4C1021.55 1036.54 1022.5 1043.04 1022.15 1049.55C1021.82 1056.05 1020.2 1062.42 1017.39 1068.3C1014.59 1074.18 1010.65 1079.44 1005.81 1083.8C1000.9 1088.21 995.16 1091.61 988.927 1093.78C982.69 1095.95 976.082 1096.85 969.493 1096.43C956.552 1095.63 944.446 1089.79 935.783 1080.14V1080.24Z" fill="#D57F00"/>
<g style="mix-blend-mode:overlay" opacity="0.3">
<path d="M968.75 1024.78C975.343 1025.2 981.959 1024.29 988.199 1022.13C994.44 1019.95 1000.18 1016.56 1005.09 1012.14C1005.62 1011.67 1006.09 1011.15 1006.58 1010.65L862.783 850.179C858.429 845.329 853.168 841.386 847.29 838.576C841.413 835.765 835.038 834.136 828.53 833.788C822.025 833.44 815.513 834.377 809.371 836.549C803.226 838.717 797.571 842.075 792.727 846.431L791.238 847.918L935.071 1008.39C943.699 1018.07 955.802 1023.96 968.75 1024.78Z" fill="white"/>
</g>
<g style="mix-blend-mode:multiply" opacity="0.5">
<path d="M1007.92 1053.36C1003.08 1057.72 997.426 1061.08 991.288 1063.26C985.147 1065.44 978.638 1066.38 972.13 1066.04C965.625 1065.7 959.246 1064.09 953.369 1061.28C947.488 1058.48 942.219 1054.55 937.861 1049.7L791.025 886.035C785.66 880.085 781.822 872.922 779.836 865.166C776.45 873.744 775.524 883.098 777.166 892.173C778.807 901.252 782.955 909.688 789.134 916.542L935.844 1080.24C943.267 1088.48 953.239 1094 964.171 1095.91C975.103 1097.82 986.356 1096.01 996.136 1090.76C1005.91 1085.52 1013.65 1077.15 1018.11 1067C1022.56 1056.84 1023.48 1045.49 1020.71 1034.75C1017.95 1041.86 1013.57 1048.23 1007.92 1053.36Z" fill="#D57F00"/>
</g>
<path d="M747.244 604.04H575.992C566.839 604.04 559.416 611.459 559.416 620.611V725.435C559.416 734.586 566.839 742.005 575.992 742.005H747.244C756.4 742.005 763.823 734.586 763.823 725.435V620.611C763.823 611.459 756.4 604.04 747.244 604.04Z" fill="#C96F3B"/>
<path d="M597.029 700.6L599.662 707.166C599.739 707.357 599.865 707.522 600.029 707.64C600.194 707.763 600.389 707.831 600.592 707.847L607.69 708.344C607.896 708.363 608.099 708.443 608.264 708.577C608.428 708.707 608.551 708.883 608.616 709.086C608.685 709.285 608.688 709.503 608.635 709.705C608.577 709.908 608.466 710.092 608.306 710.233L602.853 714.784C602.7 714.914 602.585 715.086 602.524 715.277C602.463 715.469 602.459 715.675 602.513 715.87L604.219 722.742C604.284 722.953 604.28 723.178 604.212 723.389C604.143 723.595 604.013 723.779 603.833 723.909C603.657 724.039 603.442 724.111 603.221 724.111C603.002 724.115 602.788 724.046 602.604 723.92L596.597 720.172C596.429 720.054 596.226 719.989 596.023 719.989C595.817 719.989 595.618 720.054 595.449 720.172L589.438 723.92C589.254 724.027 589.044 724.081 588.833 724.073C588.619 724.062 588.416 723.989 588.244 723.863C588.072 723.74 587.942 723.565 587.865 723.366C587.793 723.167 587.777 722.949 587.827 722.742L589.56 715.87C589.61 715.671 589.603 715.465 589.537 715.273C589.469 715.078 589.35 714.91 589.189 714.784L583.767 710.172C583.595 710.038 583.465 709.854 583.4 709.644C583.335 709.438 583.339 709.212 583.408 709.006C583.477 708.799 583.607 708.615 583.783 708.489C583.959 708.359 584.169 708.286 584.387 708.283L591.451 707.786C591.653 707.77 591.849 707.698 592.013 707.579C592.178 707.457 592.308 707.292 592.38 707.105L595.017 700.538C595.101 700.34 595.246 700.171 595.43 700.057C595.614 699.938 595.828 699.881 596.042 699.888C596.26 699.896 596.471 699.965 596.647 700.095C596.823 700.221 596.957 700.397 597.029 700.6ZM627.828 700.6L625.165 707.166C625.092 707.357 624.966 707.525 624.801 707.644C624.637 707.766 624.438 707.835 624.235 707.847L617.168 708.344C616.957 708.363 616.758 708.443 616.594 708.577C616.429 708.707 616.307 708.883 616.242 709.086C616.173 709.285 616.169 709.503 616.222 709.705C616.28 709.908 616.391 710.092 616.548 710.233L622.004 714.784C622.153 714.918 622.26 715.09 622.322 715.281C622.383 715.472 622.391 715.675 622.345 715.87L620.607 722.742C620.554 722.957 620.565 723.178 620.642 723.381C620.715 723.588 620.848 723.767 621.028 723.893C621.204 724.02 621.415 724.092 621.633 724.096C621.855 724.1 622.069 724.039 622.249 723.92L628.23 720.172C628.402 720.05 628.608 719.985 628.819 719.985C629.029 719.985 629.236 720.05 629.408 720.172L635.389 723.92C635.572 724.039 635.787 724.1 636.005 724.096C636.223 724.092 636.433 724.02 636.613 723.893C636.789 723.767 636.923 723.588 637 723.381C637.072 723.178 637.084 722.957 637.03 722.742L635.297 715.87C635.251 715.675 635.259 715.472 635.316 715.281C635.377 715.09 635.488 714.918 635.637 714.784L641.09 710.233C641.247 710.092 641.362 709.908 641.415 709.705C641.472 709.503 641.465 709.285 641.4 709.086C641.335 708.883 641.208 708.707 641.044 708.577C640.879 708.443 640.68 708.363 640.47 708.344L633.407 707.847C633.2 707.835 633.005 707.766 632.84 707.644C632.672 707.525 632.546 707.357 632.477 707.166L629.81 700.6C629.737 700.397 629.603 700.221 629.427 700.095C629.247 699.973 629.037 699.904 628.819 699.904C628.601 699.904 628.39 699.973 628.214 700.095C628.034 700.221 627.9 700.397 627.828 700.6ZM660.608 700.6L657.976 707.166C657.899 707.357 657.773 707.522 657.608 707.64C657.444 707.763 657.249 707.831 657.046 707.847L649.952 708.344C649.741 708.363 649.542 708.443 649.374 708.577C649.209 708.707 649.087 708.883 649.022 709.086C648.957 709.285 648.949 709.503 649.007 709.705C649.06 709.908 649.175 710.092 649.332 710.233L654.784 714.784C654.937 714.914 655.052 715.086 655.113 715.277C655.175 715.469 655.178 715.675 655.125 715.87L653.422 722.742C653.353 722.953 653.357 723.178 653.426 723.389C653.495 723.595 653.625 723.779 653.805 723.909C653.981 724.039 654.195 724.111 654.417 724.111C654.635 724.115 654.853 724.046 655.033 723.92L661.044 720.172C661.213 720.054 661.412 719.989 661.618 719.989C661.821 719.989 662.024 720.054 662.188 720.172L668.2 723.92C668.383 724.027 668.594 724.081 668.808 724.073C669.018 724.062 669.225 723.989 669.397 723.863C669.566 723.74 669.699 723.565 669.772 723.366C669.845 723.167 669.86 722.949 669.81 722.742L668.077 715.87C668.027 715.671 668.035 715.465 668.104 715.273C668.169 715.078 668.288 714.91 668.448 714.784L673.87 710.233C674.046 710.099 674.172 709.916 674.238 709.709C674.303 709.499 674.299 709.277 674.234 709.067C674.165 708.86 674.035 708.68 673.859 708.55C673.683 708.42 673.468 708.348 673.25 708.344L666.187 707.847C665.984 707.831 665.789 707.763 665.624 707.64C665.46 707.522 665.334 707.357 665.257 707.166L662.625 700.6C662.544 700.401 662.403 700.229 662.223 700.106C662.047 699.984 661.832 699.919 661.618 699.919C661.4 699.919 661.19 699.984 661.01 700.106C660.83 700.229 660.688 700.401 660.608 700.6ZM693.392 700.6L690.756 707.166C690.683 707.357 690.557 707.522 690.392 707.64C690.228 707.763 690.033 707.831 689.83 707.847L682.763 708.344C682.545 708.348 682.334 708.42 682.158 708.55C681.982 708.68 681.852 708.86 681.783 709.067C681.714 709.277 681.714 709.499 681.779 709.709C681.84 709.916 681.971 710.099 682.143 710.233L687.565 714.784C687.725 714.91 687.848 715.078 687.913 715.273C687.978 715.465 687.986 715.671 687.94 715.87L686.202 722.742C686.157 722.949 686.168 723.167 686.241 723.366C686.317 723.565 686.447 723.74 686.62 723.863C686.792 723.989 686.995 724.062 687.209 724.073C687.419 724.081 687.63 724.027 687.813 723.92L693.825 720.172C693.993 720.054 694.192 719.989 694.399 719.989C694.605 719.989 694.804 720.054 694.973 720.172L700.984 723.92C701.164 724.046 701.378 724.115 701.6 724.111C701.818 724.111 702.032 724.039 702.212 723.909C702.388 723.779 702.522 723.595 702.591 723.389C702.66 723.178 702.66 722.953 702.595 722.742L700.888 715.87C700.838 715.675 700.842 715.469 700.9 715.277C700.961 715.086 701.076 714.914 701.229 714.784L706.685 710.233C706.842 710.092 706.957 709.908 707.01 709.705C707.064 709.503 707.06 709.285 706.995 709.086C706.926 708.883 706.804 708.707 706.639 708.577C706.474 708.443 706.275 708.363 706.065 708.344L698.967 707.847C698.764 707.831 698.569 707.763 698.405 707.64C698.24 707.522 698.114 707.357 698.037 707.166L695.405 700.6C695.325 700.401 695.187 700.229 695.007 700.106C694.827 699.984 694.617 699.919 694.399 699.919C694.18 699.919 693.97 699.984 693.79 700.106C693.61 700.229 693.473 700.401 693.392 700.6ZM726.203 700.6L723.54 707.166C723.467 707.357 723.341 707.525 723.176 707.644C723.012 707.766 722.813 707.835 722.61 707.847L715.547 708.344C715.336 708.363 715.134 708.443 714.969 708.577C714.804 708.707 714.682 708.883 714.617 709.086C714.552 709.285 714.544 709.503 714.598 709.705C714.655 709.908 714.766 710.092 714.927 710.233L720.379 714.784C720.529 714.918 720.64 715.09 720.697 715.281C720.758 715.472 720.766 715.675 720.72 715.87L718.983 722.742C718.929 722.957 718.941 723.178 719.017 723.381C719.09 723.588 719.228 723.767 719.404 723.893C719.58 724.02 719.794 724.092 720.012 724.096C720.23 724.1 720.444 724.039 720.628 723.92L726.605 720.172C726.781 720.05 726.984 719.985 727.194 719.985C727.405 719.985 727.611 720.05 727.783 720.172L733.764 723.92C733.948 724.039 734.162 724.1 734.38 724.096C734.598 724.092 734.809 724.02 734.988 723.893C735.164 723.767 735.298 723.588 735.375 723.381C735.448 723.178 735.459 722.957 735.406 722.742L733.672 715.87C733.626 715.675 733.634 715.472 733.695 715.281C733.753 715.09 733.863 714.918 734.013 714.784L739.465 710.233C739.622 710.092 739.737 709.908 739.791 709.705C739.848 709.503 739.84 709.285 739.775 709.086C739.71 708.883 739.588 708.707 739.419 708.577C739.255 708.443 739.056 708.363 738.845 708.344L731.782 707.847C731.575 707.835 731.38 707.766 731.216 707.644C731.051 707.525 730.925 707.357 730.852 707.166L728.185 700.6C728.112 700.397 727.979 700.221 727.803 700.095C727.623 699.973 727.412 699.904 727.194 699.904C726.98 699.904 726.766 699.973 726.59 700.095C726.414 700.221 726.276 700.397 726.203 700.6Z" stroke="white" stroke-width="1.5"/>
<path d="M597.029 700.6L599.662 707.166C599.739 707.357 599.865 707.522 600.029 707.64C600.194 707.763 600.389 707.831 600.592 707.847L607.69 708.344C607.896 708.363 608.099 708.443 608.264 708.577C608.428 708.707 608.551 708.883 608.616 709.086C608.685 709.285 608.688 709.503 608.635 709.705C608.577 709.908 608.466 710.092 608.306 710.233L602.853 714.784C602.7 714.914 602.585 715.086 602.524 715.277C602.463 715.469 602.459 715.675 602.513 715.87L604.219 722.742C604.284 722.953 604.28 723.178 604.212 723.389C604.143 723.595 604.013 723.779 603.833 723.909C603.657 724.039 603.442 724.111 603.221 724.111C603.002 724.115 602.788 724.046 602.604 723.92L596.597 720.172C596.429 720.054 596.226 719.989 596.023 719.989C595.817 719.989 595.618 720.054 595.449 720.172L589.438 723.92C589.254 724.027 589.044 724.081 588.833 724.073C588.619 724.062 588.416 723.989 588.244 723.863C588.072 723.74 587.942 723.565 587.865 723.366C587.793 723.167 587.777 722.949 587.827 722.742L589.56 715.87C589.61 715.671 589.603 715.465 589.537 715.273C589.469 715.078 589.35 714.91 589.189 714.784L583.767 710.172C583.595 710.038 583.465 709.854 583.4 709.644C583.335 709.438 583.339 709.212 583.408 709.006C583.477 708.799 583.607 708.615 583.783 708.489C583.959 708.359 584.169 708.286 584.387 708.283L591.451 707.786C591.653 707.77 591.849 707.698 592.013 707.579C592.178 707.457 592.308 707.292 592.38 707.105L595.017 700.538C595.101 700.34 595.246 700.171 595.43 700.057C595.614 699.938 595.828 699.881 596.042 699.888C596.26 699.896 596.471 699.965 596.647 700.095C596.823 700.221 596.957 700.397 597.029 700.6ZM627.828 700.6L625.165 707.166C625.092 707.357 624.966 707.525 624.801 707.644C624.637 707.766 624.438 707.835 624.235 707.847L617.168 708.344C616.957 708.363 616.758 708.443 616.594 708.577C616.429 708.707 616.307 708.883 616.242 709.086C616.173 709.285 616.169 709.503 616.222 709.705C616.28 709.908 616.391 710.092 616.548 710.233L622.004 714.784C622.153 714.918 622.26 715.09 622.322 715.281C622.383 715.472 622.391 715.675 622.345 715.87L620.607 722.742C620.554 722.957 620.565 723.178 620.642 723.381C620.715 723.588 620.848 723.767 621.028 723.893C621.204 724.02 621.415 724.092 621.633 724.096C621.855 724.1 622.069 724.039 622.249 723.92L628.23 720.172C628.402 720.05 628.608 719.985 628.819 719.985C629.029 719.985 629.236 720.05 629.408 720.172L635.389 723.92C635.572 724.039 635.787 724.1 636.005 724.096C636.223 724.092 636.433 724.02 636.613 723.893C636.789 723.767 636.923 723.588 637 723.381C637.072 723.178 637.084 722.957 637.03 722.742L635.297 715.87C635.251 715.675 635.259 715.472 635.316 715.281C635.377 715.09 635.488 714.918 635.637 714.784L641.09 710.233C641.247 710.092 641.362 709.908 641.415 709.705C641.472 709.503 641.465 709.285 641.4 709.086C641.335 708.883 641.208 708.707 641.044 708.577C640.879 708.443 640.68 708.363 640.47 708.344L633.407 707.847C633.2 707.835 633.005 707.766 632.84 707.644C632.672 707.525 632.546 707.357 632.477 707.166L629.81 700.6C629.737 700.397 629.603 700.221 629.427 700.095C629.247 699.973 629.037 699.904 628.819 699.904C628.601 699.904 628.39 699.973 628.214 700.095C628.034 700.221 627.9 700.397 627.828 700.6ZM660.608 700.6L657.976 707.166C657.899 707.357 657.773 707.522 657.608 707.64C657.444 707.763 657.249 707.831 657.046 707.847L649.952 708.344C649.741 708.363 649.542 708.443 649.374 708.577C649.209 708.707 649.087 708.883 649.022 709.086C648.957 709.285 648.949 709.503 649.007 709.705C649.06 709.908 649.175 710.092 649.332 710.233L654.784 714.784C654.937 714.914 655.052 715.086 655.113 715.277C655.175 715.469 655.178 715.675 655.125 715.87L653.422 722.742C653.353 722.953 653.357 723.178 653.426 723.389C653.495 723.595 653.625 723.779 653.805 723.909C653.981 724.039 654.195 724.111 654.417 724.111C654.635 724.115 654.853 724.046 655.033 723.92L661.044 720.172C661.213 720.054 661.412 719.989 661.618 719.989C661.821 719.989 662.024 720.054 662.188 720.172L668.2 723.92C668.383 724.027 668.594 724.081 668.808 724.073C669.018 724.062 669.225 723.989 669.397 723.863C669.566 723.74 669.699 723.565 669.772 723.366C669.845 723.167 669.86 722.949 669.81 722.742L668.077 715.87C668.027 715.671 668.035 715.465 668.104 715.273C668.169 715.078 668.288 714.91 668.448 714.784L673.87 710.233C674.046 710.099 674.172 709.916 674.238 709.709C674.303 709.499 674.299 709.277 674.234 709.067C674.165 708.86 674.035 708.68 673.859 708.55C673.683 708.42 673.468 708.348 673.25 708.344L666.187 707.847C665.984 707.831 665.789 707.763 665.624 707.64C665.46 707.522 665.334 707.357 665.257 707.166L662.625 700.6C662.544 700.401 662.403 700.229 662.223 700.106C662.047 699.984 661.832 699.919 661.618 699.919C661.4 699.919 661.19 699.984 661.01 700.106C660.83 700.229 660.688 700.401 660.608 700.6ZM693.392 700.6L690.756 707.166C690.683 707.357 690.557 707.522 690.392 707.64C690.228 707.763 690.033 707.831 689.83 707.847L682.763 708.344C682.545 708.348 682.334 708.42 682.158 708.55C681.982 708.68 681.852 708.86 681.783 709.067C681.714 709.277 681.714 709.499 681.779 709.709C681.84 709.916 681.971 710.099 682.143 710.233L687.565 714.784C687.725 714.91 687.848 715.078 687.913 715.273C687.978 715.465 687.986 715.671 687.94 715.87L686.202 722.742C686.157 722.949 686.168 723.167 686.241 723.366C686.317 723.565 686.447 723.74 686.62 723.863C686.792 723.989 686.995 724.062 687.209 724.073C687.419 724.081 687.63 724.027 687.813 723.92L693.825 720.172C693.993 720.054 694.192 719.989 694.399 719.989C694.605 719.989 694.804 720.054 694.973 720.172L700.984 723.92C701.164 724.046 701.378 724.115 701.6 724.111C701.818 724.111 702.032 724.039 702.212 723.909C702.388 723.779 702.522 723.595 702.591 723.389C702.66 723.178 702.66 722.953 702.595 722.742L700.888 715.87C700.838 715.675 700.842 715.469 700.9 715.277C700.961 715.086 701.076 714.914 701.229 714.784L706.685 710.233C706.842 710.092 706.957 709.908 707.01 709.705C707.064 709.503 707.06 709.285 706.995 709.086C706.926 708.883 706.804 708.707 706.639 708.577C706.474 708.443 706.275 708.363 706.065 708.344L698.967 707.847C698.764 707.831 698.569 707.763 698.405 707.64C698.24 707.522 698.114 707.357 698.037 707.166L695.405 700.6C695.325 700.401 695.187 700.229 695.007 700.106C694.827 699.984 694.617 699.919 694.399 699.919C694.18 699.919 693.97 699.984 693.79 700.106C693.61 700.229 693.473 700.401 693.392 700.6ZM726.203 700.6L723.54 707.166C723.467 707.357 723.341 707.525 723.176 707.644C723.012 707.766 722.813 707.835 722.61 707.847L715.547 708.344C715.336 708.363 715.134 708.443 714.969 708.577C714.804 708.707 714.682 708.883 714.617 709.086C714.552 709.285 714.544 709.503 714.598 709.705C714.655 709.908 714.766 710.092 714.927 710.233L720.379 714.784C720.529 714.918 720.64 715.09 720.697 715.281C720.758 715.472 720.766 715.675 720.72 715.87L718.983 722.742C718.929 722.957 718.941 723.178 719.017 723.381C719.09 723.588 719.228 723.767 719.404 723.893C719.58 724.02 719.794 724.092 720.012 724.096C720.23 724.1 720.444 724.039 720.628 723.92L726.605 720.172C726.781 720.05 726.984 719.985 727.194 719.985C727.405 719.985 727.611 720.05 727.783 720.172L733.764 723.92C733.948 724.039 734.162 724.1 734.38 724.096C734.598 724.092 734.809 724.02 734.988 723.893C735.164 723.767 735.298 723.588 735.375 723.381C735.448 723.178 735.459 722.957 735.406 722.742L733.672 715.87C733.626 715.675 733.634 715.472 733.695 715.281C733.753 715.09 733.863 714.918 734.013 714.784L739.465 710.233C739.622 710.092 739.737 709.908 739.791 709.705C739.848 709.503 739.84 709.285 739.775 709.086C739.71 708.883 739.588 708.707 739.419 708.577C739.255 708.443 739.056 708.363 738.845 708.344L731.782 707.847C731.575 707.835 731.38 707.766 731.216 707.644C731.051 707.525 730.925 707.357 730.852 707.166L728.185 700.6C728.112 700.397 727.979 700.221 727.803 700.095C727.623 699.973 727.412 699.904 727.194 699.904C726.98 699.904 726.766 699.973 726.59 700.095C726.414 700.221 726.276 700.397 726.203 700.6Z" fill="#D57F00"/>
<path d="M748.484 644.271H659.215V649.752H748.484V644.271Z" fill="white"/>
<path d="M748.484 659.416H659.215V664.896H748.484V659.416Z" fill="white"/>
<path d="M748.484 629.097H659.215V634.577H748.484V629.097Z" fill="white"/>
<path d="M705.632 674.59H659.215V680.07H705.632V674.59Z" fill="white"/>
<path d="M608.959 621.88L574.721 649.442H583.923V680.04L600.376 680.009V658.39H617.541V679.979L633.964 679.914V649.442H643.166L608.959 621.88Z" fill="white"/>
</svg>
