<svg width="22" height="14" viewBox="0 0 22 14" fill="none" xmlns="http://www.w3.org/2000/svg">
<path fill-rule="evenodd" clip-rule="evenodd" d="M9.81145 13.0037C10.1213 13.3215 10.5415 13.5 10.9797 13.5C11.4179 13.5 11.8381 13.3215 12.1479 13.0037L21.4955 3.4144C21.6534 3.25803 21.7792 3.07098 21.8658 2.86417C21.9524 2.65736 21.998 2.43493 21.9999 2.20985C22.0018 1.98477 21.96 1.76156 21.877 1.55324C21.7939 1.34491 21.6712 1.15565 21.516 0.996488C21.3609 0.837328 21.1764 0.71146 20.9733 0.626228C20.7702 0.540997 20.5526 0.498108 20.3332 0.500064C20.1138 0.50202 19.897 0.548781 19.6954 0.637621C19.4938 0.72646 19.3115 0.855597 19.1591 1.0175L10.9797 9.40834L2.80034 1.0175C2.48869 0.708719 2.07129 0.53786 1.63804 0.541722C1.20479 0.545584 0.790346 0.723858 0.483978 1.03815C0.177611 1.35244 0.00382819 1.77759 6.3077e-05 2.22205C-0.00370203 2.6665 0.16285 3.0947 0.463848 3.4144L9.81145 13.0037Z" fill="#C96F3B"/>
</svg>
